<?xml version="1.0" standalone="no"?>
<!DOCTYPE svg PUBLIC "-//W3C//DTD SVG 1.1//EN" "http://www.w3.org/Graphics/SVG/1.1/DTD/svg11.dtd" >
<svg xmlns="http://www.w3.org/2000/svg" xmlns:xlink="http://www.w3.org/1999/xlink" version="1.1">
<metadata>
Created by FontForge 20161013 at Wed Feb  9 18:18:42 2011
 By ,,,
Copyright 2011 Monotype Imaging Inc. All rights reserved.
</metadata>
<defs>
<font id="HarmoniaSansProCyr-Italic" horiz-adv-x="388" >
  <font-face 
    font-family="Harmonia Sans Pro Cyr"
    font-weight="400"
    font-style="italic"
    font-stretch="normal"
    units-per-em="1000"
    panose-1="2 11 5 2 3 4 2 9 2 4"
    ascent="730"
    descent="-270"
    x-height="482"
    cap-height="682"
    bbox="-154 -257 1137 990"
    underline-thickness="50"
    underline-position="-200"
    slope="-8"
    unicode-range="U+0020-FB04"
  />
<missing-glyph horiz-adv-x="500" 
d="M12 0v665h475v-665h-475zM88 618l162 -243l161 243h-323zM60 575v-484l40 61l80 120l41 61zM440 575l-162 -242l162 -243v485zM411 48l-161 242l-162 -242h323z" />
    <glyph glyph-name="IJ" unicode="IJ" horiz-adv-x="559" 
d="M44 0l109 682h79l-109 -682h-79zM310 47q49 0 73 27.5t33 89.5l81 518h77l-82 -522q-15 -95 -56.5 -139t-128.5 -44q-56 0 -97 24l11 68q41 -22 89 -22z" />
    <glyph glyph-name="ij" unicode="ij" horiz-adv-x="430" 
d="M118 482h75l-76 -482h-75zM132 602l14 87h89l-14 -87h-89zM408 482l-86 -544q-16 -102 -57.5 -146t-118.5 -44q-46 0 -85 13l12 66q38 -12 73 -12q42 0 66 28t34 93l87 546h75zM347 602l14 87h89l-14 -87h-89z" />
    <glyph glyph-name="napostrophe" unicode="&#x27;n" horiz-adv-x="551" 
d="M36 0l77 482h75l-9 -59h1q56 72 144 72q77 0 121.5 -45t44.5 -117q0 -24 -4 -54l-43 -279h-75l42 271q5 35 5 51q0 47 -26.5 76.5t-73.5 29.5q-65 0 -108.5 -48t-55.5 -128l-40 -252h-75zM38 492h-48q40 66 53 122h-46l16 106h102l-7 -48q-14 -102 -70 -180z" />
    <glyph glyph-name="f_f" unicode="ff" horiz-adv-x="550" 
d="M218 419l-69 -441q-18 -114 -63 -164t-124 -50q-33 0 -58 9l10 62q23 -7 48 -7q43 0 71 34t42 125l67 432h-66l10 63h66l12 74q13 84 53.5 126.5t118.5 42.5q28 0 58 -8l-10 -62q-24 6 -47 6q-41 0 -64 -23.5t-33 -82.5l-12 -73h187l12 74q13 84 53.5 126.5t118.5 42.5
q28 0 58 -8l-10 -62q-24 6 -47 6q-41 0 -64 -23.5t-33 -82.5l-12 -73h107l-10 -63h-107l-69 -441q-18 -114 -63 -164t-124 -50q-33 0 -58 9l10 62q23 -7 48 -7q43 0 71 34t42 125l67 432h-187z" />
    <glyph glyph-name="fi" unicode="fi" horiz-adv-x="512" 
d="M76 419l10 63h66l12 74q13 84 53.5 126.5t118.5 42.5q28 0 58 -8l-10 -62q-24 6 -47 6q-41 0 -64 -23.5t-33 -82.5l-12 -73h107l-10 -63h-107l-69 -441q-18 -114 -63 -164t-124 -50q-33 0 -58 9l10 62q23 -7 48 -7q43 0 71 34t42 125l67 432h-66zM415 482h75l-76 -482
h-75zM429 602l14 87h89l-14 -87h-89z" />
    <glyph glyph-name="fl" unicode="fl" horiz-adv-x="516" 
d="M76 419l10 63h66l12 74q13 84 53.5 126.5t118.5 42.5q28 0 58 -8l-10 -62q-24 6 -47 6q-41 0 -64 -23.5t-33 -82.5l-12 -73h107l-10 -63h-107l-69 -441q-18 -114 -63 -164t-124 -50q-33 0 -58 9l10 62q23 -7 48 -7q43 0 71 34t42 125l67 432h-66zM458 720h75l-115 -720
h-75z" />
    <glyph glyph-name="f_f_i" unicode="ffi" horiz-adv-x="775" 
d="M678 482h75l-76 -482h-75zM692 602l14 87h89l-14 -87h-89zM218 419l-69 -441q-17 -110 -72.5 -162t-138.5 -52q-9 0 -34 9l10 62q23 -7 48 -7q43 0 71 34t42 125l67 432h-66l10 63h66l12 74q13 84 53.5 126.5t118.5 42.5q28 0 58 -8l-10 -62q-24 6 -47 6q-41 0 -64 -23.5
t-33 -82.5l-12 -73h187l12 74q13 84 53.5 126.5t118.5 42.5q28 0 58 -8l-10 -62q-24 6 -47 6q-41 0 -64 -23.5t-33 -82.5l-12 -73h107l-10 -63h-107l-69 -441q-18 -114 -63 -164t-124 -50q-33 0 -58 9l10 62q23 -7 48 -7q43 0 71 34t42 125l67 432h-187z" />
    <glyph glyph-name="f_f_l" unicode="ffl" horiz-adv-x="779" 
d="M721 720h75l-115 -720h-75zM218 419l-69 -441q-18 -114 -63 -164t-124 -50q-33 0 -58 9l10 62q23 -7 48 -7q43 0 71 34t42 125l67 432h-66l10 63h66l12 74q13 84 53.5 126.5t118.5 42.5q28 0 58 -8l-10 -62q-24 6 -47 6q-41 0 -64 -23.5t-33 -82.5l-12 -73h187l12 74
q13 84 53.5 126.5t118.5 42.5q28 0 58 -8l-10 -62q-24 6 -47 6q-41 0 -64 -23.5t-33 -82.5l-12 -73h107l-10 -63h-107l-69 -441q-18 -114 -63 -164t-124 -50q-33 0 -58 9l10 62q23 -7 48 -7q43 0 71 34t42 125l67 432h-187z" />
    <glyph glyph-name=".notdef" horiz-adv-x="500" 
d="M12 0v665h475v-665h-475zM88 618l162 -243l161 243h-323zM60 575v-484l40 61l80 120l41 61zM440 575l-162 -242l162 -243v485zM411 48l-161 242l-162 -242h323z" />
    <glyph glyph-name=".null" horiz-adv-x="0" 
 />
    <glyph glyph-name="nonmarkingreturn" horiz-adv-x="333" 
 />
    <glyph glyph-name="space" unicode=" " horiz-adv-x="240" 
 />
    <glyph glyph-name="exclam" unicode="!" horiz-adv-x="221" 
d="M38 0l13 88h85l-13 -88h-85zM146 682h85l-87 -493h-69z" />
    <glyph glyph-name="quotedbl" unicode="&#x22;" horiz-adv-x="345" 
d="M145 720h76l-45 -217h-57zM299 720h76l-45 -217h-59z" />
    <glyph glyph-name="numbersign" unicode="#" horiz-adv-x="590" 
d="M479 476h128l-16 -52h-127l-49 -170h129l-13 -54h-130l-57 -200h-58l58 200h-134l-59 -200h-56l57 200h-126l14 54h126l50 170h-129l14 52h130l57 206h58l-59 -206h134l59 206h57zM407 424h-135l-50 -170h136z" />
    <glyph glyph-name="dollar" unicode="$" horiz-adv-x="550" 
d="M203 -67l15 88q-69 12 -113 57t-54 114h79q17 -90 98 -106l39 259q-73 28 -102.5 67t-29.5 91q0 70 50 112t129 46l11 73h61l-11 -73q59 -10 97 -48t46 -98h-77q-8 64 -75 80l-30 -199q149 -56 149 -190q0 -80 -56.5 -131.5t-149.5 -53.5l-15 -88h-61zM410 206
q0 40 -18.5 67.5t-66.5 49.5l-36 -239q54 5 87.5 37.5t33.5 84.5zM210 506q0 -30 14 -50.5t54 -38.5l27 181q-47 -5 -71 -30t-24 -62z" />
    <glyph glyph-name="percent" unicode="%" horiz-adv-x="724" 
d="M609 682h80l-517 -682h-80zM76 477q0 99 47 162t119 63q52 0 87.5 -36t35.5 -106q0 -98 -46.5 -163.5t-117.5 -65.5q-58 0 -91.5 39t-33.5 107zM296 552q0 86 -57 86q-40 0 -66.5 -41.5t-26.5 -115.5q0 -85 59 -85q39 0 64 43.5t27 112.5zM407 124q0 100 47 162.5
t121 62.5q50 0 85.5 -36.5t35.5 -105.5q0 -98 -46.5 -163.5t-118.5 -65.5q-55 0 -89.5 39.5t-34.5 106.5zM627 199q0 86 -57 86q-38 0 -65.5 -42t-27.5 -115q0 -85 59 -85q38 0 64.5 44.5t26.5 111.5z" />
    <glyph glyph-name="ampersand" unicode="&#x26;" horiz-adv-x="589" 
d="M498 326l2 12h73l-1 -9q-9 -59 -38 -121t-62 -100q20 -33 34.5 -43.5t37.5 -10.5q13 0 29 4l-11 -66q-18 -5 -37 -5q-32 0 -56 15.5t-49 53.5q-89 -74 -202 -74q-86 0 -133 52t-47 124q0 83 48 136.5t140 97.5q-37 67 -37 132q0 74 46 126t130 52q64 0 104 -34.5
t40 -91.5q0 -75 -47 -124.5t-137 -91.5l111 -191q47 72 62 157zM258 331q-144 -57 -144 -169q0 -48 30 -80t81 -32q91 0 161 63zM293 420q142 56 142 149q0 27 -18.5 46t-53.5 19q-48 0 -74 -33.5t-26 -73.5q0 -49 30 -107z" />
    <glyph glyph-name="quotesingle" unicode="'" horiz-adv-x="192" 
d="M145 720h76l-45 -217h-57z" />
    <glyph glyph-name="parenleft" unicode="(" horiz-adv-x="308" 
d="M242 -215h-76q-83 150 -83 370q0 144 61 305t172 283h78q-112 -122 -173.5 -283.5t-61.5 -304.5q0 -223 83 -370z" />
    <glyph glyph-name="parenright" unicode=")" horiz-adv-x="308" 
d="M29 -215h-77q108 122 171 282.5t63 336.5q0 91 -22 183t-61 156h76q83 -138 83 -339q0 -167 -59 -327t-174 -292z" />
    <glyph glyph-name="asterisk" unicode="*" horiz-adv-x="397" 
d="M68 559l22 69l135 -52l-7 144h72l-7 -144l135 52l22 -69l-139 -38l91 -112l-58 -43l-80 121l-80 -121l-58 43l91 112z" />
    <glyph glyph-name="plus" unicode="+" horiz-adv-x="672" 
d="M615 228h-222v-228h-72v228h-221v72h221v230h72v-230h222v-72z" />
    <glyph glyph-name="comma" unicode="," horiz-adv-x="220" 
d="M29 0l17 107h104l-14 -75q-17 -93 -76 -168h-50q35 45 58 136h-39z" />
    <glyph glyph-name="hyphen" unicode="-" horiz-adv-x="453" 
d="M399 232h-309l11 65h309z" />
    <glyph glyph-name="period" unicode="." horiz-adv-x="220" 
d="M29 0l17 107h104l-17 -107h-104z" />
    <glyph glyph-name="slash" unicode="/" horiz-adv-x="345" 
d="M345 720h74l-406 -834h-73z" />
    <glyph glyph-name="zero" unicode="0" horiz-adv-x="550" 
d="M57 240q0 129 32.5 233t100 168.5t160.5 64.5q92 0 146 -65t54 -184q0 -136 -31 -242t-97 -171.5t-159 -65.5t-149.5 67.5t-56.5 194.5zM269 49q64 0 110.5 56.5t68 146t21.5 200.5q0 88 -31 135.5t-91 47.5q-66 0 -114.5 -58t-71.5 -147.5t-23 -197.5q0 -80 33 -131.5
t98 -51.5z" />
    <glyph glyph-name="one" unicode="1" horiz-adv-x="550" 
d="M205 0l97 609h-105l12 73h182l-109 -682h-77z" />
    <glyph glyph-name="two" unicode="2" horiz-adv-x="550" 
d="M49 0l11 74l251 245q38 37 62 65t47.5 73t23.5 85q0 44 -25.5 68.5t-70.5 24.5q-55 0 -91 -36.5t-41 -84.5h-81q5 79 65.5 135.5t146.5 56.5q79 0 130 -41.5t51 -116.5q0 -71 -44.5 -137t-116.5 -137l-209 -201h306l-11 -73h-404z" />
    <glyph glyph-name="three" unicode="3" horiz-adv-x="550" 
d="M214 537h-80q10 69 64 119t145 50q79 0 127 -44t48 -115q0 -67 -41 -113.5t-109 -61.5v-4q55 -13 88 -53t33 -98q0 -102 -63.5 -170t-168.5 -68q-84 0 -142.5 48t-58.5 129v7h81v-6q0 -51 35.5 -79.5t89.5 -28.5q65 0 104.5 46.5t39.5 115.5q0 121 -135 121h-42l11 72h40
q70 0 112.5 37t42.5 94q0 49 -26.5 74.5t-76.5 25.5q-45 0 -76.5 -26.5t-41.5 -71.5z" />
    <glyph glyph-name="four" unicode="4" horiz-adv-x="550" 
d="M500 165h-84l-27 -165h-77l27 165h-304l10 66l377 451h75l-70 -447h84zM403 568l-276 -333h223z" />
    <glyph glyph-name="five" unicode="5" horiz-adv-x="550" 
d="M248 610l-47 -189q36 12 77 12q100 0 156 -58.5t56 -151.5q0 -96 -62 -170.5t-173 -74.5q-92 0 -147.5 51t-54.5 139h84q0 -55 33.5 -87t91.5 -32q70 0 108.5 50.5t38.5 119.5q0 61 -36 102t-112 41q-66 0 -155 -31l84 351h335l-12 -72h-265z" />
    <glyph glyph-name="six" unicode="6" horiz-adv-x="550" 
d="M38 189q0 112 95 226l225 267h89l-187 -223q23 9 64 9q91 0 145 -60.5t54 -146.5q0 -115 -73.5 -199t-189.5 -84q-100 0 -161 58.5t-61 152.5zM300 397q-78 0 -129.5 -60t-51.5 -142q0 -65 38 -105.5t106 -40.5q76 0 127.5 60t51.5 141q0 69 -37 108t-105 39z" />
    <glyph glyph-name="seven" unicode="7" horiz-adv-x="550" 
d="M562 682l-11 -67q-63 -102 -188.5 -307.5t-189.5 -307.5h-90l380 609h-332l12 73h419z" />
    <glyph glyph-name="eight" unicode="8" horiz-adv-x="550" 
d="M331 634q-48 0 -84 -34.5t-36 -91.5q0 -45 30.5 -75t80.5 -30q53 0 85 36.5t32 88.5q0 49 -29 77.5t-79 28.5zM501 203q0 -99 -63.5 -161.5t-168.5 -62.5q-98 0 -157 55t-59 138q0 81 45 133t122 68q-43 20 -66 57t-23 84q0 82 56.5 136.5t151.5 54.5q82 0 131 -47.5
t49 -118.5q0 -64 -36.5 -111t-95.5 -63q53 -20 83.5 -62.5t30.5 -99.5zM281 333q-61 0 -104 -41t-43 -113q0 -57 37.5 -93t104.5 -36q62 0 103 40t41 110q0 63 -38.5 98t-100.5 35z" />
    <glyph glyph-name="nine" unicode="9" horiz-adv-x="550" 
d="M550 493q0 -115 -95 -227l-237 -266h-89l199 223q-23 -9 -59 -9q-83 0 -143.5 57t-60.5 164q0 105 73.5 187t199.5 82q95 0 153.5 -59.5t58.5 -151.5zM290 285q80 0 129.5 60.5t49.5 146.5q0 62 -37.5 101.5t-102.5 39.5q-80 0 -131.5 -54.5t-51.5 -142.5
q0 -70 40 -110.5t104 -40.5z" />
    <glyph glyph-name="colon" unicode=":" horiz-adv-x="230" 
d="M92 355l17 107h104l-17 -107h-104zM36 0l17 107h104l-17 -107h-104z" />
    <glyph glyph-name="semicolon" unicode=";" horiz-adv-x="230" 
d="M36 0l17 107h104l-17 -82q-20 -95 -73 -161h-50q40 52 58 136h-39zM92 355l17 107h104l-17 -107h-104z" />
    <glyph glyph-name="less" unicode="&#x3c;" horiz-adv-x="672" 
d="M613 0l-514 235v61q86 39 257.5 117t256.5 117v-80l-413 -184v-2l413 -183v-81z" />
    <glyph glyph-name="equal" unicode="=" horiz-adv-x="672" 
d="M621 340h-519v72h519v-72zM621 118h-519v72h519v-72z" />
    <glyph glyph-name="greater" unicode="&#x3e;" horiz-adv-x="672" 
d="M617 234l-514 -234v81l413 182v3l-413 184v80l514 -235v-61z" />
    <glyph glyph-name="question" unicode="?" horiz-adv-x="419" 
d="M319 325q-64 -58 -76 -136h-73q9 56 26.5 93t56.5 76q4 4 30.5 29t35 35.5t25 32.5t23 43t6.5 44q0 40 -25.5 66t-71.5 26q-51 0 -85.5 -33.5t-43.5 -90.5h-80q14 88 70.5 141t143.5 53q78 0 126.5 -41t48.5 -112q0 -66 -35 -116t-102 -110zM135 0l13 88h85l-13 -88h-85z
" />
    <glyph glyph-name="at" unicode="@" horiz-adv-x="949" 
d="M901 356q0 -116 -55 -191t-135 -75q-49 0 -78.5 23t-34.5 64h-5q-21 -38 -62 -62.5t-79 -24.5q-71 0 -114 52.5t-43 136.5q0 99 57 172t144 73q80 0 122 -74h1l11 63h67l-40 -259q-4 -26 -4 -47q0 -28 16 -44.5t48 -16.5q49 0 81.5 58.5t32.5 146.5q0 139 -84.5 218
t-241.5 79q-152 0 -248 -105t-96 -255q0 -146 91.5 -234.5t246.5 -88.5q127 0 202 36l22 -49q-88 -43 -232 -43q-178 0 -289 104t-111 276q0 176 117 295.5t301 119.5q103 0 181.5 -30.5t122.5 -81.5t66 -110.5t22 -125.5zM603 341q0 60 -26.5 93.5t-74.5 33.5
q-65 0 -101 -57.5t-36 -133.5q0 -59 26.5 -95t72.5 -36q61 0 100 60.5t39 134.5z" />
    <glyph glyph-name="A" unicode="A" horiz-adv-x="611" 
d="M-19 0l376 682h69l151 -682h-81l-37 185h-292l-98 -185h-88zM445 255l-47 235q-1 5 -18 104h-2q-8 -17 -26 -52t-27 -52l-122 -235h242z" />
    <glyph glyph-name="B" unicode="B" horiz-adv-x="519" 
d="M44 0l109 682h129q102 0 153.5 -42.5t51.5 -110.5q0 -61 -35 -105t-97 -61v-4q64 -12 96 -50.5t32 -91.5q0 -95 -65 -156t-176 -61h-198zM133 72h115q73 0 113 40.5t40 104.5q0 52 -36 76t-91 24h-101zM184 389h67q65 0 109.5 36t44.5 97q0 47 -35 67.5t-85 20.5h-66z
" />
    <glyph glyph-name="C" unicode="C" horiz-adv-x="734" 
d="M446 704q108 0 185 -51.5t98 -142.5h-88q-16 58 -69.5 91t-128.5 33q-98 0 -168.5 -47.5t-102.5 -121t-32 -162.5q0 -112 67.5 -183.5t171.5 -71.5q81 0 137 38.5t84 98.5h88q-37 -95 -120.5 -151t-189.5 -56q-147 0 -233.5 92.5t-86.5 229.5q0 111 46.5 202.5t136 146.5
t205.5 55z" />
    <glyph glyph-name="D" unicode="D" horiz-adv-x="677" 
d="M152 682h203q140 0 230 -72t90 -207q0 -176 -115.5 -289.5t-295.5 -113.5h-221zM134 72h137q142 0 231.5 92t89.5 232q0 99 -60.5 156.5t-180.5 57.5h-132z" />
    <glyph glyph-name="E" unicode="E" horiz-adv-x="502" 
d="M512 682l-12 -72h-281l-35 -221h271l-11 -72h-271l-39 -245h292l-12 -72h-370l109 682h359z" />
    <glyph glyph-name="F" unicode="F" horiz-adv-x="476" 
d="M512 682l-12 -72h-281l-37 -232h271l-11 -72h-271l-49 -306h-78l109 682h359z" />
    <glyph glyph-name="G" unicode="G" horiz-adv-x="745" 
d="M376 362h365l-2 -17q-21 -174 -117 -270.5t-242 -96.5q-145 0 -233 93t-88 232q0 109 45 199.5t133.5 146t202.5 55.5q113 0 189.5 -51.5t101.5 -142.5h-88q-17 53 -71 88.5t-131 35.5q-140 0 -220 -93.5t-80 -243.5q0 -106 65.5 -177.5t181.5 -71.5q103 0 172.5 67.5
t85.5 174.5h-282z" />
    <glyph glyph-name="H" unicode="H" horiz-adv-x="662" 
d="M484 0l51 317h-362l-51 -317h-79l109 682h79l-47 -293h362l47 293h79l-109 -682h-79z" />
    <glyph glyph-name="I" unicode="I" horiz-adv-x="222" 
d="M44 0l109 682h79l-109 -682h-79z" />
    <glyph glyph-name="J" unicode="J" horiz-adv-x="337" 
d="M88 47q49 0 73 27.5t33 89.5l81 518h77l-82 -522q-15 -95 -56.5 -139t-128.5 -44q-56 0 -97 24l11 68q41 -22 89 -22z" />
    <glyph glyph-name="K" unicode="K" horiz-adv-x="574" 
d="M460 0l-206 340l-91 -82l-41 -258h-79l109 682h79l-50 -316l344 316h105l-320 -293l245 -389h-95z" />
    <glyph glyph-name="L" unicode="L" horiz-adv-x="483" 
d="M44 0l109 682h79l-97 -610h291l-12 -72h-370z" />
    <glyph glyph-name="M" unicode="M" horiz-adv-x="785" 
d="M751 682l-33 -682h-77l24 391q4 68 14 190l-3 1q-17 -35 -47.5 -100t-38.5 -83l-191 -399h-68l-63 409q-21 130 -25 173h-6q-26 -110 -40 -165l-107 -417h-79l186 682h96l72 -438q12 -70 17 -126h4q40 92 56 126l213 438h96z" />
    <glyph glyph-name="N" unicode="N" horiz-adv-x="644" 
d="M117 0h-74l109 682h75l161 -338q63 -131 103 -226h2q2 12 10.5 74t13.5 96l63 394h74l-109 -682h-74l-160 339q-81 168 -103 228h-3q-18 -128 -26 -178z" />
    <glyph glyph-name="O" unicode="O" horiz-adv-x="767" 
d="M395 50q137 0 212.5 97t75.5 229q0 107 -67.5 181.5t-175.5 74.5q-74 0 -132 -28t-93.5 -75t-53.5 -104t-18 -119q0 -108 69 -182t183 -74zM397 -22q-153 0 -244.5 95t-91.5 233q0 75 24 144.5t69 127t119.5 92t166.5 34.5q145 0 235 -95t90 -233q0 -74 -23.5 -144
t-68 -127.5t-116.5 -92t-160 -34.5z" />
    <glyph glyph-name="P" unicode="P" horiz-adv-x="538" 
d="M175 333h114q84 0 132.5 43t48.5 125q0 57 -37 83t-97 26h-117zM44 0l109 682h187q92 0 152 -43.5t60 -139.5q0 -112 -74.5 -174.5t-206.5 -62.5h-107l-42 -262h-78z" />
    <glyph glyph-name="Q" unicode="Q" horiz-adv-x="767" 
d="M397 -22q-153 0 -244.5 95t-91.5 233q0 75 24 144.5t69 127t119.5 92t166.5 34.5q145 0 235 -95t90 -233q0 -98 -40.5 -188t-115.5 -144l65 -99l-62 -42l-68 103q-67 -28 -147 -28zM395 50q56 0 107 19l-71 106l62 42l74 -110q57 45 86.5 117t29.5 152q0 107 -67.5 181.5
t-175.5 74.5q-74 0 -132 -28t-93.5 -75t-53.5 -104t-18 -119q0 -108 69 -182t183 -74z" />
    <glyph glyph-name="R" unicode="R" horiz-adv-x="543" 
d="M168 287l-46 -287h-78l109 682h174q104 0 156 -46t52 -125q0 -82 -50.5 -140.5t-135.5 -75.5l160 -295h-91l-151 287h-99zM179 359h112q75 0 118.5 42t43.5 110q0 99 -128 99h-106z" />
    <glyph glyph-name="S" unicode="S" horiz-adv-x="524" 
d="M514 538h-81q-6 42 -39.5 70t-80.5 28q-56 0 -88 -31.5t-32 -76.5q0 -39 25.5 -69t91.5 -54q90 -33 130.5 -84.5t40.5 -130.5q0 -92 -64.5 -151.5t-164.5 -59.5q-97 0 -156 52.5t-69 143.5h83q21 -128 146 -128q63 0 104 39.5t41 103.5q0 54 -28 88t-102 61
q-158 57 -158 182q0 84 57 133.5t145 49.5q83 0 138.5 -47t60.5 -119z" />
    <glyph glyph-name="T" unicode="T" horiz-adv-x="495" 
d="M178 0l97 610h-172l12 72h424l-12 -72h-173l-97 -610h-79z" />
    <glyph glyph-name="U" unicode="U" horiz-adv-x="599" 
d="M269 -22q-96 0 -147 57t-51 161q0 39 6 76l65 410h79l-66 -422q-5 -30 -5 -64q0 -146 128 -146q83 0 131.5 52.5t65.5 161.5l66 418h79l-64 -408q-24 -152 -91 -224t-196 -72z" />
    <glyph glyph-name="V" unicode="V" horiz-adv-x="574" 
d="M650 682l-353 -682h-73l-137 682h80l83 -458q13 -71 21 -134h2q11 21 32 63.5t31 63.5l234 465h80z" />
    <glyph glyph-name="W" unicode="W" horiz-adv-x="800" 
d="M504 0l-32 432q-3 33 -3 147h-4q-30 -97 -49 -143l-175 -436h-80l-63 682h76l36 -441q7 -79 7 -134h4q29 92 50 143l173 432h78l32 -440q5 -70 5 -134h4q19 58 50 133l179 441h76l-278 -682h-86z" />
    <glyph glyph-name="X" unicode="X" horiz-adv-x="542" 
d="M186 682l87 -188q19 -42 35 -87q31 47 59 83l146 192h90l-260 -329q27 -59 80.5 -176.5t80.5 -176.5h-84l-101 230q-19 44 -28 68q-8 -10 -26 -36t-28 -39l-162 -223h-91l272 356l-156 326h86z" />
    <glyph glyph-name="Y" unicode="Y" horiz-adv-x="511" 
d="M183 0l45 279l-141 403h79l86 -250q19 -57 25 -81q10 20 46 76l164 255h86l-267 -402l-45 -280h-78z" />
    <glyph glyph-name="Z" unicode="Z" horiz-adv-x="577" 
d="M125 610l12 72h466l-11 -69l-469 -541h399l-12 -72h-498l11 68l471 542h-369z" />
    <glyph glyph-name="bracketleft" unicode="[" horiz-adv-x="340" 
d="M370 728l-12 -70h-102l-123 -788h101l-11 -70h-176l148 928h175z" />
    <glyph glyph-name="backslash" unicode="\" 
d="M96 723h71l172 -838h-71z" />
    <glyph glyph-name="bracketright" unicode="]" horiz-adv-x="340" 
d="M125 658l12 70h174l-146 -928h-175l12 70h102l123 788h-102z" />
    <glyph glyph-name="asciicircum" unicode="^" horiz-adv-x="672" 
d="M629 326h-86l-185 291h-4l-185 -291h-86l245 378h56q41 -63 122.5 -189t122.5 -189z" />
    <glyph glyph-name="underscore" unicode="_" horiz-adv-x="550" 
d="M-50 -238v63h550v-63h-550z" />
    <glyph glyph-name="grave" unicode="`" horiz-adv-x="316" 
d="M121 695l61 46l103 -150l-45 -33z" />
    <glyph glyph-name="a" unicode="a" horiz-adv-x="598" 
d="M576 482l-35 -222q-20 -126 -20 -185q0 -37 6 -75h-75q-6 38 -6 65h-4q-62 -82 -178 -82q-93 0 -153.5 59t-60.5 163q0 122 76 206t193 84q51 0 96.5 -23.5t71.5 -63.5h1l13 74h75zM323 430q-85 0 -140 -64t-55 -164q0 -69 39.5 -111t105.5 -42q94 0 146.5 67.5
t52.5 158.5q0 70 -40.5 112.5t-108.5 42.5z" />
    <glyph glyph-name="b" unicode="b" horiz-adv-x="593" 
d="M41 0l114 720h75l-48 -304h1q28 35 74 57t102 22q94 0 151 -59.5t57 -149.5q0 -126 -79.5 -214.5t-199.5 -88.5q-107 0 -159 83h-1l-12 -66h-75zM294 49q80 0 138 65t58 163q0 68 -38.5 110.5t-106.5 42.5q-85 0 -140 -69.5t-55 -158.5q0 -69 39 -111t105 -42z" />
    <glyph glyph-name="c" unicode="c" horiz-adv-x="530" 
d="M324 495q80 0 133 -41t66 -110h-82q-7 37 -38 61t-80 24q-92 0 -143.5 -67t-51.5 -160q0 -66 38.5 -109.5t103.5 -43.5q94 0 140 80h83q-31 -64 -88.5 -105t-137.5 -41q-96 0 -156.5 60.5t-60.5 165.5q0 115 78 200.5t196 85.5z" />
    <glyph glyph-name="d" unicode="d" horiz-adv-x="598" 
d="M615 720l-74 -460q-20 -126 -20 -185q0 -37 6 -75h-75q-6 38 -6 65h-4q-62 -82 -178 -82q-93 0 -153.5 59t-60.5 163q0 122 76 206t193 84q51 0 96.5 -23.5t71.5 -63.5h1l52 312h75zM323 430q-85 0 -140 -64t-55 -164q0 -69 39.5 -111t105.5 -42q94 0 146.5 67.5
t52.5 158.5q0 70 -40.5 112.5t-108.5 42.5z" />
    <glyph glyph-name="e" unicode="e" horiz-adv-x="545" 
d="M317 495q81 0 140 -52.5t59 -152.5q0 -40 -8 -71h-381q-2 -16 -2 -25q0 -62 37.5 -103.5t100.5 -41.5q100 0 135 59h85q-63 -125 -226 -125q-94 0 -150 60.5t-56 158.5q0 120 75 206.5t191 86.5zM313 430q-64 0 -111 -40.5t-64 -108.5h303q0 3 0.5 7t0.5 6q0 61 -34 98.5
t-95 37.5z" />
    <glyph glyph-name="f" unicode="f" horiz-adv-x="287" 
d="M76 419l10 63h66l12 74q13 84 53.5 126.5t118.5 42.5q28 0 58 -8l-10 -62q-24 6 -47 6q-41 0 -64 -23.5t-33 -82.5l-12 -73h107l-10 -63h-107l-69 -441q-18 -114 -63 -164t-124 -50q-33 0 -58 9l10 62q23 -7 48 -7q43 0 71 34t42 125l67 432h-66z" />
    <glyph glyph-name="g" unicode="g" horiz-adv-x="604" 
d="M578 482l-77 -481q-23 -140 -90.5 -198t-192.5 -58q-53 0 -105 16.5t-79 40.5l11 68q71 -61 176 -61q94 0 143 46t65 154l9 59h-1q-65 -85 -173 -85q-101 0 -157 65t-56 158q0 116 76 202.5t193 86.5q114 0 170 -87h1q3 16 13 74h74zM325 430q-87 0 -141.5 -68
t-54.5 -158q0 -71 39 -113t108 -42q82 0 137 70t55 157q0 67 -38.5 110.5t-104.5 43.5z" />
    <glyph glyph-name="h" unicode="h" horiz-adv-x="542" 
d="M46 0l114 720h75l-46 -297h1q58 72 144 72q78 0 122 -43t44 -119q0 -27 -7 -72l-40 -261h-75l40 256q7 42 7 66q0 106 -97 106q-70 0 -113 -50.5t-54 -125.5l-40 -252h-75z" />
    <glyph glyph-name="i" unicode="i" horiz-adv-x="215" 
d="M118 482h75l-76 -482h-75zM132 602l14 87h89l-14 -87h-89z" />
    <glyph glyph-name="j" unicode="j" horiz-adv-x="215" 
d="M193 482l-86 -544q-16 -102 -57.5 -146t-118.5 -44q-46 0 -85 13l12 66q38 -12 73 -12q42 0 66 28t34 93l87 546h75zM132 602l14 87h89l-14 -87h-89z" />
    <glyph glyph-name="k" unicode="k" horiz-adv-x="456" 
d="M348 0l-144 235l-59 -51l-29 -184h-75l114 720h75l-70 -439l220 201h97l-219 -199q30 -47 88.5 -141.5t88.5 -141.5h-87z" />
    <glyph glyph-name="l" unicode="l" horiz-adv-x="214" 
d="M156 720h75l-115 -720h-75z" />
    <glyph glyph-name="m" unicode="m" horiz-adv-x="833" 
d="M41 0l77 482h74l-12 -66h1q24 37 63 58t83 21q50 0 87.5 -28.5t49.5 -74.5q26 44 71 73.5t103 29.5q70 0 112 -46t42 -116q0 -30 -4 -54l-44 -279h-75l44 280q4 24 4 43q0 48 -22.5 76.5t-69.5 28.5q-59 0 -100 -41.5t-53 -120.5l-42 -266h-76l44 276q4 24 4 47
q0 47 -23 76t-69 29q-61 0 -101.5 -45.5t-51.5 -116.5l-42 -266h-74z" />
    <glyph glyph-name="n" unicode="n" horiz-adv-x="537" 
d="M41 0l77 482h75l-9 -59h1q56 72 144 72q77 0 121.5 -45t44.5 -117q0 -24 -4 -54l-43 -279h-75l42 271q5 35 5 51q0 47 -26.5 76.5t-73.5 29.5q-65 0 -108.5 -48t-55.5 -128l-40 -252h-75z" />
    <glyph glyph-name="o" unicode="o" horiz-adv-x="580" 
d="M50 209q0 71 29.5 134.5t95 107.5t154.5 44q99 0 160.5 -65.5t61.5 -162.5q0 -114 -75.5 -199t-204.5 -85q-98 0 -159.5 64t-61.5 162zM320 428q-81 0 -137 -60.5t-56 -155.5q0 -74 41 -118t113 -44q84 0 138.5 62t54.5 154q0 72 -40 117t-114 45z" />
    <glyph glyph-name="p" unicode="p" horiz-adv-x="597" 
d="M5 -237l113 719h75l-10 -66h1q28 35 74 57t102 22q94 0 151 -60.5t57 -155.5q0 -125 -76.5 -210.5t-193.5 -85.5q-116 0 -168 83h-1l-49 -303h-75zM300 49q84 0 137.5 66.5t53.5 161.5q0 68 -38.5 110.5t-106.5 42.5q-86 0 -140.5 -70.5t-54.5 -162.5q0 -63 38.5 -105.5
t110.5 -42.5z" />
    <glyph glyph-name="q" unicode="q" horiz-adv-x="598" 
d="M577 482l-114 -719h-75l47 299h-1q-28 -35 -74 -57t-102 -22q-94 0 -151 59.5t-57 149.5q0 126 79.5 214.5t199.5 88.5q107 0 159 -83h1l13 70h75zM320 429q-78 0 -135.5 -65t-57.5 -163q0 -68 38.5 -110.5t106.5 -42.5q85 0 140 69.5t55 158.5q0 66 -38 109.5t-109 43.5
z" />
    <glyph glyph-name="r" unicode="r" horiz-adv-x="346" 
d="M358 492l-11 -69q-19 5 -44 5q-61 0 -98 -47t-50 -127l-40 -254h-74l77 482h74l-10 -57l2 -1q52 71 132 71q29 0 42 -3z" />
    <glyph glyph-name="s" unicode="s" horiz-adv-x="408" 
d="M391 372h-77q-16 60 -82 60q-35 0 -56.5 -18.5t-21.5 -45.5q0 -47 74 -79q70 -31 99 -68t29 -91q0 -63 -46.5 -105t-123.5 -42q-65 0 -112 35t-55 103h78q4 -33 29.5 -53.5t62.5 -20.5q42 0 67.5 22.5t25.5 57.5q0 32 -17.5 54.5t-68.5 44.5q-116 51 -116 139
q0 55 42.5 92.5t115.5 37.5q58 0 99 -31.5t54 -91.5z" />
    <glyph glyph-name="t" unicode="t" horiz-adv-x="308" 
d="M53 419l10 63h66l24 151h75l-24 -151h124l-10 -63h-124l-36 -226q-7 -40 -7 -72q0 -33 14.5 -48t50.5 -15q28 0 54 6l-12 -64q-26 -6 -58 -6q-123 0 -123 127q0 35 8 83l34 215h-66z" />
    <glyph glyph-name="u" unicode="u" horiz-adv-x="527" 
d="M505 482l-35 -222q-20 -126 -20 -185q0 -37 6 -75h-75q-5 33 -5 66h-3q-60 -83 -155 -83q-61 0 -107 42t-46 124q0 26 4 52l45 281h75l-44 -277q-4 -30 -4 -47q0 -49 23 -78.5t71 -29.5q65 0 104 50.5t50 122.5l41 259h75z" />
    <glyph glyph-name="v" unicode="v" horiz-adv-x="436" 
d="M472 482l-248 -482h-70l-97 482h74l57 -286q10 -49 16 -91h3q17 38 41 87l145 290h79z" />
    <glyph glyph-name="w" unicode="w" horiz-adv-x="659" 
d="M390 0l-26 267q-6 62 -6 130h-2q-27 -98 -40 -128l-110 -269h-94l-43 482h73l23 -294q6 -72 6 -117h2q15 54 36 106l121 305h79l29 -272q6 -52 6 -139h2q7 27 37 106l120 305h79l-199 -482h-93z" />
    <glyph glyph-name="x" unicode="x" horiz-adv-x="463" 
d="M-5 0l209 248q-21 38 -61.5 116.5t-61.5 117.5h81l55 -110q17 -32 32 -76q21 33 54 75l87 111h90l-197 -234q23 -41 66.5 -124t66.5 -124h-83l-67 133q-25 52 -29 63q-3 -5 -53 -70l-99 -126h-90z" />
    <glyph glyph-name="y" unicode="y" horiz-adv-x="444" 
d="M474 482l-369 -719h-78l125 243l-108 476h77l61 -283q14 -68 18 -103h2l190 386h82z" />
    <glyph glyph-name="z" unicode="z" horiz-adv-x="488" 
d="M101 419l10 63h362l-9 -60l-332 -358h289l-10 -64h-386l9 61l333 358h-266z" />
    <glyph glyph-name="braceleft" unicode="{" horiz-adv-x="366" 
d="M371 741l-9 -60q-63 0 -76 -81l-33 -208q-8 -57 -29.5 -87t-64.5 -42v-2q56 -24 56 -89q0 -17 -5 -52l-32 -195q-3 -21 -3 -26q0 -54 54 -54l-10 -60q-55 0 -85.5 29t-30.5 81q0 15 5 48l34 209q1 7 1 20q-2 28 -19.5 46.5t-48.5 18.5l8 51q38 0 62.5 24.5t30.5 59.5
l38 229q12 74 51.5 107t105.5 33z" />
    <glyph glyph-name="bar" unicode="|" horiz-adv-x="380" 
d="M253 -210h-72v1000h72v-1000z" />
    <glyph glyph-name="braceright" unicode="}" horiz-adv-x="366" 
d="M15 -215l9 60q63 0 76 81l33 208q8 57 29.5 87t64.5 42v2q-56 24 -56 89q0 17 5 52l32 195q3 21 3 26q0 54 -54 54l10 60q55 0 85.5 -29t30.5 -81q0 -15 -5 -48l-34 -209q-1 -7 -1 -20q2 -28 19.5 -46.5t48.5 -18.5l-8 -51q-38 0 -62.5 -24.5t-30.5 -59.5l-38 -229
q-12 -74 -51.5 -107t-105.5 -33z" />
    <glyph glyph-name="asciitilde" unicode="~" horiz-adv-x="672" 
d="M624 293q-33 -53 -71 -78t-91 -25q-59 0 -125 37q-69 39 -107 39q-34 0 -59 -17.5t-51 -55.5l-52 37q64 104 160 104q56 0 125 -38q68 -39 109 -39q64 0 109 73z" />
    <glyph glyph-name="uni00A0" unicode="&#xa0;" horiz-adv-x="240" 
 />
    <glyph glyph-name="exclamdown" unicode="&#xa1;" horiz-adv-x="221" 
d="M230 682l-13 -88h-85l13 88h85zM122 0h-85l87 493h69z" />
    <glyph glyph-name="cent" unicode="&#xa2;" horiz-adv-x="550" 
d="M226 0l14 95q-82 14 -129 73.5t-47 142.5q0 112 69.5 196.5t185.5 94.5l13 80h61l-13 -80q72 -9 116 -53.5t50 -103.5h-77q-6 33 -32 58t-68 31l-58 -374q47 4 82.5 27.5t52.5 60.5h79q-58 -147 -224 -156l-14 -92h-61zM142 315q0 -58 29 -98.5t80 -53.5l56 371
q-75 -13 -120 -76.5t-45 -142.5z" />
    <glyph glyph-name="sterling" unicode="&#xa3;" horiz-adv-x="550" 
d="M359 639q-74 0 -109 -50t-35 -130q0 -28 4 -74h202l-10 -61h-185q4 -56 4 -60q0 -105 -78 -168q47 0 106 -24q66 -27 99 -27q69 0 88 110h76q-18 -92 -59 -134t-109 -42q-54 0 -126 31q-64 29 -107 29q-53 0 -111 -42l12 73q75 39 104 80t29 112q0 17 -6 62h-92l10 61h75
q-6 40 -6 73q0 106 57.5 176.5t169.5 70.5q87 0 132.5 -45t46.5 -117q0 -21 -2 -31h-78q2 16 2 27q0 44 -27 72t-77 28z" />
    <glyph glyph-name="currency" unicode="&#xa4;" horiz-adv-x="621" 
d="M553 174l-42 -42q-44 44 -67 66q-50 -39 -117 -39q-66 0 -116 39q-12 -11 -34.5 -33t-33.5 -33q-7 7 -20.5 21t-20.5 21q66 63 68 65q-39 56 -39 115q0 67 39 115q-13 13 -38 37t-30 29q7 7 20.5 21t20.5 21q11 -11 33.5 -33t34.5 -33q52 38 116 38q67 0 117 -38
q11 11 33.5 33t33.5 33l21 -21l21 -21q-57 -55 -68 -66q38 -51 38 -115q0 -63 -38 -115q34 -34 68 -65zM467 355q0 59 -42.5 98.5t-96.5 39.5q-59 0 -99.5 -41t-40.5 -97q0 -57 41 -98.5t98 -41.5q58 0 99 41.5t41 98.5z" />
    <glyph glyph-name="yen" unicode="&#xa5;" horiz-adv-x="550" 
d="M88 339h151l-126 343h80l88 -252q19 -56 26 -84q41 70 50 83l167 253h86l-234 -343h154l-10 -58h-182l-15 -94h182l-10 -58h-181l-20 -129h-79l20 129h-182l10 58h181l15 94h-181z" />
    <glyph glyph-name="brokenbar" unicode="&#xa6;" horiz-adv-x="380" 
d="M253 390h-72v300h72v-300zM253 -110h-72v300h72v-300z" />
    <glyph glyph-name="section" unicode="&#xa7;" horiz-adv-x="431" 
d="M418 331q0 -48 -32.5 -83.5t-89.5 -51.5q45 -32 45 -98q0 -63 -43.5 -104t-114.5 -41q-73 0 -109.5 38.5t-37.5 102.5h70q0 -77 80 -77q37 0 59.5 21t22.5 53t-19 52t-75 49q-100 54 -100 133q0 52 32 86.5t93 43.5q-25 18 -41.5 47.5t-16.5 61.5q0 67 43.5 103.5
t112.5 36.5q62 0 98 -35t37 -91h-71q0 32 -17.5 49t-49.5 17q-40 0 -60.5 -21.5t-20.5 -49.5q0 -33 20.5 -55t82.5 -53q102 -51 102 -134zM242 231q50 6 78 35t28 58q0 25 -15 44.5t-56 41.5q-13 7 -25 13q-108 -15 -108 -89q0 -49 70 -87q16 -9 28 -16z" />
    <glyph glyph-name="dieresis" unicode="&#xa8;" horiz-adv-x="316" 
d="M95 603l13 84h83l-13 -84h-83zM257 603l13 84h84l-13 -84h-84z" />
    <glyph glyph-name="copyright" unicode="&#xa9;" horiz-adv-x="826" 
d="M64 341q0 150 106.5 256.5t256.5 106.5q151 0 257 -106.5t106 -256.5t-106 -256.5t-257 -106.5q-150 0 -256.5 106.5t-106.5 256.5zM113 341q0 -130 92 -222t222 -92t222 92t92 222t-92 222t-222 92t-222 -92t-92 -222zM430 559q71 0 119 -41t62 -101h-66q-22 85 -117 85
q-59 0 -97.5 -42t-38.5 -113q0 -68 37 -112t100 -44q43 0 74.5 24t42.5 68h66q-16 -66 -64 -107.5t-118 -41.5q-92 0 -147 60t-55 154q0 87 56 149t146 62z" />
    <glyph glyph-name="ordfeminine" unicode="&#xaa;" horiz-adv-x="374" 
d="M258 704q55 0 89 -29t34 -82q0 -23 -8 -65l-13 -72q-6 -28 -6 -50q0 -19 15 -19q9 0 15 2l-8 -58q-8 -5 -29 -5q-25 0 -41.5 15t-16.5 42h-1q-42 -60 -114 -60q-53 0 -79 29t-26 66q0 63 63 104.5t179 41.5q3 22 3 29q0 53 -62 53q-65 0 -79 -57h-68q30 115 153 115z
M298 492l3 16q-74 0 -118.5 -21.5t-44.5 -60.5q0 -20 13.5 -32.5t33.5 -12.5q41 0 72.5 30.5t40.5 80.5z" />
    <glyph glyph-name="guillemotleft" unicode="&#xab;" horiz-adv-x="463" 
d="M69 259l150 194l43 -30l-118 -170l66 -184l-51 -19zM247 259l149 194l43 -30l-118 -170l67 -184l-52 -19z" />
    <glyph glyph-name="logicalnot" unicode="&#xac;" horiz-adv-x="672" 
d="M615 112h-72v192h-447v72h519v-264z" />
    <glyph glyph-name="uni00AD" unicode="&#xad;" horiz-adv-x="453" 
d="M399 232h-309l11 65h309z" />
    <glyph glyph-name="registered" unicode="&#xae;" horiz-adv-x="483" 
d="M85 498q0 85 60.5 145.5t145.5 60.5t145 -60.5t60 -145.5t-60 -145t-145 -60t-145.5 60t-60.5 145zM124 498q0 -69 49 -117.5t118 -48.5t117.5 48.5t48.5 117.5q0 68 -48.5 117t-117.5 49q-68 0 -117.5 -49t-49.5 -117zM332 478l66 -90h-54l-61 85h-26v-85h-47v226h88
q43 0 65 -20.5t22 -49.5q0 -25 -15 -43t-38 -23zM335 542q0 35 -43 35h-35v-69h34q44 0 44 34z" />
    <glyph glyph-name="macron" unicode="&#xaf;" horiz-adv-x="328" 
d="M361 608h-288l9 56h288z" />
    <glyph glyph-name="degree" unicode="&#xb0;" horiz-adv-x="424" 
d="M387 571q0 -53 -38 -91.5t-90 -38.5q-54 0 -92.5 38.5t-38.5 91.5t38 90.5t91 37.5q54 0 92 -37.5t38 -90.5zM337 571q0 34 -22.5 57.5t-55.5 23.5q-34 0 -58 -23.5t-24 -57.5q0 -35 23.5 -59t56.5 -24t56.5 24t23.5 59z" />
    <glyph glyph-name="plusminus" unicode="&#xb1;" horiz-adv-x="672" 
d="M617 0h-515v72h515v-72zM617 329h-222v-188h-72v188h-221v72h221v190h72v-190h222v-72z" />
    <glyph glyph-name="twosuperior" unicode="&#xb2;" 
d="M95 425l7 45l147 140q56 53 79 82t23 58q0 27 -17 43t-49 16q-30 0 -52.5 -18.5t-27.5 -50.5h-69q8 59 50 95.5t104 36.5q61 0 97 -32t36 -83q0 -45 -28 -84t-95 -100l-92 -84h187l-11 -64h-289z" />
    <glyph glyph-name="threesuperior" unicode="&#xb3;" 
d="M208 756h-67q10 54 48 85t102 31q56 0 89 -27.5t33 -72.5q0 -42 -24 -70.5t-66 -41.5v-1q35 -10 55 -36.5t20 -63.5q0 -69 -44 -108t-116 -39q-64 0 -102.5 32.5t-40.5 87.5q0 7 1 10h68v-4q8 -66 76 -66q39 0 63.5 24t24.5 61q0 72 -93 72h-22l9 59h20q100 0 100 73
q0 23 -15 37t-43 14q-63 0 -76 -56z" />
    <glyph glyph-name="acute" unicode="&#xb4;" horiz-adv-x="316" 
d="M134 599l151 150l48 -54l-161 -137z" />
    <glyph glyph-name="mu" unicode="&#xb5;" horiz-adv-x="559" 
d="M388 73h-2q-59 -89 -159 -89q-79 0 -109 67l-3 -1q0 -47 -11 -122l-21 -141h-75l109 693h75l-43 -268q-4 -24 -4 -52q0 -109 97 -109q62 0 103.5 48t55.5 133l40 248h75l-50 -314q-8 -43 -8 -70q0 -36 30 -36q8 0 18 2l-10 -65q-9 -3 -28 -3q-77 0 -80 79z" />
    <glyph glyph-name="paragraph" unicode="&#xb6;" horiz-adv-x="521" 
d="M528 619h-61l-100 -619h-58l100 619h-84l-105 -619h-59l65 368q-66 1 -106 41t-40 110q0 73 49.5 118t149.5 45h259z" />
    <glyph glyph-name="periodcentered" unicode="&#xb7;" horiz-adv-x="236" 
d="M82 301l16 109h104l-17 -109h-103z" />
    <glyph glyph-name="cedilla" unicode="&#xb8;" horiz-adv-x="316" 
d="M106 0h49l-22 -39q35 -7 54.5 -27.5t19.5 -50.5q0 -49 -35 -80.5t-93 -31.5q-48 0 -88 15l25 48q24 -11 63 -11q30 0 48 15t18 39q0 22 -20.5 36t-60.5 14z" />
    <glyph glyph-name="onesuperior" unicode="&#xb9;" 
d="M197 425l62 371h-74l9 62h144l-71 -433h-70z" />
    <glyph glyph-name="ordmasculine" unicode="&#xba;" horiz-adv-x="426" 
d="M70 504q0 82 56 141t146 59q89 0 135.5 -50.5t46.5 -124.5q0 -90 -57 -147.5t-145 -57.5q-75 0 -128.5 48t-53.5 132zM271 637q-55 0 -90.5 -38.5t-35.5 -95.5q0 -51 31.5 -81.5t78.5 -30.5q59 0 91.5 42t32.5 91q0 51 -28.5 82t-79.5 31z" />
    <glyph glyph-name="guillemotright" unicode="&#xbb;" horiz-adv-x="463" 
d="M404 243l-149 -193l-43 29l118 171l-67 184l52 19zM227 243l-150 -193l-43 29l119 171l-67 184l51 19z" />
    <glyph glyph-name="onequarter" unicode="&#xbc;" horiz-adv-x="887" 
d="M173 250l62 370h-74l9 62h144l-71 -432h-70zM675 682h78l-480 -682h-77zM847 85h-57l-14 -85h-69l13 85h-201l8 49l258 299h63l-48 -287h57zM732 146l29 184l-158 -184h129z" />
    <glyph glyph-name="onehalf" unicode="&#xbd;" horiz-adv-x="937" 
d="M173 250l62 370h-74l9 62h144l-71 -432h-70zM675 682h78l-480 -682h-77zM580 0l7 45l147 140q56 53 79 82t23 58q0 27 -17 43t-49 16q-30 0 -52.5 -18.5t-27.5 -50.5h-69q8 59 50 95.5t104 36.5q61 0 97 -32t36 -83q0 -45 -28 -84t-95 -100l-92 -84h187l-11 -64h-289z
" />
    <glyph glyph-name="threequarters" unicode="&#xbe;" horiz-adv-x="917" 
d="M185 579h-67q10 54 48 85t102 31q56 0 89 -27.5t33 -72.5q0 -42 -24 -70.5t-66 -41.5v-1q35 -10 55 -36t20 -63q0 -69 -44 -108t-116 -39q-64 0 -102.5 32.5t-40.5 87.5q0 7 1 10h68v-4q8 -66 76 -66q39 0 63.5 24t24.5 61q0 71 -93 71h-22l9 59h20q100 0 100 73
q0 23 -15 37t-43 14q-63 0 -76 -56zM705 682h78l-480 -682h-77zM877 85h-57l-14 -85h-69l13 85h-201l8 49l258 299h63l-48 -287h57zM762 146l29 184l-158 -184h129z" />
    <glyph glyph-name="questiondown" unicode="&#xbf;" horiz-adv-x="419" 
d="M159 357q64 58 76 136h73q-9 -56 -26.5 -93t-56.5 -76q-4 -4 -30.5 -29t-35 -35.5t-25 -32.5t-23 -43t-6.5 -44q0 -40 25.5 -66t71.5 -26q51 0 85.5 33.5t43.5 90.5h80q-14 -88 -70.5 -141t-143.5 -53q-78 0 -126.5 41t-48.5 112q0 65 34.5 114.5t102.5 111.5zM343 682
l-13 -88h-85l13 88h85z" />
    <glyph glyph-name="Agrave" unicode="&#xc0;" horiz-adv-x="611" 
d="M-19 0l376 682h69l151 -682h-81l-37 185h-292l-98 -185h-88zM445 255l-47 235q-1 5 -18 104h-2q-8 -17 -26 -52t-27 -52l-122 -235h242zM297 817l28 62l160 -92l-23 -50z" />
    <glyph glyph-name="Aacute" unicode="&#xc1;" horiz-adv-x="611" 
d="M-19 0l376 682h69l151 -682h-81l-37 185h-292l-98 -185h-88zM445 255l-47 235q-1 5 -18 104h-2q-8 -17 -26 -52t-27 -52l-122 -235h242zM511 883l26 -60l-201 -86l-20 49z" />
    <glyph glyph-name="Acircumflex" unicode="&#xc2;" horiz-adv-x="611" 
d="M-19 0l376 682h69l151 -682h-81l-37 185h-292l-98 -185h-88zM445 255l-47 235q-1 5 -18 104h-2q-8 -17 -26 -52t-27 -52l-122 -235h242zM419 879l140 -100l-28 -44l-120 69l-144 -69l-21 46z" />
    <glyph glyph-name="Atilde" unicode="&#xc3;" horiz-adv-x="611" 
d="M-19 0l376 682h69l151 -682h-81l-37 185h-292l-98 -185h-88zM445 255l-47 235q-1 5 -18 104h-2q-8 -17 -26 -52t-27 -52l-122 -235h242zM304 771h-59q9 56 37.5 84.5t68.5 28.5q38 0 74 -33q34 -31 52 -31q37 0 46 57h59q-17 -113 -109 -113q-40 0 -74 33q-31 31 -51 31
q-33 0 -44 -57z" />
    <glyph glyph-name="Adieresis" unicode="&#xc4;" horiz-adv-x="611" 
d="M-19 0l376 682h69l151 -682h-81l-37 185h-292l-98 -185h-88zM445 255l-47 235q-1 5 -18 104h-2q-8 -17 -26 -52t-27 -52l-122 -235h242zM275 780l13 81h79l-13 -81h-79zM456 780l13 81h79l-13 -81h-79z" />
    <glyph glyph-name="Aring" unicode="&#xc5;" horiz-adv-x="611" 
d="M-19 0l376 682h69l151 -682h-81l-37 185h-292l-98 -185h-88zM445 255l-47 235q-1 5 -18 104h-2q-8 -17 -26 -52t-27 -52l-122 -235h242zM344 819q0 -28 19.5 -47.5t46.5 -19.5q29 0 48 19.5t19 47.5q0 29 -19 47.5t-48 18.5q-27 0 -46.5 -19t-19.5 -47zM298 819
q0 46 33 79t79 33q47 0 80 -32.5t33 -79.5t-33 -80t-80 -33q-46 0 -79 33.5t-33 79.5z" />
    <glyph glyph-name="AE" unicode="&#xc6;" horiz-adv-x="886" 
d="M494 610l-264 -355h228l56 355h-20zM418 0l28 185h-265l-139 -185h-89l512 682h420l-12 -72h-284l-35 -221h275l-11 -72h-275l-38 -245h294l-11 -72h-370z" />
    <glyph glyph-name="Ccedilla" unicode="&#xc7;" horiz-adv-x="734" 
d="M451 704q109 0 185.5 -51.5t97.5 -142.5h-88q-16 58 -69.5 91t-128.5 33q-98 0 -168.5 -47.5t-102.5 -121t-32 -162.5q0 -112 67.5 -183.5t171.5 -71.5q81 0 137 38.5t84 98.5h88q-37 -94 -119.5 -149.5t-187.5 -57.5l-9 -17q35 -7 54.5 -27.5t19.5 -50.5
q0 -49 -35 -80.5t-93 -31.5q-48 0 -88 15l25 48q24 -11 63 -11q30 0 48 15t18 39q0 22 -20.5 36t-60.5 14l31 54q-128 14 -202 103.5t-74 215.5q0 111 46.5 202.5t136 146.5t205.5 55z" />
    <glyph glyph-name="Egrave" unicode="&#xc8;" horiz-adv-x="502" 
d="M512 682l-12 -72h-281l-35 -221h271l-11 -72h-271l-39 -245h292l-12 -72h-370l109 682h359zM237 817l28 62l160 -92l-23 -50z" />
    <glyph glyph-name="Eacute" unicode="&#xc9;" horiz-adv-x="502" 
d="M512 682l-12 -72h-281l-35 -221h271l-11 -72h-271l-39 -245h292l-12 -72h-370l109 682h359zM452 883l26 -60l-201 -86l-20 49z" />
    <glyph glyph-name="Ecircumflex" unicode="&#xca;" horiz-adv-x="502" 
d="M512 682l-12 -72h-281l-35 -221h271l-11 -72h-271l-39 -245h292l-12 -72h-370l109 682h359zM360 879l140 -100l-28 -44l-120 69l-144 -69l-21 46z" />
    <glyph glyph-name="Edieresis" unicode="&#xcb;" horiz-adv-x="502" 
d="M512 682l-12 -72h-281l-35 -221h271l-11 -72h-271l-39 -245h292l-12 -72h-370l109 682h359zM216 780l13 81h79l-13 -81h-79zM397 780l13 81h79l-13 -81h-79z" />
    <glyph glyph-name="Igrave" unicode="&#xcc;" horiz-adv-x="222" 
d="M44 0l109 682h79l-109 -682h-79zM92 817l28 62l160 -92l-23 -50z" />
    <glyph glyph-name="Iacute" unicode="&#xcd;" horiz-adv-x="222" 
d="M44 0l109 682h79l-109 -682h-79zM306 883l26 -60l-201 -86l-20 49z" />
    <glyph glyph-name="Icircumflex" unicode="&#xce;" horiz-adv-x="222" 
d="M44 0l109 682h79l-109 -682h-79zM215 879l140 -100l-28 -44l-120 69l-144 -69l-21 46z" />
    <glyph glyph-name="Idieresis" unicode="&#xcf;" horiz-adv-x="222" 
d="M44 0l109 682h79l-109 -682h-79zM70 780l13 81h79l-13 -81h-79zM251 780l13 81h79l-13 -81h-79z" />
    <glyph glyph-name="Eth" unicode="&#xd0;" horiz-adv-x="705" 
d="M180 682h203q140 0 230 -72t90 -207q0 -176 -115.5 -289.5t-295.5 -113.5h-221l51 321h-84l10 63h84zM162 72h137q142 0 231.5 92t89.5 232q0 99 -60.5 156.5t-180.5 57.5h-132l-36 -226h191l-10 -63h-191z" />
    <glyph glyph-name="Ntilde" unicode="&#xd1;" horiz-adv-x="644" 
d="M117 0h-74l109 682h75l161 -338q63 -131 103 -226h2q2 12 10.5 74t13.5 96l63 394h74l-109 -682h-74l-160 339q-81 168 -103 228h-3q-18 -128 -26 -178zM301 771h-59q9 56 37.5 84.5t68.5 28.5q38 0 74 -33q34 -31 52 -31q37 0 46 57h59q-17 -113 -109 -113q-40 0 -74 33
q-31 31 -51 31q-33 0 -44 -57z" />
    <glyph glyph-name="Ograve" unicode="&#xd2;" horiz-adv-x="767" 
d="M395 50q137 0 212.5 97t75.5 229q0 107 -67.5 181.5t-175.5 74.5q-74 0 -132 -28t-93.5 -75t-53.5 -104t-18 -119q0 -108 69 -182t183 -74zM397 -22q-153 0 -244.5 95t-91.5 233q0 75 24 144.5t69 127t119.5 92t166.5 34.5q145 0 235 -95t90 -233q0 -74 -23.5 -144
t-68 -127.5t-116.5 -92t-160 -34.5zM363 817l28 62l160 -92l-23 -50z" />
    <glyph glyph-name="Oacute" unicode="&#xd3;" horiz-adv-x="767" 
d="M395 50q137 0 212.5 97t75.5 229q0 107 -67.5 181.5t-175.5 74.5q-74 0 -132 -28t-93.5 -75t-53.5 -104t-18 -119q0 -108 69 -182t183 -74zM397 -22q-153 0 -244.5 95t-91.5 233q0 75 24 144.5t69 127t119.5 92t166.5 34.5q145 0 235 -95t90 -233q0 -74 -23.5 -144
t-68 -127.5t-116.5 -92t-160 -34.5zM577 883l26 -60l-201 -86l-20 49z" />
    <glyph glyph-name="Ocircumflex" unicode="&#xd4;" horiz-adv-x="767" 
d="M395 50q137 0 212.5 97t75.5 229q0 107 -67.5 181.5t-175.5 74.5q-74 0 -132 -28t-93.5 -75t-53.5 -104t-18 -119q0 -108 69 -182t183 -74zM397 -22q-153 0 -244.5 95t-91.5 233q0 75 24 144.5t69 127t119.5 92t166.5 34.5q145 0 235 -95t90 -233q0 -74 -23.5 -144
t-68 -127.5t-116.5 -92t-160 -34.5zM475 879l140 -100l-28 -44l-120 69l-144 -69l-21 46z" />
    <glyph glyph-name="Otilde" unicode="&#xd5;" horiz-adv-x="767" 
d="M395 50q137 0 212.5 97t75.5 229q0 107 -67.5 181.5t-175.5 74.5q-74 0 -132 -28t-93.5 -75t-53.5 -104t-18 -119q0 -108 69 -182t183 -74zM397 -22q-153 0 -244.5 95t-91.5 233q0 75 24 144.5t69 127t119.5 92t166.5 34.5q145 0 235 -95t90 -233q0 -74 -23.5 -144
t-68 -127.5t-116.5 -92t-160 -34.5zM370 771h-59q9 56 37.5 84.5t68.5 28.5q38 0 74 -33q34 -31 52 -31q37 0 46 57h59q-17 -113 -109 -113q-40 0 -74 33q-31 31 -51 31q-33 0 -44 -57z" />
    <glyph glyph-name="Odieresis" unicode="&#xd6;" horiz-adv-x="767" 
d="M395 50q137 0 212.5 97t75.5 229q0 107 -67.5 181.5t-175.5 74.5q-74 0 -132 -28t-93.5 -75t-53.5 -104t-18 -119q0 -108 69 -182t183 -74zM397 -22q-153 0 -244.5 95t-91.5 233q0 75 24 144.5t69 127t119.5 92t166.5 34.5q145 0 235 -95t90 -233q0 -74 -23.5 -144
t-68 -127.5t-116.5 -92t-160 -34.5zM341 780l13 81h79l-13 -81h-79zM522 780l13 81h79l-13 -81h-79z" />
    <glyph glyph-name="multiply" unicode="&#xd7;" horiz-adv-x="672" 
d="M614 53l-51 -51l-197 198l-199 -197l-51 51l199 197l-198 198l51 51l198 -198l197 197l51 -51l-197 -197z" />
    <glyph glyph-name="Oslash" unicode="&#xd8;" horiz-adv-x="767" 
d="M40 -4l93 98q-72 87 -72 212q0 75 24 144.5t69 127t119.5 92t166.5 34.5q121 0 208 -71l82 86l44 -42l-83 -87q74 -89 74 -214q0 -74 -23.5 -144t-68 -127.5t-116.5 -92t-160 -34.5q-132 0 -221 73l-91 -96zM395 50q137 0 212.5 97t75.5 229q0 87 -47 156l-406 -425
q66 -57 165 -57zM143 306q0 -88 46 -154l406 425q-66 55 -155 55q-74 0 -132 -28t-93.5 -75t-53.5 -104t-18 -119z" />
    <glyph glyph-name="Ugrave" unicode="&#xd9;" horiz-adv-x="599" 
d="M269 -22q-96 0 -147 57t-51 161q0 39 6 76l65 410h79l-66 -422q-5 -30 -5 -64q0 -146 128 -146q83 0 131.5 52.5t65.5 161.5l66 418h79l-64 -408q-24 -152 -91 -224t-196 -72zM285 817l28 62l160 -92l-23 -50z" />
    <glyph glyph-name="Uacute" unicode="&#xda;" horiz-adv-x="599" 
d="M269 -22q-96 0 -147 57t-51 161q0 39 6 76l65 410h79l-66 -422q-5 -30 -5 -64q0 -146 128 -146q83 0 131.5 52.5t65.5 161.5l66 418h79l-64 -408q-24 -152 -91 -224t-196 -72zM500 883l26 -60l-201 -86l-20 49z" />
    <glyph glyph-name="Ucircumflex" unicode="&#xdb;" horiz-adv-x="599" 
d="M269 -22q-96 0 -147 57t-51 161q0 39 6 76l65 410h79l-66 -422q-5 -30 -5 -64q0 -146 128 -146q83 0 131.5 52.5t65.5 161.5l66 418h79l-64 -408q-24 -152 -91 -224t-196 -72zM408 879l140 -100l-28 -44l-120 69l-144 -69l-21 46z" />
    <glyph glyph-name="Udieresis" unicode="&#xdc;" horiz-adv-x="599" 
d="M269 -22q-96 0 -147 57t-51 161q0 39 6 76l65 410h79l-66 -422q-5 -30 -5 -64q0 -146 128 -146q83 0 131.5 52.5t65.5 161.5l66 418h79l-64 -408q-24 -152 -91 -224t-196 -72zM264 780l13 81h79l-13 -81h-79zM445 780l13 81h79l-13 -81h-79z" />
    <glyph glyph-name="Yacute" unicode="&#xdd;" horiz-adv-x="511" 
d="M183 0l45 279l-141 403h79l86 -250q19 -57 25 -81q10 20 46 76l164 255h86l-267 -402l-45 -280h-78zM454 883l26 -60l-201 -86l-20 49z" />
    <glyph glyph-name="Thorn" unicode="&#xde;" horiz-adv-x="527" 
d="M151 222h101q82 0 130 41t48 119q0 49 -35.5 77.5t-105.5 28.5h-97zM202 554h93q99 0 158 -44t59 -123q0 -111 -72 -171t-199 -60h-101l-24 -156h-79l107 682h79z" />
    <glyph glyph-name="germandbls" unicode="&#xdf;" horiz-adv-x="567" 
d="M-110 -165q23 -7 48 -7q44 0 72.5 36t43.5 135l80 528q29 198 210 198q78 0 122.5 -38t44.5 -107q0 -84 -79 -131q-51 -31 -68 -51t-17 -41q0 -34 63 -63q65 -30 90 -69t25 -95q0 -62 -45.5 -104.5t-117.5 -42.5q-141 0 -153 138h78q9 -74 76 -74q39 0 63.5 24t24.5 61
q0 32 -15.5 55.5t-59.5 42.5q-103 47 -103 117q0 45 24.5 78.5t87.5 71.5q29 18 41 36t12 46q0 39 -25 60.5t-74 21.5q-109 0 -129 -133l-82 -528q-20 -128 -65 -182t-125 -54q-33 0 -58 9z" />
    <glyph glyph-name="agrave" unicode="&#xe0;" horiz-adv-x="598" 
d="M576 482l-35 -222q-20 -126 -20 -185q0 -37 6 -75h-75q-6 38 -6 65h-4q-62 -82 -178 -82q-93 0 -153.5 59t-60.5 163q0 122 76 206t193 84q51 0 96.5 -23.5t71.5 -63.5h1l13 74h75zM323 430q-85 0 -140 -64t-55 -164q0 -69 39.5 -111t105.5 -42q94 0 146.5 67.5
t52.5 158.5q0 70 -40.5 112.5t-108.5 42.5zM249 695l61 46l103 -150l-45 -33z" />
    <glyph glyph-name="aacute" unicode="&#xe1;" horiz-adv-x="598" 
d="M576 482l-35 -222q-20 -126 -20 -185q0 -37 6 -75h-75q-6 38 -6 65h-4q-62 -82 -178 -82q-93 0 -153.5 59t-60.5 163q0 122 76 206t193 84q51 0 96.5 -23.5t71.5 -63.5h1l13 74h75zM323 430q-85 0 -140 -64t-55 -164q0 -69 39.5 -111t105.5 -42q94 0 146.5 67.5
t52.5 158.5q0 70 -40.5 112.5t-108.5 42.5zM262 599l151 150l48 -54l-161 -137z" />
    <glyph glyph-name="acircumflex" unicode="&#xe2;" horiz-adv-x="598" 
d="M576 482l-35 -222q-20 -126 -20 -185q0 -37 6 -75h-75q-6 38 -6 65h-4q-62 -82 -178 -82q-93 0 -153.5 59t-60.5 163q0 122 76 206t193 84q51 0 96.5 -23.5t71.5 -63.5h1l13 74h75zM323 430q-85 0 -140 -64t-55 -164q0 -69 39.5 -111t105.5 -42q94 0 146.5 67.5
t52.5 158.5q0 70 -40.5 112.5t-108.5 42.5zM360 718l123 -115l-39 -44l-92 75l-119 -75l-32 49z" />
    <glyph glyph-name="atilde" unicode="&#xe3;" horiz-adv-x="598" 
d="M576 482l-35 -222q-20 -126 -20 -185q0 -37 6 -75h-75q-6 38 -6 65h-4q-62 -82 -178 -82q-93 0 -153.5 59t-60.5 163q0 122 76 206t193 84q51 0 96.5 -23.5t71.5 -63.5h1l13 74h75zM323 430q-85 0 -140 -64t-55 -164q0 -69 39.5 -111t105.5 -42q94 0 146.5 67.5
t52.5 158.5q0 70 -40.5 112.5t-108.5 42.5zM242 596h-59q9 56 37.5 84.5t68.5 28.5q38 0 74 -33q34 -31 52 -31q37 0 46 57h59q-17 -113 -109 -113q-40 0 -74 33q-31 31 -51 31q-33 0 -44 -57z" />
    <glyph glyph-name="adieresis" unicode="&#xe4;" horiz-adv-x="598" 
d="M576 482l-35 -222q-20 -126 -20 -185q0 -37 6 -75h-75q-6 38 -6 65h-4q-62 -82 -178 -82q-93 0 -153.5 59t-60.5 163q0 122 76 206t193 84q51 0 96.5 -23.5t71.5 -63.5h1l13 74h75zM323 430q-85 0 -140 -64t-55 -164q0 -69 39.5 -111t105.5 -42q94 0 146.5 67.5
t52.5 158.5q0 70 -40.5 112.5t-108.5 42.5zM223 603l13 84h83l-13 -84h-83zM385 603l13 84h84l-13 -84h-84z" />
    <glyph glyph-name="aring" unicode="&#xe5;" horiz-adv-x="598" 
d="M576 482l-35 -222q-20 -126 -20 -185q0 -37 6 -75h-75q-6 38 -6 65h-4q-62 -82 -178 -82q-93 0 -153.5 59t-60.5 163q0 122 76 206t193 84q51 0 96.5 -23.5t71.5 -63.5h1l13 74h75zM323 430q-85 0 -140 -64t-55 -164q0 -69 39.5 -111t105.5 -42q94 0 146.5 67.5
t52.5 158.5q0 70 -40.5 112.5t-108.5 42.5zM230 661q0 49 34.5 83.5t83.5 34.5t83.5 -34.5t34.5 -83.5t-34.5 -83.5t-83.5 -34.5t-83.5 34.5t-34.5 83.5zM283 661q0 -27 19 -46t46 -19t46 19t19 46t-19 46t-46 19t-46 -19t-19 -46z" />
    <glyph glyph-name="ae" unicode="&#xe6;" horiz-adv-x="844" 
d="M624 495q91 0 140.5 -56.5t50.5 -149.5q0 -38 -6 -70h-366q-1 -9 -1 -19q0 -69 33 -110.5t99 -41.5q89 0 124 60h85q-38 -66 -88 -96t-127 -30q-68 0 -113 34t-64 90q-72 -124 -214 -124q-78 0 -115 35.5t-37 86.5q0 177 270 177h84q8 49 8 64q0 38 -25 61.5t-77 23.5
q-113 0 -131 -74h-70q14 60 65.5 99.5t137.5 39.5q126 0 156 -93q63 93 181 93zM369 219h-79q-191 0 -191 -110q0 -64 89 -64q70 0 117.5 47.5t63.5 126.5zM619 430q-132 0 -166 -149h287v4q1 4 1 6q0 64 -30.5 101.5t-91.5 37.5z" />
    <glyph glyph-name="ccedilla" unicode="&#xe7;" horiz-adv-x="530" 
d="M324 495q77 0 131.5 -41t67.5 -110h-82q-7 39 -41.5 62t-76.5 23q-89 0 -142 -67.5t-53 -159.5q0 -66 38.5 -109.5t103.5 -43.5q94 0 140 80h83q-30 -62 -85 -102.5t-132 -43.5l-12 -22q35 -7 54.5 -27.5t19.5 -50.5q0 -49 -35 -80.5t-93 -31.5q-48 0 -88 15l25 48
q24 -11 63 -11q30 0 48 15t18 39q0 22 -20.5 36t-60.5 14l34 59q-81 12 -130 70.5t-49 152.5q0 115 78 200.5t196 85.5z" />
    <glyph glyph-name="egrave" unicode="&#xe8;" horiz-adv-x="545" 
d="M322 495q81 0 140 -52.5t59 -152.5q0 -40 -8 -71h-381q-2 -16 -2 -25q0 -62 37.5 -103.5t100.5 -41.5q100 0 135 59h85q-63 -125 -226 -125q-94 0 -150 60.5t-56 158.5q0 120 75 206.5t191 86.5zM318 430q-64 0 -111 -40.5t-64 -108.5h303q0 3 0.5 7t0.5 6q0 61 -34 98.5
t-95 37.5zM242 695l61 46l103 -150l-45 -33z" />
    <glyph glyph-name="eacute" unicode="&#xe9;" horiz-adv-x="545" 
d="M322 495q81 0 140 -52.5t59 -152.5q0 -40 -8 -71h-381q-2 -16 -2 -25q0 -62 37.5 -103.5t100.5 -41.5q100 0 135 59h85q-63 -125 -226 -125q-94 0 -150 60.5t-56 158.5q0 120 75 206.5t191 86.5zM318 430q-64 0 -111 -40.5t-64 -108.5h303q0 3 0.5 7t0.5 6q0 61 -34 98.5
t-95 37.5zM255 599l151 150l48 -54l-161 -137z" />
    <glyph glyph-name="ecircumflex" unicode="&#xea;" horiz-adv-x="545" 
d="M322 495q81 0 140 -52.5t59 -152.5q0 -40 -8 -71h-381q-2 -16 -2 -25q0 -62 37.5 -103.5t100.5 -41.5q100 0 135 59h85q-63 -125 -226 -125q-94 0 -150 60.5t-56 158.5q0 120 75 206.5t191 86.5zM318 430q-64 0 -111 -40.5t-64 -108.5h303q0 3 0.5 7t0.5 6q0 61 -34 98.5
t-95 37.5zM353 718l123 -115l-39 -44l-92 75l-119 -75l-32 49z" />
    <glyph glyph-name="edieresis" unicode="&#xeb;" horiz-adv-x="545" 
d="M322 495q81 0 140 -52.5t59 -152.5q0 -40 -8 -71h-381q-2 -16 -2 -25q0 -62 37.5 -103.5t100.5 -41.5q100 0 135 59h85q-63 -125 -226 -125q-94 0 -150 60.5t-56 158.5q0 120 75 206.5t191 86.5zM318 430q-64 0 -111 -40.5t-64 -108.5h303q0 3 0.5 7t0.5 6q0 61 -34 98.5
t-95 37.5zM216 603l13 84h83l-13 -84h-83zM378 603l13 84h84l-13 -84h-84z" />
    <glyph glyph-name="igrave" unicode="&#xec;" horiz-adv-x="215" 
d="M123 482h75l-76 -482h-75zM81 695l61 46l103 -150l-45 -33z" />
    <glyph glyph-name="iacute" unicode="&#xed;" horiz-adv-x="215" 
d="M123 482h75l-76 -482h-75zM94 599l151 150l48 -54l-161 -137z" />
    <glyph glyph-name="icircumflex" unicode="&#xee;" horiz-adv-x="215" 
d="M123 482h75l-76 -482h-75zM192 718l123 -115l-39 -44l-92 75l-119 -75l-32 49z" />
    <glyph glyph-name="idieresis" unicode="&#xef;" horiz-adv-x="215" 
d="M123 482h75l-76 -482h-75zM55 603l13 84h83l-13 -84h-83zM217 603l13 84h84l-13 -84h-84z" />
    <glyph glyph-name="eth" unicode="&#xf0;" horiz-adv-x="581" 
d="M452 450l2 2q-24 75 -94 146l-122 -76l-26 46l113 72q-35 36 -94 80h96q38 -30 58 -49l92 57l27 -46l-83 -51q131 -146 131 -341q0 -128 -78.5 -217.5t-202.5 -89.5q-98 0 -159.5 65t-61.5 163q0 114 75.5 199t202.5 85q34 0 69 -12.5t55 -32.5zM325 428q-86 0 -142 -63
t-56 -153q0 -73 41.5 -117.5t112.5 -44.5q78 0 135.5 66t57.5 162q0 66 -41 108t-108 42z" />
    <glyph glyph-name="ntilde" unicode="&#xf1;" horiz-adv-x="537" 
d="M27 0l77 482h75l-9 -59h1q56 72 144 72q77 0 121.5 -45t44.5 -117q0 -24 -4 -54l-43 -279h-75l42 271q5 35 5 51q0 47 -26.5 76.5t-73.5 29.5q-65 0 -108.5 -48t-55.5 -128l-40 -252h-75zM235 596h-59q9 56 37.5 84.5t68.5 28.5q38 0 74 -33q34 -31 52 -31q37 0 46 57h59
q-17 -113 -109 -113q-40 0 -74 33q-31 31 -51 31q-33 0 -44 -57z" />
    <glyph glyph-name="ograve" unicode="&#xf2;" horiz-adv-x="580" 
d="M55 209q0 71 29.5 134.5t95 107.5t154.5 44q99 0 160.5 -65.5t61.5 -162.5q0 -114 -75.5 -199t-204.5 -85q-98 0 -159.5 64t-61.5 162zM325 428q-81 0 -137 -60.5t-56 -155.5q0 -74 41 -118t113 -44q84 0 138.5 62t54.5 154q0 72 -40 117t-114 45zM241 695l61 46
l103 -150l-45 -33z" />
    <glyph glyph-name="oacute" unicode="&#xf3;" horiz-adv-x="580" 
d="M55 209q0 71 29.5 134.5t95 107.5t154.5 44q99 0 160.5 -65.5t61.5 -162.5q0 -114 -75.5 -199t-204.5 -85q-98 0 -159.5 64t-61.5 162zM325 428q-81 0 -137 -60.5t-56 -155.5q0 -74 41 -118t113 -44q84 0 138.5 62t54.5 154q0 72 -40 117t-114 45zM273 599l151 150
l48 -54l-161 -137z" />
    <glyph glyph-name="ocircumflex" unicode="&#xf4;" horiz-adv-x="580" 
d="M55 209q0 71 29.5 134.5t95 107.5t154.5 44q99 0 160.5 -65.5t61.5 -162.5q0 -114 -75.5 -199t-204.5 -85q-98 0 -159.5 64t-61.5 162zM325 428q-81 0 -137 -60.5t-56 -155.5q0 -74 41 -118t113 -44q84 0 138.5 62t54.5 154q0 72 -40 117t-114 45zM366 718l123 -115
l-39 -44l-92 75l-119 -75l-32 49z" />
    <glyph glyph-name="otilde" unicode="&#xf5;" horiz-adv-x="580" 
d="M55 209q0 71 29.5 134.5t95 107.5t154.5 44q99 0 160.5 -65.5t61.5 -162.5q0 -114 -75.5 -199t-204.5 -85q-98 0 -159.5 64t-61.5 162zM325 428q-81 0 -137 -60.5t-56 -155.5q0 -74 41 -118t113 -44q84 0 138.5 62t54.5 154q0 72 -40 117t-114 45zM250 596h-59
q9 56 37.5 84.5t68.5 28.5q38 0 74 -33q34 -31 52 -31q37 0 46 57h59q-17 -113 -109 -113q-40 0 -74 33q-31 31 -51 31q-33 0 -44 -57z" />
    <glyph glyph-name="odieresis" unicode="&#xf6;" horiz-adv-x="580" 
d="M55 209q0 71 29.5 134.5t95 107.5t154.5 44q99 0 160.5 -65.5t61.5 -162.5q0 -114 -75.5 -199t-204.5 -85q-98 0 -159.5 64t-61.5 162zM325 428q-81 0 -137 -60.5t-56 -155.5q0 -74 41 -118t113 -44q84 0 138.5 62t54.5 154q0 72 -40 117t-114 45zM223 603l13 84h83
l-13 -84h-83zM385 603l13 84h84l-13 -84h-84z" />
    <glyph glyph-name="divide" unicode="&#xf7;" horiz-adv-x="672" 
d="M613 228h-515v72h515v-72zM409 455q0 -23 -15.5 -38t-37.5 -15q-21 0 -37 16t-16 36q0 22 15.5 38t37.5 16q23 0 38 -15.5t15 -37.5zM409 75q0 -23 -15.5 -39t-37.5 -16q-21 0 -37 16.5t-16 37.5q0 22 15.5 37.5t37.5 15.5q24 0 38.5 -15t14.5 -37z" />
    <glyph glyph-name="oslash" unicode="&#xf8;" horiz-adv-x="580" 
d="M50 209q0 71 29.5 134.5t95 107.5t154.5 44q79 0 136 -43l64 69l39 -38l-65 -69q48 -62 48 -147q0 -114 -75.5 -199t-204.5 -85q-78 0 -136 42l-64 -68l-39 37l65 69q-47 61 -47 146zM474 266q0 53 -23 93l-266 -281q39 -28 96 -28q84 0 138.5 62t54.5 154zM320 428
q-81 0 -137 -60.5t-56 -155.5q0 -54 23 -94l264 282q-40 28 -94 28z" />
    <glyph glyph-name="ugrave" unicode="&#xf9;" horiz-adv-x="527" 
d="M505 482l-35 -222q-20 -126 -20 -185q0 -37 6 -75h-75q-5 33 -5 66h-3q-60 -83 -155 -83q-61 0 -107 42t-46 124q0 26 4 52l45 281h75l-44 -277q-4 -30 -4 -47q0 -49 23 -78.5t71 -29.5q65 0 104 50.5t50 122.5l41 259h75zM230 695l61 46l103 -150l-45 -33z" />
    <glyph glyph-name="uacute" unicode="&#xfa;" horiz-adv-x="527" 
d="M505 482l-35 -222q-20 -126 -20 -185q0 -37 6 -75h-75q-5 33 -5 66h-3q-60 -83 -155 -83q-61 0 -107 42t-46 124q0 26 4 52l45 281h75l-44 -277q-4 -30 -4 -47q0 -49 23 -78.5t71 -29.5q65 0 104 50.5t50 122.5l41 259h75zM243 599l151 150l48 -54l-161 -137z" />
    <glyph glyph-name="ucircumflex" unicode="&#xfb;" horiz-adv-x="527" 
d="M505 482l-35 -222q-20 -126 -20 -185q0 -37 6 -75h-75q-5 33 -5 66h-3q-60 -83 -155 -83q-61 0 -107 42t-46 124q0 26 4 52l45 281h75l-44 -277q-4 -30 -4 -47q0 -49 23 -78.5t71 -29.5q65 0 104 50.5t50 122.5l41 259h75zM341 718l123 -115l-39 -44l-92 75l-119 -75
l-32 49z" />
    <glyph glyph-name="udieresis" unicode="&#xfc;" horiz-adv-x="527" 
d="M505 482l-35 -222q-20 -126 -20 -185q0 -37 6 -75h-75q-5 33 -5 66h-3q-60 -83 -155 -83q-61 0 -107 42t-46 124q0 26 4 52l45 281h75l-44 -277q-4 -30 -4 -47q0 -49 23 -78.5t71 -29.5q65 0 104 50.5t50 122.5l41 259h75zM204 603l13 84h83l-13 -84h-83zM366 603l13 84
h84l-13 -84h-84z" />
    <glyph glyph-name="yacute" unicode="&#xfd;" horiz-adv-x="444" 
d="M479 482l-369 -719h-78l125 243l-108 476h77l61 -283q14 -68 18 -103h2l190 386h82zM192 599l151 150l48 -54l-161 -137z" />
    <glyph glyph-name="thorn" unicode="&#xfe;" horiz-adv-x="597" 
d="M5 -237l150 957h75l-47 -304h1q28 35 74 57t102 22q94 0 151 -60.5t57 -155.5q0 -125 -76.5 -210.5t-193.5 -85.5q-116 0 -168 83h-1l-49 -303h-75zM300 49q84 0 137.5 66.5t53.5 161.5q0 68 -38.5 110.5t-106.5 42.5q-86 0 -140.5 -70.5t-54.5 -162.5q0 -63 38.5 -105.5
t110.5 -42.5z" />
    <glyph glyph-name="ydieresis" unicode="&#xff;" horiz-adv-x="444" 
d="M479 482l-369 -719h-78l125 243l-108 476h77l61 -283q14 -68 18 -103h2l190 386h82zM153 603l13 84h83l-13 -84h-83zM315 603l13 84h84l-13 -84h-84z" />
    <glyph glyph-name="Amacron" unicode="&#x100;" horiz-adv-x="611" 
d="M-19 0l376 682h69l151 -682h-81l-37 185h-292l-98 -185h-88zM445 255l-47 235q-1 5 -18 104h-2q-8 -17 -26 -52t-27 -52l-122 -235h242zM543 786h-279l9 56h279z" />
    <glyph glyph-name="amacron" unicode="&#x101;" horiz-adv-x="598" 
d="M576 482l-35 -222q-20 -126 -20 -185q0 -37 6 -75h-75q-6 38 -6 65h-4q-62 -82 -178 -82q-93 0 -153.5 59t-60.5 163q0 122 76 206t193 84q51 0 96.5 -23.5t71.5 -63.5h1l13 74h75zM323 430q-85 0 -140 -64t-55 -164q0 -69 39.5 -111t105.5 -42q94 0 146.5 67.5
t52.5 158.5q0 70 -40.5 112.5t-108.5 42.5zM476 608h-288l9 56h288z" />
    <glyph glyph-name="Abreve" unicode="&#x102;" horiz-adv-x="611" 
d="M-19 0l376 682h69l151 -682h-81l-37 185h-292l-98 -185h-88zM445 255l-47 235q-1 5 -18 104h-2q-8 -17 -26 -52t-27 -52l-122 -235h242zM514 882h56q-15 -61 -59.5 -93t-109.5 -32q-66 0 -99 32.5t-33 92.5h55q0 -68 81 -68q39 0 69.5 18t39.5 50z" />
    <glyph glyph-name="abreve" unicode="&#x103;" horiz-adv-x="598" 
d="M576 482l-35 -222q-20 -126 -20 -185q0 -37 6 -75h-75q-6 38 -6 65h-4q-62 -82 -178 -82q-93 0 -153.5 59t-60.5 163q0 122 76 206t193 84q51 0 96.5 -23.5t71.5 -63.5h1l13 74h75zM323 430q-85 0 -140 -64t-55 -164q0 -69 39.5 -111t105.5 -42q94 0 146.5 67.5
t52.5 158.5q0 70 -40.5 112.5t-108.5 42.5zM442 717h60q-14 -64 -58.5 -103t-105.5 -39q-60 0 -95 36.5t-35 105.5h58q0 -38 20 -61t56 -23q37 0 65 25.5t35 58.5z" />
    <glyph glyph-name="Aogonek" unicode="&#x104;" horiz-adv-x="611" 
d="M561 -143l-10 -61q-30 -7 -51 -7q-43 0 -66.5 22.5t-23.5 59.5q0 34 23 68.5t67 60.5h-4l-37 185h-292l-98 -185h-88l376 682h69l151 -682q-35 -5 -66 -35t-31 -75q0 -37 38 -37q19 0 43 4zM445 255l-40 196q-13 62 -25 143h-2q-12 -23 -35.5 -68.5t-35.5 -68.5
l-104 -202h242z" />
    <glyph glyph-name="aogonek" unicode="&#x105;" horiz-adv-x="598" 
d="M525 -143l-10 -61q-30 -7 -51 -7q-43 0 -66.5 22.5t-23.5 59.5q0 33 21 67.5t57 61.5q-6 38 -6 65h-4q-62 -82 -178 -82q-93 0 -153.5 59t-60.5 163q0 122 76 206t193 84q51 0 96.5 -23.5t71.5 -63.5h1l13 74h75l-35 -222q-20 -126 -20 -185q0 -37 6 -75
q-83 -49 -83 -110q0 -37 38 -37q19 0 43 4zM323 430q-85 0 -140 -64t-55 -164q0 -69 39.5 -111t105.5 -42q94 0 146.5 67.5t52.5 158.5q0 70 -40.5 112.5t-108.5 42.5z" />
    <glyph glyph-name="Cacute" unicode="&#x106;" horiz-adv-x="734" 
d="M446 704q108 0 185 -51.5t98 -142.5h-88q-16 58 -69.5 91t-128.5 33q-98 0 -168.5 -47.5t-102.5 -121t-32 -162.5q0 -112 67.5 -183.5t171.5 -71.5q81 0 137 38.5t84 98.5h88q-37 -95 -120.5 -151t-189.5 -56q-147 0 -233.5 92.5t-86.5 229.5q0 111 46.5 202.5t136 146.5
t205.5 55zM580 883l26 -60l-201 -86l-20 49z" />
    <glyph glyph-name="cacute" unicode="&#x107;" horiz-adv-x="530" 
d="M324 495q80 0 133 -41t66 -110h-82q-7 37 -38 61t-80 24q-92 0 -143.5 -67t-51.5 -160q0 -66 38.5 -109.5t103.5 -43.5q94 0 140 80h83q-31 -64 -88.5 -105t-137.5 -41q-96 0 -156.5 60.5t-60.5 165.5q0 115 78 200.5t196 85.5zM241 599l151 150l48 -54l-161 -137z" />
    <glyph glyph-name="Ccircumflex" unicode="&#x108;" horiz-adv-x="734" 
d="M446 704q108 0 185 -51.5t98 -142.5h-88q-16 58 -69.5 91t-128.5 33q-98 0 -168.5 -47.5t-102.5 -121t-32 -162.5q0 -112 67.5 -183.5t171.5 -71.5q81 0 137 38.5t84 98.5h88q-37 -95 -120.5 -151t-189.5 -56q-147 0 -233.5 92.5t-86.5 229.5q0 111 46.5 202.5t136 146.5
t205.5 55zM464 879l140 -100l-28 -44l-120 69l-144 -69l-21 46z" />
    <glyph glyph-name="ccircumflex" unicode="&#x109;" horiz-adv-x="530" 
d="M324 495q80 0 133 -41t66 -110h-82q-7 37 -38 61t-80 24q-92 0 -143.5 -67t-51.5 -160q0 -66 38.5 -109.5t103.5 -43.5q94 0 140 80h83q-31 -64 -88.5 -105t-137.5 -41q-96 0 -156.5 60.5t-60.5 165.5q0 115 78 200.5t196 85.5zM359 718l123 -115l-39 -44l-92 75
l-119 -75l-32 49z" />
    <glyph glyph-name="Cdotaccent" unicode="&#x10a;" horiz-adv-x="734" 
d="M446 704q108 0 185 -51.5t98 -142.5h-88q-16 58 -69.5 91t-128.5 33q-98 0 -168.5 -47.5t-102.5 -121t-32 -162.5q0 -112 67.5 -183.5t171.5 -71.5q81 0 137 38.5t84 98.5h88q-37 -95 -120.5 -151t-189.5 -56q-147 0 -233.5 92.5t-86.5 229.5q0 111 46.5 202.5t136 146.5
t205.5 55zM404 784l13 80h81l-13 -80h-81z" />
    <glyph glyph-name="cdotaccent" unicode="&#x10b;" horiz-adv-x="530" 
d="M324 495q80 0 133 -41t66 -110h-82q-7 37 -38 61t-80 24q-92 0 -143.5 -67t-51.5 -160q0 -66 38.5 -109.5t103.5 -43.5q94 0 140 80h83q-31 -64 -88.5 -105t-137.5 -41q-96 0 -156.5 60.5t-60.5 165.5q0 115 78 200.5t196 85.5zM289 605l13 82h83l-13 -82h-83z" />
    <glyph glyph-name="Ccaron" unicode="&#x10c;" horiz-adv-x="734" 
d="M446 704q108 0 185 -51.5t98 -142.5h-88q-16 58 -69.5 91t-128.5 33q-98 0 -168.5 -47.5t-102.5 -121t-32 -162.5q0 -112 67.5 -183.5t171.5 -71.5q81 0 137 38.5t84 98.5h88q-37 -95 -120.5 -151t-189.5 -56q-147 0 -233.5 92.5t-86.5 229.5q0 111 46.5 202.5t136 146.5
t205.5 55zM455 735l-140 100l28 44l119 -69l145 69l21 -46z" />
    <glyph glyph-name="ccaron" unicode="&#x10d;" horiz-adv-x="530" 
d="M324 495q80 0 133 -41t66 -110h-82q-7 37 -38 61t-80 24q-92 0 -143.5 -67t-51.5 -160q0 -66 38.5 -109.5t103.5 -43.5q94 0 140 80h83q-31 -64 -88.5 -105t-137.5 -41q-96 0 -156.5 60.5t-60.5 165.5q0 115 78 200.5t196 85.5zM323 559l-123 115l39 44l92 -75l119 75
l32 -49z" />
    <glyph glyph-name="Dcaron" unicode="&#x10e;" horiz-adv-x="677" 
d="M152 682h203q140 0 230 -72t90 -207q0 -176 -115.5 -289.5t-295.5 -113.5h-221zM134 72h137q142 0 231.5 92t89.5 232q0 99 -60.5 156.5t-180.5 57.5h-132zM358 735l-140 100l28 44l119 -69l145 69l21 -46z" />
    <glyph glyph-name="dcaron" unicode="&#x10f;" horiz-adv-x="678" 
d="M615 720l-74 -460q-20 -126 -20 -185q0 -37 6 -75h-75q-6 38 -6 65h-4q-62 -82 -178 -82q-93 0 -153.5 59t-60.5 163q0 122 76 206t193 84q51 0 96.5 -23.5t71.5 -63.5h1l52 312h75zM323 430q-85 0 -140 -64t-55 -164q0 -69 39.5 -111t105.5 -42q94 0 146.5 67.5
t52.5 158.5q0 70 -40.5 112.5t-108.5 42.5zM669 643l12 77h85l-11 -61q-10 -55 -38 -85h-49q26 29 33 69h-32z" />
    <glyph glyph-name="Dcroat" unicode="&#x110;" horiz-adv-x="705" 
d="M180 682h203q140 0 230 -72t90 -207q0 -176 -115.5 -289.5t-295.5 -113.5h-221l51 321h-84l10 63h84zM162 72h137q142 0 231.5 92t89.5 232q0 99 -60.5 156.5t-180.5 57.5h-132l-36 -226h191l-10 -63h-191z" />
    <glyph glyph-name="dcroat" unicode="&#x111;" horiz-adv-x="598" 
d="M615 720l-14 -85h66l-9 -56h-66l-51 -319q-20 -126 -20 -185q0 -37 6 -75h-75q-6 38 -6 65h-4q-62 -82 -178 -82q-93 0 -153.5 59t-60.5 163q0 122 76 206t193 84q51 0 96.5 -23.5t71.5 -63.5h1l28 171h-186l9 56h187l14 85h75zM323 430q-85 0 -140 -64t-55 -164
q0 -69 39.5 -111t105.5 -42q94 0 146.5 67.5t52.5 158.5q0 70 -40.5 112.5t-108.5 42.5z" />
    <glyph glyph-name="Emacron" unicode="&#x112;" horiz-adv-x="502" 
d="M512 682l-12 -72h-281l-35 -221h271l-11 -72h-271l-39 -245h292l-12 -72h-370l109 682h359zM483 786h-279l9 56h279z" />
    <glyph glyph-name="emacron" unicode="&#x113;" horiz-adv-x="545" 
d="M317 495q81 0 140 -52.5t59 -152.5q0 -40 -8 -71h-381q-2 -16 -2 -25q0 -62 37.5 -103.5t100.5 -41.5q100 0 135 59h85q-63 -125 -226 -125q-94 0 -150 60.5t-56 158.5q0 120 75 206.5t191 86.5zM313 430q-64 0 -111 -40.5t-64 -108.5h303q0 3 0.5 7t0.5 6q0 61 -34 98.5
t-95 37.5zM471 608h-288l9 56h288z" />
    <glyph glyph-name="Ebreve" unicode="&#x114;" horiz-adv-x="502" 
d="M512 682l-12 -72h-281l-35 -221h271l-11 -72h-271l-39 -245h292l-12 -72h-370l109 682h359zM441 882h56q-15 -61 -59.5 -93t-109.5 -32q-66 0 -99 32.5t-33 92.5h55q0 -68 81 -68q39 0 69.5 18t39.5 50z" />
    <glyph glyph-name="ebreve" unicode="&#x115;" horiz-adv-x="545" 
d="M317 495q81 0 140 -52.5t59 -152.5q0 -40 -8 -71h-381q-2 -16 -2 -25q0 -62 37.5 -103.5t100.5 -41.5q100 0 135 59h85q-63 -125 -226 -125q-94 0 -150 60.5t-56 158.5q0 120 75 206.5t191 86.5zM313 430q-64 0 -111 -40.5t-64 -108.5h303q0 3 0.5 7t0.5 6q0 61 -34 98.5
t-95 37.5zM433 717h60q-14 -64 -58.5 -103t-105.5 -39q-60 0 -95 36.5t-35 105.5h58q0 -38 20 -61t56 -23q37 0 65 25.5t35 58.5z" />
    <glyph glyph-name="Edotaccent" unicode="&#x116;" horiz-adv-x="502" 
d="M512 682l-12 -72h-281l-35 -221h271l-11 -72h-271l-39 -245h292l-12 -72h-370l109 682h359zM294 784l13 80h81l-13 -80h-81z" />
    <glyph glyph-name="edotaccent" unicode="&#x117;" horiz-adv-x="545" 
d="M317 495q81 0 140 -52.5t59 -152.5q0 -40 -8 -71h-381q-2 -16 -2 -25q0 -62 37.5 -103.5t100.5 -41.5q100 0 135 59h85q-63 -125 -226 -125q-94 0 -150 60.5t-56 158.5q0 120 75 206.5t191 86.5zM313 430q-64 0 -111 -40.5t-64 -108.5h303q0 3 0.5 7t0.5 6q0 61 -34 98.5
t-95 37.5zM289 605l13 82h83l-13 -82h-83z" />
    <glyph glyph-name="Eogonek" unicode="&#x118;" horiz-adv-x="502" 
d="M377 -143l-10 -61q-30 -7 -51 -7q-43 0 -66.5 22.5t-23.5 59.5q0 34 23 68.5t67 60.5h-272l109 682h359l-12 -72h-281l-35 -221h271l-11 -72h-271l-39 -245h292l-12 -72h-7q-41 0 -76 -33.5t-35 -76.5q0 -37 38 -37q19 0 43 4z" />
    <glyph glyph-name="eogonek" unicode="&#x119;" horiz-adv-x="545" 
d="M375 -143l-10 -61q-30 -7 -51 -7q-43 0 -66.5 22.5t-23.5 59.5q0 62 65 113q-6 -1 -18 -1q-102 0 -161 60t-59 159q0 120 75 206.5t191 86.5q81 0 140 -52.5t59 -152.5q0 -38 -10 -71h-379q-2 -16 -2 -25q0 -62 39.5 -103.5t106.5 -41.5q90 0 124 59h85q-20 -48 -65 -80
l-44 -28q-77 -51 -77 -110q0 -37 38 -37q20 0 43 4zM313 430q-62 0 -110.5 -40.5t-64.5 -108.5h303q0 3 0.5 7t0.5 6q0 61 -34 98.5t-95 37.5z" />
    <glyph glyph-name="Ecaron" unicode="&#x11a;" horiz-adv-x="502" 
d="M512 682l-12 -72h-281l-35 -221h271l-11 -72h-271l-39 -245h292l-12 -72h-370l109 682h359zM331 735l-140 100l28 44l119 -69l145 69l21 -46z" />
    <glyph glyph-name="ecaron" unicode="&#x11b;" horiz-adv-x="545" 
d="M317 495q81 0 140 -52.5t59 -152.5q0 -40 -8 -71h-381q-2 -16 -2 -25q0 -62 37.5 -103.5t100.5 -41.5q100 0 135 59h85q-63 -125 -226 -125q-94 0 -150 60.5t-56 158.5q0 120 75 206.5t191 86.5zM313 430q-64 0 -111 -40.5t-64 -108.5h303q0 3 0.5 7t0.5 6q0 61 -34 98.5
t-95 37.5zM323 559l-123 115l39 44l92 -75l119 75l32 -49z" />
    <glyph glyph-name="Gcircumflex" unicode="&#x11c;" horiz-adv-x="745" 
d="M376 362h365l-2 -17q-21 -174 -117 -270.5t-242 -96.5q-145 0 -233 93t-88 232q0 109 45 199.5t133.5 146t202.5 55.5q113 0 189.5 -51.5t101.5 -142.5h-88q-17 53 -71 88.5t-131 35.5q-140 0 -220 -93.5t-80 -243.5q0 -106 65.5 -177.5t181.5 -71.5q103 0 172.5 67.5
t85.5 174.5h-282zM465 879l140 -100l-28 -44l-120 69l-144 -69l-21 46z" />
    <glyph glyph-name="gcircumflex" unicode="&#x11d;" horiz-adv-x="604" 
d="M578 482l-77 -481q-23 -140 -90.5 -198t-192.5 -58q-53 0 -105 16.5t-79 40.5l11 68q71 -61 176 -61q94 0 143 46t65 154l9 59h-1q-65 -85 -173 -85q-101 0 -157 65t-56 158q0 116 76 202.5t193 86.5q114 0 170 -87h1q3 16 13 74h74zM325 430q-87 0 -141.5 -68
t-54.5 -158q0 -71 39 -113t108 -42q82 0 137 70t55 157q0 67 -38.5 110.5t-104.5 43.5zM358 718l123 -115l-39 -44l-92 75l-119 -75l-32 49z" />
    <glyph glyph-name="Gbreve" unicode="&#x11e;" horiz-adv-x="745" 
d="M376 362h365l-2 -17q-21 -174 -117 -270.5t-242 -96.5q-145 0 -233 93t-88 232q0 109 45 199.5t133.5 146t202.5 55.5q113 0 189.5 -51.5t101.5 -142.5h-88q-17 53 -71 88.5t-131 35.5q-140 0 -220 -93.5t-80 -243.5q0 -106 65.5 -177.5t181.5 -71.5q103 0 172.5 67.5
t85.5 174.5h-282zM560 882h56q-15 -61 -59.5 -93t-109.5 -32q-66 0 -99 32.5t-33 92.5h55q0 -68 81 -68q39 0 69.5 18t39.5 50z" />
    <glyph glyph-name="gbreve" unicode="&#x11f;" horiz-adv-x="604" 
d="M578 482l-77 -481q-23 -140 -90.5 -198t-192.5 -58q-53 0 -105 16.5t-79 40.5l11 68q71 -61 176 -61q94 0 143 46t65 154l9 59h-1q-65 -85 -173 -85q-101 0 -157 65t-56 158q0 116 76 202.5t193 86.5q114 0 170 -87h1q3 16 13 74h74zM325 430q-87 0 -141.5 -68
t-54.5 -158q0 -71 39 -113t108 -42q82 0 137 70t55 157q0 67 -38.5 110.5t-104.5 43.5zM433 717h60q-14 -64 -58.5 -103t-105.5 -39q-60 0 -95 36.5t-35 105.5h58q0 -38 20 -61t56 -23q37 0 65 25.5t35 58.5z" />
    <glyph glyph-name="Gdotaccent" unicode="&#x120;" horiz-adv-x="745" 
d="M376 362h365l-2 -17q-21 -174 -117 -270.5t-242 -96.5q-145 0 -233 93t-88 232q0 109 45 199.5t133.5 146t202.5 55.5q113 0 189.5 -51.5t101.5 -142.5h-88q-17 53 -71 88.5t-131 35.5q-140 0 -220 -93.5t-80 -243.5q0 -106 65.5 -177.5t181.5 -71.5q103 0 172.5 67.5
t85.5 174.5h-282zM402 784l13 80h81l-13 -80h-81z" />
    <glyph glyph-name="gdotaccent" unicode="&#x121;" horiz-adv-x="604" 
d="M578 482l-77 -481q-23 -140 -90.5 -198t-192.5 -58q-53 0 -105 16.5t-79 40.5l11 68q71 -61 176 -61q94 0 143 46t65 154l9 59h-1q-65 -85 -173 -85q-101 0 -157 65t-56 158q0 116 76 202.5t193 86.5q114 0 170 -87h1q3 16 13 74h74zM325 430q-87 0 -141.5 -68
t-54.5 -158q0 -71 39 -113t108 -42q82 0 137 70t55 157q0 67 -38.5 110.5t-104.5 43.5zM302 605l13 82h83l-13 -82h-83z" />
    <glyph glyph-name="Gcommaaccent" unicode="&#x122;" horiz-adv-x="745" 
d="M376 362h365l-2 -17q-21 -174 -117 -270.5t-242 -96.5q-145 0 -233 93t-88 232q0 109 45 199.5t133.5 146t202.5 55.5q113 0 189.5 -51.5t101.5 -142.5h-88q-17 53 -71 88.5t-131 35.5q-140 0 -220 -93.5t-80 -243.5q0 -106 65.5 -177.5t181.5 -71.5q103 0 172.5 67.5
t85.5 174.5h-282zM327 -145l12 77h85l-11 -61q-10 -55 -38 -85h-49q26 29 33 69h-32z" />
    <glyph glyph-name="gcommaaccent" unicode="&#x123;" horiz-adv-x="604" 
d="M578 482l-77 -481q-23 -140 -90.5 -198t-192.5 -58q-53 0 -105 16.5t-79 40.5l11 68q71 -61 176 -61q94 0 143 46t65 154l9 59h-1q-65 -85 -173 -85q-101 0 -157 65t-56 158q0 116 76 202.5t193 86.5q114 0 170 -87h1q3 16 13 74h74zM325 430q-87 0 -141.5 -68
t-54.5 -158q0 -71 39 -113t108 -42q82 0 137 70t55 157q0 67 -38.5 110.5t-104.5 43.5zM379 640l-12 -77h-85l11 61q10 55 38 85h49q-26 -29 -33 -69h32z" />
    <glyph glyph-name="Hcircumflex" unicode="&#x124;" horiz-adv-x="662" 
d="M484 0l51 317h-362l-51 -317h-79l109 682h79l-47 -293h362l47 293h79l-109 -682h-79zM434 879l140 -100l-28 -44l-120 69l-144 -69l-21 46z" />
    <glyph glyph-name="hcircumflex" unicode="&#x125;" horiz-adv-x="542" 
d="M46 0l114 720h75l-46 -297h1q58 72 144 72q78 0 122 -43t44 -119q0 -27 -7 -72l-40 -261h-75l40 256q7 42 7 66q0 106 -97 106q-70 0 -113 -50.5t-54 -125.5l-40 -252h-75zM225 959l123 -115l-39 -44l-92 75l-119 -75l-32 49z" />
    <glyph glyph-name="Hbar" unicode="&#x126;" horiz-adv-x="662" 
d="M711 526h-64l-84 -526h-79l51 317h-362l-51 -317h-79l84 526h-64l9 56h64l16 100h79l-16 -100h362l16 100h79l-16 -100h64zM184 389h362l22 137h-362z" />
    <glyph glyph-name="hbar" unicode="&#x127;" horiz-adv-x="542" 
d="M370 578h-157l-24 -155h1q58 72 144 72q78 0 122 -43t44 -119q0 -27 -7 -72l-40 -261h-75l40 256q7 42 7 66q0 106 -97 106q-70 0 -113 -50.5t-54 -125.5l-40 -252h-75l91 578h-75l9 56h75l14 86h75l-14 -86h158z" />
    <glyph glyph-name="Itilde" unicode="&#x128;" horiz-adv-x="222" 
d="M44 0l109 682h79l-109 -682h-79zM105 771h-59q9 56 37.5 84.5t68.5 28.5q38 0 74 -33q34 -31 52 -31q37 0 46 57h59q-17 -113 -109 -113q-40 0 -74 33q-31 31 -51 31q-33 0 -44 -57z" />
    <glyph glyph-name="itilde" unicode="&#x129;" horiz-adv-x="215" 
d="M118 482h75l-76 -482h-75zM69 596h-59q9 56 37.5 84.5t68.5 28.5q38 0 74 -33q34 -31 52 -31q37 0 46 57h59q-17 -113 -109 -113q-40 0 -74 33q-31 31 -51 31q-33 0 -44 -57z" />
    <glyph glyph-name="Imacron" unicode="&#x12a;" horiz-adv-x="222" 
d="M44 0l109 682h79l-109 -682h-79zM339 786h-279l9 56h279z" />
    <glyph glyph-name="imacron" unicode="&#x12b;" horiz-adv-x="215" 
d="M118 482h75l-76 -482h-75zM310 608h-288l9 56h288z" />
    <glyph glyph-name="Ibreve" unicode="&#x12c;" horiz-adv-x="222" 
d="M44 0l109 682h79l-109 -682h-79zM315 882h56q-15 -61 -59.5 -93t-109.5 -32q-66 0 -99 32.5t-33 92.5h55q0 -68 81 -68q39 0 69.5 18t39.5 50z" />
    <glyph glyph-name="ibreve" unicode="&#x12d;" horiz-adv-x="215" 
d="M118 482h75l-76 -482h-75zM272 717h60q-14 -64 -58.5 -103t-105.5 -39q-60 0 -95 36.5t-35 105.5h58q0 -38 20 -61t56 -23q37 0 65 25.5t35 58.5z" />
    <glyph glyph-name="Iogonek" unicode="&#x12e;" horiz-adv-x="222" 
d="M44 0l109 682h79l-109 -682q-23 0 -55 -33t-32 -77q0 -37 38 -37q19 0 43 4l-10 -61q-30 -7 -51 -7q-43 0 -66.5 22.5t-23.5 59.5q0 35 23 70.5t67 58.5h-12z" />
    <glyph glyph-name="iogonek" unicode="&#x12f;" horiz-adv-x="215" 
d="M111 -143l-10 -61q-30 -7 -51 -7q-43 0 -66.5 22.5t-23.5 59.5q0 34 23 68.5t67 60.5h-8l76 482h75l-76 -482q-18 0 -52.5 -33.5t-34.5 -76.5q0 -37 38 -37q19 0 43 4zM132 602l14 87h89l-14 -87h-89z" />
    <glyph glyph-name="Idotaccent" unicode="&#x130;" horiz-adv-x="222" 
d="M44 0l109 682h79l-109 -682h-79zM165 784l13 80h81l-13 -80h-81z" />
    <glyph glyph-name="dotlessi" unicode="&#x131;" horiz-adv-x="215" 
d="M118 482h75l-76 -482h-75z" />
    <glyph glyph-name="Jcircumflex" unicode="&#x134;" horiz-adv-x="337" 
d="M88 47q49 0 73 27.5t33 89.5l81 518h77l-82 -522q-15 -95 -56.5 -139t-128.5 -44q-56 0 -97 24l11 68q41 -22 89 -22zM339 879l140 -100l-28 -44l-120 69l-144 -69l-21 46z" />
    <glyph glyph-name="jcircumflex" unicode="&#x135;" horiz-adv-x="215" 
d="M193 482l-86 -544q-16 -102 -57.5 -146t-118.5 -44q-46 0 -85 13l12 66q38 -12 73 -12q42 0 66 28t34 93l87 546h75zM184 698l123 -115l-39 -44l-92 75l-119 -75l-32 49z" />
    <glyph glyph-name="Kcommaaccent" unicode="&#x136;" horiz-adv-x="574" 
d="M460 0l-206 340l-91 -82l-41 -258h-79l109 682h79l-50 -316l344 316h105l-320 -293l245 -389h-95zM228 -145l12 77h85l-11 -61q-10 -55 -38 -85h-49q26 29 33 69h-32z" />
    <glyph glyph-name="kcommaaccent" unicode="&#x137;" horiz-adv-x="456" 
d="M348 0l-144 235l-59 -51l-29 -184h-75l114 720h75l-70 -439l220 201h97l-219 -199q30 -47 88.5 -141.5t88.5 -141.5h-87zM171 -145l12 77h85l-11 -61q-10 -55 -38 -85h-49q26 29 33 69h-32z" />
    <glyph glyph-name="kgreenlandic" unicode="&#x138;" horiz-adv-x="456" 
d="M348 0l-144 235l-59 -51l-29 -184h-75l76 482h75l-32 -201l220 201h97l-219 -199l177 -283h-87z" />
    <glyph glyph-name="Lacute" unicode="&#x139;" horiz-adv-x="483" 
d="M44 0l109 682h79l-97 -610h291l-12 -72h-370zM334 883l26 -60l-201 -86l-20 49z" />
    <glyph glyph-name="lacute" unicode="&#x13a;" horiz-adv-x="214" 
d="M156 720h75l-115 -720h-75zM142 840l151 150l48 -54l-161 -137z" />
    <glyph glyph-name="Lcommaaccent" unicode="&#x13b;" horiz-adv-x="483" 
d="M44 0l109 682h79l-97 -610h291l-12 -72h-370zM177 -145l12 77h85l-11 -61q-10 -55 -38 -85h-49q26 29 33 69h-32z" />
    <glyph glyph-name="lcommaaccent" unicode="&#x13c;" horiz-adv-x="214" 
d="M156 720h75l-115 -720h-75zM15 -145l12 77h85l-11 -61q-10 -55 -38 -85h-49q26 29 33 69h-32z" />
    <glyph glyph-name="Lcaron" unicode="&#x13d;" horiz-adv-x="483" 
d="M44 0l109 682h79l-97 -610h291l-12 -72h-370zM378 605l12 77h85l-11 -61q-10 -55 -38 -85h-49q26 29 33 69h-32z" />
    <glyph glyph-name="lcaron" unicode="&#x13e;" horiz-adv-x="294" 
d="M156 720h75l-115 -720h-75zM285 643l12 77h85l-11 -61q-10 -55 -38 -85h-49q26 29 33 69h-32z" />
    <glyph glyph-name="Ldot" unicode="&#x13f;" horiz-adv-x="483" 
d="M44 0l109 682h79l-97 -610h291l-12 -72h-370zM337 317l13 82h83l-13 -82h-83z" />
    <glyph glyph-name="ldot" unicode="&#x140;" horiz-adv-x="299" 
d="M156 720h75l-115 -720h-75zM243 348l13 82h83l-13 -82h-83z" />
    <glyph glyph-name="Lslash" unicode="&#x141;" horiz-adv-x="483" 
d="M332 473l-12 -78l-150 -101l-35 -222h291l-12 -72h-369l39 247l-72 -51l11 78l74 50l56 358h78l-49 -310z" />
    <glyph glyph-name="lslash" unicode="&#x142;" horiz-adv-x="241" 
d="M170 720h75l-47 -295l90 63l-11 -78l-92 -63l-55 -347h-74l48 299l-90 -63l12 77l90 63z" />
    <glyph glyph-name="Nacute" unicode="&#x143;" horiz-adv-x="644" 
d="M117 0h-74l109 682h75l161 -338q63 -131 103 -226h2q2 12 10.5 74t13.5 96l63 394h74l-109 -682h-74l-160 339q-81 168 -103 228h-3q-18 -128 -26 -178zM521 883l26 -60l-201 -86l-20 49z" />
    <glyph glyph-name="nacute" unicode="&#x144;" horiz-adv-x="537" 
d="M22 0l77 482h75l-9 -59h1q56 72 144 72q77 0 121.5 -45t44.5 -117q0 -24 -4 -54l-43 -279h-75l42 271q5 35 5 51q0 47 -26.5 76.5t-73.5 29.5q-65 0 -108.5 -48t-55.5 -128l-40 -252h-75zM240 599l151 150l48 -54l-161 -137z" />
    <glyph glyph-name="Ncommaaccent" unicode="&#x145;" horiz-adv-x="644" 
d="M117 0h-74l109 682h75l161 -338q63 -131 103 -226h2q2 12 10.5 74t13.5 96l63 394h74l-109 -682h-74l-160 339q-81 168 -103 228h-3q-18 -128 -26 -178zM237 -145l12 77h85l-11 -61q-10 -55 -38 -85h-49q26 29 33 69h-32z" />
    <glyph glyph-name="ncommaaccent" unicode="&#x146;" horiz-adv-x="537" 
d="M22 0l77 482h75l-9 -59h1q56 72 144 72q77 0 121.5 -45t44.5 -117q0 -24 -4 -54l-43 -279h-75l42 271q5 35 5 51q0 47 -26.5 76.5t-73.5 29.5q-65 0 -108.5 -48t-55.5 -128l-40 -252h-75zM193 -145l12 77h85l-11 -61q-10 -55 -38 -85h-49q26 29 33 69h-32z" />
    <glyph glyph-name="Ncaron" unicode="&#x147;" horiz-adv-x="644" 
d="M117 0h-74l109 682h75l161 -338q63 -131 103 -226h2q2 12 10.5 74t13.5 96l63 394h74l-109 -682h-74l-160 339q-81 168 -103 228h-3q-18 -128 -26 -178zM406 735l-140 100l28 44l119 -69l145 69l21 -46z" />
    <glyph glyph-name="ncaron" unicode="&#x148;" horiz-adv-x="537" 
d="M22 0l77 482h75l-9 -59h1q56 72 144 72q77 0 121.5 -45t44.5 -117q0 -24 -4 -54l-43 -279h-75l42 271q5 35 5 51q0 47 -26.5 76.5t-73.5 29.5q-65 0 -108.5 -48t-55.5 -128l-40 -252h-75zM322 559l-123 115l39 44l92 -75l119 75l32 -49z" />
    <glyph glyph-name="Eng" unicode="&#x14a;" horiz-adv-x="644" 
d="M117 0h-74l109 682h75l162 -338q87 -179 103 -218h2q6 44 19 126.5t17 107.5l51 322h73l-109 -682q-20 -125 -57 -173t-124 -48q-46 0 -85 13l16 64q38 -12 73 -12q49 0 70 35t36 125l-163 335q-74 149 -103 228h-3q-21 -150 -36 -243z" />
    <glyph glyph-name="eng" unicode="&#x14b;" horiz-adv-x="537" 
d="M363 -64l52 335q5 35 5 51q0 47 -26.5 76.5t-73.5 29.5q-65 0 -108.5 -48t-55.5 -128l-40 -252h-75l77 482h75l-9 -59h1q56 72 144 72q77 0 121.5 -45t44.5 -117q0 -24 -4 -54l-54 -341q-16 -102 -56.5 -146t-117.5 -44q-46 0 -85 13l12 66q38 -12 73 -12q42 0 66 28
t34 93z" />
    <glyph glyph-name="Omacron" unicode="&#x14c;" horiz-adv-x="767" 
d="M395 50q137 0 212.5 97t75.5 229q0 107 -67.5 181.5t-175.5 74.5q-74 0 -132 -28t-93.5 -75t-53.5 -104t-18 -119q0 -108 69 -182t183 -74zM397 -22q-153 0 -244.5 95t-91.5 233q0 75 24 144.5t69 127t119.5 92t166.5 34.5q145 0 235 -95t90 -233q0 -74 -23.5 -144
t-68 -127.5t-116.5 -92t-160 -34.5zM582 786h-279l9 56h279z" />
    <glyph glyph-name="omacron" unicode="&#x14d;" horiz-adv-x="580" 
d="M50 209q0 71 29.5 134.5t95 107.5t154.5 44q99 0 160.5 -65.5t61.5 -162.5q0 -114 -75.5 -199t-204.5 -85q-98 0 -159.5 64t-61.5 162zM320 428q-81 0 -137 -60.5t-56 -155.5q0 -74 41 -118t113 -44q84 0 138.5 62t54.5 154q0 72 -40 117t-114 45zM491 608h-288l9 56h288
z" />
    <glyph glyph-name="Obreve" unicode="&#x14e;" horiz-adv-x="767" 
d="M395 50q137 0 212.5 97t75.5 229q0 107 -67.5 181.5t-175.5 74.5q-74 0 -132 -28t-93.5 -75t-53.5 -104t-18 -119q0 -108 69 -182t183 -74zM397 -22q-153 0 -244.5 95t-91.5 233q0 75 24 144.5t69 127t119.5 92t166.5 34.5q145 0 235 -95t90 -233q0 -74 -23.5 -144
t-68 -127.5t-116.5 -92t-160 -34.5zM555 882h56q-15 -61 -59.5 -93t-109.5 -32q-66 0 -99 32.5t-33 92.5h55q0 -68 81 -68q39 0 69.5 18t39.5 50z" />
    <glyph glyph-name="obreve" unicode="&#x14f;" horiz-adv-x="580" 
d="M50 209q0 71 29.5 134.5t95 107.5t154.5 44q99 0 160.5 -65.5t61.5 -162.5q0 -114 -75.5 -199t-204.5 -85q-98 0 -159.5 64t-61.5 162zM320 428q-81 0 -137 -60.5t-56 -155.5q0 -74 41 -118t113 -44q84 0 138.5 62t54.5 154q0 72 -40 117t-114 45zM449 717h60
q-14 -64 -58.5 -103t-105.5 -39q-60 0 -95 36.5t-35 105.5h58q0 -38 20 -61t56 -23q37 0 65 25.5t35 58.5z" />
    <glyph glyph-name="Ohungarumlaut" unicode="&#x150;" horiz-adv-x="767" 
d="M395 50q137 0 212.5 97t75.5 229q0 107 -67.5 181.5t-175.5 74.5q-74 0 -132 -28t-93.5 -75t-53.5 -104t-18 -119q0 -108 69 -182t183 -74zM397 -22q-153 0 -244.5 95t-91.5 233q0 75 24 144.5t69 127t119.5 92t166.5 34.5q145 0 235 -95t90 -233q0 -74 -23.5 -144
t-68 -127.5t-116.5 -92t-160 -34.5zM478 878l33 -49l-162 -94l-26 40zM636 878l34 -49l-163 -94l-26 40z" />
    <glyph glyph-name="ohungarumlaut" unicode="&#x151;" horiz-adv-x="580" 
d="M50 209q0 71 29.5 134.5t95 107.5t154.5 44q99 0 160.5 -65.5t61.5 -162.5q0 -114 -75.5 -199t-204.5 -85q-98 0 -159.5 64t-61.5 162zM320 428q-81 0 -137 -60.5t-56 -155.5q0 -74 41 -118t113 -44q84 0 138.5 62t54.5 154q0 72 -40 117t-114 45zM353 751l56 -44
l-136 -149l-38 29zM499 751l55 -44l-135 -149l-38 29z" />
    <glyph glyph-name="OE" unicode="&#x152;" horiz-adv-x="1079" 
d="M61 306q0 59 14.5 115.5t46 108t75 90t106.5 61.5t137 23q99 0 166.5 -44t101.5 -116l21 138h360l-12 -72h-284l-35 -221h274l-11 -72h-274l-39 -245h295l-11 -72h-371l12 85q-95 -107 -253 -107q-140 0 -229.5 96t-89.5 232zM385 50q98 0 167.5 49t100 121t30.5 156
q0 107 -67.5 181.5t-175.5 74.5q-74 0 -132 -28t-93.5 -75t-53.5 -104t-18 -119q0 -107 67 -181.5t175 -74.5z" />
    <glyph glyph-name="oe" unicode="&#x153;" horiz-adv-x="958" 
d="M50 202q0 122 75 207.5t199 85.5q69 0 121.5 -33t75.5 -86q74 119 209 119q81 0 140 -52.5t59 -152.5q0 -40 -8 -71h-381q-2 -16 -2 -25q0 -62 39 -103.5t102 -41.5q87 0 129 59h85q-67 -125 -218 -125q-67 0 -115.5 30.5t-71.5 86.5q-82 -117 -231 -117
q-94 0 -150.5 62.5t-56.5 156.5zM317 428q-86 0 -138 -66t-52 -157q0 -65 37 -110t103 -45q93 0 150 64t57 157q0 69 -42 113t-115 44zM726 430q-62 0 -110.5 -40.5t-64.5 -108.5h303q0 3 0.5 7t0.5 6q0 61 -34 98.5t-95 37.5z" />
    <glyph glyph-name="Racute" unicode="&#x154;" horiz-adv-x="543" 
d="M168 287l-46 -287h-78l109 682h174q104 0 156 -46t52 -125q0 -82 -50.5 -140.5t-135.5 -75.5l160 -295h-91l-151 287h-99zM179 359h112q75 0 118.5 42t43.5 110q0 99 -128 99h-106zM434 883l26 -60l-201 -86l-20 49z" />
    <glyph glyph-name="racute" unicode="&#x155;" horiz-adv-x="346" 
d="M358 492l-11 -69q-19 5 -44 5q-61 0 -98 -47t-50 -127l-40 -254h-74l77 482h74l-10 -57l2 -1q52 71 132 71q29 0 42 -3zM171 599l151 150l48 -54l-161 -137z" />
    <glyph glyph-name="Rcommaaccent" unicode="&#x156;" horiz-adv-x="543" 
d="M168 287l-46 -287h-78l109 682h174q104 0 156 -46t52 -125q0 -82 -50.5 -140.5t-135.5 -75.5l160 -295h-91l-151 287h-99zM179 359h112q75 0 118.5 42t43.5 110q0 99 -128 99h-106zM212 -145l12 77h85l-11 -61q-10 -55 -38 -85h-49q26 29 33 69h-32z" />
    <glyph glyph-name="rcommaaccent" unicode="&#x157;" horiz-adv-x="346" 
d="M358 492l-11 -69q-19 5 -44 5q-61 0 -98 -47t-50 -127l-40 -254h-74l77 482h74l-10 -57l2 -1q52 71 132 71q29 0 42 -3zM23 -145l12 77h85l-11 -61q-10 -55 -38 -85h-49q26 29 33 69h-32z" />
    <glyph glyph-name="Rcaron" unicode="&#x158;" horiz-adv-x="543" 
d="M168 287l-46 -287h-78l109 682h174q104 0 156 -46t52 -125q0 -82 -50.5 -140.5t-135.5 -75.5l160 -295h-91l-151 287h-99zM179 359h112q75 0 118.5 42t43.5 110q0 99 -128 99h-106zM319 735l-140 100l28 44l119 -69l145 69l21 -46z" />
    <glyph glyph-name="rcaron" unicode="&#x159;" horiz-adv-x="346" 
d="M358 492l-11 -69q-19 5 -44 5q-61 0 -98 -47t-50 -127l-40 -254h-74l77 482h74l-10 -57l2 -1q52 71 132 71q29 0 42 -3zM238 559l-123 115l39 44l92 -75l119 75l32 -49z" />
    <glyph glyph-name="Sacute" unicode="&#x15a;" horiz-adv-x="524" 
d="M514 538h-81q-6 42 -39.5 70t-80.5 28q-56 0 -88 -31.5t-32 -76.5q0 -39 25.5 -69t91.5 -54q90 -33 130.5 -84.5t40.5 -130.5q0 -92 -64.5 -151.5t-164.5 -59.5q-97 0 -156 52.5t-69 143.5h83q21 -128 146 -128q63 0 104 39.5t41 103.5q0 54 -28 88t-102 61
q-158 57 -158 182q0 84 57 133.5t145 49.5q83 0 138.5 -47t60.5 -119zM460 883l26 -60l-201 -86l-20 49z" />
    <glyph glyph-name="sacute" unicode="&#x15b;" horiz-adv-x="408" 
d="M391 372h-77q-16 60 -82 60q-35 0 -56.5 -18.5t-21.5 -45.5q0 -47 74 -79q70 -31 99 -68t29 -91q0 -63 -46.5 -105t-123.5 -42q-65 0 -112 35t-55 103h78q4 -33 29.5 -53.5t62.5 -20.5q42 0 67.5 22.5t25.5 57.5q0 32 -17.5 54.5t-68.5 44.5q-116 51 -116 139
q0 55 42.5 92.5t115.5 37.5q58 0 99 -31.5t54 -91.5zM175 599l151 150l48 -54l-161 -137z" />
    <glyph glyph-name="Scircumflex" unicode="&#x15c;" horiz-adv-x="524" 
d="M514 538h-81q-6 42 -39.5 70t-80.5 28q-56 0 -88 -31.5t-32 -76.5q0 -39 25.5 -69t91.5 -54q90 -33 130.5 -84.5t40.5 -130.5q0 -92 -64.5 -151.5t-164.5 -59.5q-97 0 -156 52.5t-69 143.5h83q21 -128 146 -128q63 0 104 39.5t41 103.5q0 54 -28 88t-102 61
q-158 57 -158 182q0 84 57 133.5t145 49.5q83 0 138.5 -47t60.5 -119zM338 879l140 -100l-28 -44l-120 69l-144 -69l-21 46z" />
    <glyph glyph-name="scircumflex" unicode="&#x15d;" horiz-adv-x="408" 
d="M391 372h-77q-16 60 -82 60q-35 0 -56.5 -18.5t-21.5 -45.5q0 -47 74 -79q70 -31 99 -68t29 -91q0 -63 -46.5 -105t-123.5 -42q-65 0 -112 35t-55 103h78q4 -33 29.5 -53.5t62.5 -20.5q42 0 67.5 22.5t25.5 57.5q0 32 -17.5 54.5t-68.5 44.5q-116 51 -116 139
q0 55 42.5 92.5t115.5 37.5q58 0 99 -31.5t54 -91.5zM268 718l123 -115l-39 -44l-92 75l-119 -75l-32 49z" />
    <glyph glyph-name="Scedilla" unicode="&#x15e;" horiz-adv-x="524" 
d="M514 538h-81q-6 42 -39.5 70t-80.5 28q-51 0 -85.5 -26.5t-34.5 -81.5q0 -40 23.5 -68.5t93.5 -54.5q90 -33 130.5 -84.5t40.5 -130.5q0 -91 -63 -150.5t-162 -60.5l-10 -18q35 -7 54.5 -27.5t19.5 -50.5q0 -49 -35 -80.5t-93 -31.5q-48 0 -88 15l25 48q24 -11 63 -11
q30 0 48 15t18 39q0 22 -20.5 36t-60.5 14l31 55q-77 11 -123.5 61.5t-57.5 131.5h83q21 -128 146 -128q63 0 104 39.5t41 103.5q0 54 -28 88t-102 61q-84 30 -121 73t-37 109q0 84 57 133.5t145 49.5q83 0 138.5 -47t60.5 -119z" />
    <glyph glyph-name="scedilla" unicode="&#x15f;" horiz-adv-x="408" 
d="M391 372h-77q-16 60 -82 60q-35 0 -56.5 -18.5t-21.5 -45.5q0 -47 74 -79q70 -31 99 -68t29 -91q0 -61 -44 -102.5t-117 -44.5l-12 -22q35 -7 54.5 -27.5t19.5 -50.5q0 -49 -35 -80.5t-93 -31.5q-48 0 -88 15l25 48q24 -11 63 -11q30 0 48 15t18 39q0 22 -20.5 36
t-60.5 14l34 60q-52 9 -87.5 43t-41.5 91h78q4 -33 29.5 -53.5t62.5 -20.5q42 0 67.5 22.5t25.5 57.5q0 32 -17.5 54.5t-68.5 44.5q-116 51 -116 139q0 55 42.5 92.5t115.5 37.5q58 0 99 -31.5t54 -91.5z" />
    <glyph glyph-name="Scaron" unicode="&#x160;" horiz-adv-x="524" 
d="M514 538h-81q-6 42 -39.5 70t-80.5 28q-56 0 -88 -31.5t-32 -76.5q0 -39 25.5 -69t91.5 -54q90 -33 130.5 -84.5t40.5 -130.5q0 -92 -64.5 -151.5t-164.5 -59.5q-97 0 -156 52.5t-69 143.5h83q21 -128 146 -128q63 0 104 39.5t41 103.5q0 54 -28 88t-102 61
q-158 57 -158 182q0 84 57 133.5t145 49.5q83 0 138.5 -47t60.5 -119zM339 735l-140 100l28 44l119 -69l145 69l21 -46z" />
    <glyph glyph-name="scaron" unicode="&#x161;" horiz-adv-x="408" 
d="M396 372h-77q-16 60 -82 60q-35 0 -56.5 -18.5t-21.5 -45.5q0 -47 74 -79q70 -31 99 -68t29 -91q0 -63 -46.5 -105t-123.5 -42q-65 0 -112 35t-55 103h78q4 -33 29.5 -53.5t62.5 -20.5q42 0 67.5 22.5t25.5 57.5q0 32 -17.5 54.5t-68.5 44.5q-116 51 -116 139
q0 55 42.5 92.5t115.5 37.5q58 0 99 -31.5t54 -91.5zM262 559l-123 115l39 44l92 -75l119 75l32 -49z" />
    <glyph glyph-name="uni0162" unicode="&#x162;" horiz-adv-x="495" 
d="M178 0l97 610h-172l12 72h424l-12 -72h-173l-97 -610h-79zM154 -145l12 77h85l-11 -61q-10 -55 -38 -85h-49q26 29 33 69h-32z" />
    <glyph glyph-name="uni0163" unicode="&#x163;" horiz-adv-x="308" 
d="M53 419l10 63h66l24 151h75l-24 -151h124l-10 -63h-124l-36 -226q-7 -40 -7 -72q0 -33 14.5 -48t50.5 -15q28 0 54 6l-12 -64q-26 -6 -58 -6q-123 0 -123 127q0 35 8 83l34 215h-66zM129 -145l12 77h85l-11 -61q-10 -55 -38 -85h-49q26 29 33 69h-32z" />
    <glyph glyph-name="Tcaron" unicode="&#x164;" horiz-adv-x="495" 
d="M178 0l97 610h-172l12 72h424l-12 -72h-173l-97 -610h-79zM327 735l-140 100l28 44l119 -69l145 69l21 -46z" />
    <glyph glyph-name="tcaron" unicode="&#x165;" horiz-adv-x="308" 
d="M53 419l10 63h66l24 151h75l-24 -151h124l-10 -63h-124l-36 -226q-7 -40 -7 -72q0 -33 14.5 -48t50.5 -15q28 0 54 6l-12 -64q-26 -6 -58 -6q-123 0 -123 127q0 35 8 83l34 215h-66zM301 643l12 77h85l-11 -61q-10 -55 -38 -85h-49q26 29 33 69h-32z" />
    <glyph glyph-name="Tbar" unicode="&#x166;" horiz-adv-x="495" 
d="M426 322h-118l-51 -322h-79l51 322h-118l9 56h118l37 232h-172l12 72h424l-12 -72h-173l-37 -232h118z" />
    <glyph glyph-name="tbar" unicode="&#x167;" horiz-adv-x="308" 
d="M268 222h-106l-4 -29q-7 -40 -7 -72q0 -33 14.5 -48t50.5 -15q28 0 54 6l-12 -64q-26 -6 -58 -6q-123 0 -123 127q0 35 8 83l3 18h-45l9 56h45l22 141h-66l10 63h66l24 151h75l-24 -151h124l-10 -63h-124l-23 -141h106z" />
    <glyph glyph-name="Utilde" unicode="&#x168;" horiz-adv-x="599" 
d="M269 -22q-96 0 -147 57t-51 161q0 39 6 76l65 410h79l-66 -422q-5 -30 -5 -64q0 -146 128 -146q83 0 131.5 52.5t65.5 161.5l66 418h79l-64 -408q-24 -152 -91 -224t-196 -72zM288 771h-59q9 56 37.5 84.5t68.5 28.5q38 0 74 -33q34 -31 52 -31q37 0 46 57h59
q-17 -113 -109 -113q-40 0 -74 33q-31 31 -51 31q-33 0 -44 -57z" />
    <glyph glyph-name="utilde" unicode="&#x169;" horiz-adv-x="527" 
d="M505 482l-35 -222q-20 -126 -20 -185q0 -37 6 -75h-75q-5 33 -5 66h-3q-60 -83 -155 -83q-61 0 -107 42t-46 124q0 26 4 52l45 281h75l-44 -277q-4 -30 -4 -47q0 -49 23 -78.5t71 -29.5q65 0 104 50.5t50 122.5l41 259h75zM223 596h-59q9 56 37.5 84.5t68.5 28.5
q38 0 74 -33q34 -31 52 -31q37 0 46 57h59q-17 -113 -109 -113q-40 0 -74 33q-31 31 -51 31q-33 0 -44 -57z" />
    <glyph glyph-name="Umacron" unicode="&#x16a;" horiz-adv-x="599" 
d="M269 -22q-96 0 -147 57t-51 161q0 39 6 76l65 410h79l-66 -422q-5 -30 -5 -64q0 -146 128 -146q83 0 131.5 52.5t65.5 161.5l66 418h79l-64 -408q-24 -152 -91 -224t-196 -72zM533 786h-279l9 56h279z" />
    <glyph glyph-name="umacron" unicode="&#x16b;" horiz-adv-x="527" 
d="M505 482l-35 -222q-20 -126 -20 -185q0 -37 6 -75h-75q-5 33 -5 66h-3q-60 -83 -155 -83q-61 0 -107 42t-46 124q0 26 4 52l45 281h75l-44 -277q-4 -30 -4 -47q0 -49 23 -78.5t71 -29.5q65 0 104 50.5t50 122.5l41 259h75zM469 608h-288l9 56h288z" />
    <glyph glyph-name="Ubreve" unicode="&#x16c;" horiz-adv-x="599" 
d="M269 -22q-96 0 -147 57t-51 161q0 39 6 76l65 410h79l-66 -422q-5 -30 -5 -64q0 -146 128 -146q83 0 131.5 52.5t65.5 161.5l66 418h79l-64 -408q-24 -152 -91 -224t-196 -72zM501 882h56q-15 -61 -59.5 -93t-109.5 -32q-66 0 -99 32.5t-33 92.5h55q0 -68 81 -68
q39 0 69.5 18t39.5 50z" />
    <glyph glyph-name="ubreve" unicode="&#x16d;" horiz-adv-x="527" 
d="M505 482l-35 -222q-20 -126 -20 -185q0 -37 6 -75h-75q-5 33 -5 66h-3q-60 -83 -155 -83q-61 0 -107 42t-46 124q0 26 4 52l45 281h75l-44 -277q-4 -30 -4 -47q0 -49 23 -78.5t71 -29.5q65 0 104 50.5t50 122.5l41 259h75zM426 717h60q-14 -64 -58.5 -103t-105.5 -39
q-60 0 -95 36.5t-35 105.5h58q0 -38 20 -61t56 -23q37 0 65 25.5t35 58.5z" />
    <glyph glyph-name="Uring" unicode="&#x16e;" horiz-adv-x="599" 
d="M269 -22q-96 0 -147 57t-51 161q0 39 6 76l65 410h79l-66 -422q-5 -30 -5 -64q0 -146 128 -146q83 0 131.5 52.5t65.5 161.5l66 418h79l-64 -408q-24 -152 -91 -224t-196 -72zM282 861q0 49 34.5 83.5t83.5 34.5t83.5 -34.5t34.5 -83.5t-34.5 -83.5t-83.5 -34.5
t-83.5 34.5t-34.5 83.5zM335 861q0 -27 19 -46t46 -19t46 19t19 46t-19 46t-46 19t-46 -19t-19 -46z" />
    <glyph glyph-name="uring" unicode="&#x16f;" horiz-adv-x="527" 
d="M505 482l-35 -222q-20 -126 -20 -185q0 -37 6 -75h-75q-5 33 -5 66h-3q-60 -83 -155 -83q-61 0 -107 42t-46 124q0 26 4 52l45 281h75l-44 -277q-4 -30 -4 -47q0 -49 23 -78.5t71 -29.5q65 0 104 50.5t50 122.5l41 259h75zM201 661q0 49 34.5 83.5t83.5 34.5t83.5 -34.5
t34.5 -83.5t-34.5 -83.5t-83.5 -34.5t-83.5 34.5t-34.5 83.5zM254 661q0 -27 19 -46t46 -19t46 19t19 46t-19 46t-46 19t-46 -19t-19 -46z" />
    <glyph glyph-name="Uhungarumlaut" unicode="&#x170;" horiz-adv-x="599" 
d="M269 -22q-96 0 -147 57t-51 161q0 39 6 76l65 410h79l-66 -422q-5 -30 -5 -64q0 -146 128 -146q83 0 131.5 52.5t65.5 161.5l66 418h79l-64 -408q-24 -152 -91 -224t-196 -72zM420 878l33 -49l-162 -94l-26 40zM578 878l34 -49l-163 -94l-26 40z" />
    <glyph glyph-name="uhungarumlaut" unicode="&#x171;" horiz-adv-x="527" 
d="M505 482l-35 -222q-20 -126 -20 -185q0 -37 6 -75h-75q-5 33 -5 66h-3q-60 -83 -155 -83q-61 0 -107 42t-46 124q0 26 4 52l45 281h75l-44 -277q-4 -30 -4 -47q0 -49 23 -78.5t71 -29.5q65 0 104 50.5t50 122.5l41 259h75zM318 751l56 -44l-136 -149l-38 29zM464 751
l55 -44l-135 -149l-38 29z" />
    <glyph glyph-name="Uogonek" unicode="&#x172;" horiz-adv-x="599" 
d="M395 -143l-10 -61q-30 -7 -51 -7q-43 0 -66.5 22.5t-23.5 59.5q0 59 60 108q-4 0 -13 -0.5t-14 -0.5q-104 0 -155 57t-51 161q0 39 6 76l65 410h79l-66 -422q-5 -30 -5 -64q0 -146 128 -146q81 0 130.5 51.5t67.5 163.5l65 417h79l-64 -408q-18 -112 -55.5 -177
t-109.5 -97q-36 -16 -56.5 -47.5t-20.5 -62.5q0 -37 38 -37q19 0 43 4z" />
    <glyph glyph-name="uogonek" unicode="&#x173;" horiz-adv-x="527" 
d="M453 -143l-10 -61q-30 -7 -51 -7q-43 0 -66.5 22.5t-23.5 59.5q0 33 21 67.5t58 61.5q-5 33 -5 66h-3q-60 -83 -155 -83q-61 0 -107 42t-46 124q0 26 4 52l45 281h75l-44 -277q-4 -30 -4 -47q0 -49 23 -78.5t71 -29.5q65 0 104 50.5t50 122.5l41 259h75l-35 -222
q-20 -126 -20 -185q0 -37 6 -75q-84 -48 -84 -110q0 -37 38 -37q19 0 43 4z" />
    <glyph glyph-name="Wcircumflex" unicode="&#x174;" horiz-adv-x="800" 
d="M504 0l-32 432q-3 33 -3 147h-4q-30 -97 -49 -143l-175 -436h-80l-63 682h76l36 -441q7 -79 7 -134h4q29 92 50 143l173 432h78l32 -440q5 -70 5 -134h4q19 58 50 133l179 441h76l-278 -682h-86zM507 879l140 -100l-28 -44l-120 69l-144 -69l-21 46z" />
    <glyph glyph-name="wcircumflex" unicode="&#x175;" horiz-adv-x="659" 
d="M390 0l-26 267q-6 62 -6 130h-2q-27 -98 -40 -128l-110 -269h-94l-43 482h73l23 -294q6 -72 6 -117h2q15 54 36 106l121 305h79l29 -272q6 -52 6 -139h2q7 27 37 106l120 305h79l-199 -482h-93zM400 718l123 -115l-39 -44l-92 75l-119 -75l-32 49z" />
    <glyph glyph-name="Ycircumflex" unicode="&#x176;" horiz-adv-x="511" 
d="M183 0l45 279l-141 403h79l86 -250q19 -57 25 -81q10 20 46 76l164 255h86l-267 -402l-45 -280h-78zM354 879l140 -100l-28 -44l-120 69l-144 -69l-21 46z" />
    <glyph glyph-name="ycircumflex" unicode="&#x177;" horiz-adv-x="444" 
d="M474 482l-369 -719h-78l125 243l-108 476h77l61 -283q14 -68 18 -103h2l190 386h82zM280 718l123 -115l-39 -44l-92 75l-119 -75l-32 49z" />
    <glyph glyph-name="Ydieresis" unicode="&#x178;" horiz-adv-x="511" 
d="M183 0l45 279l-141 403h79l86 -250q19 -57 25 -81q10 20 46 76l164 255h86l-267 -402l-45 -280h-78zM218 780l13 81h79l-13 -81h-79zM399 780l13 81h79l-13 -81h-79z" />
    <glyph glyph-name="Zacute" unicode="&#x179;" horiz-adv-x="577" 
d="M125 610l12 72h466l-11 -69l-469 -541h399l-12 -72h-498l11 68l471 542h-369zM484 883l26 -60l-201 -86l-20 49z" />
    <glyph glyph-name="zacute" unicode="&#x17a;" horiz-adv-x="488" 
d="M101 419l10 63h362l-9 -60l-332 -358h289l-10 -64h-386l9 61l333 358h-266zM226 599l151 150l48 -54l-161 -137z" />
    <glyph glyph-name="Zdotaccent" unicode="&#x17b;" horiz-adv-x="577" 
d="M125 610l12 72h466l-11 -69l-469 -541h399l-12 -72h-498l11 68l471 542h-369zM335 784l13 80h81l-13 -80h-81z" />
    <glyph glyph-name="zdotaccent" unicode="&#x17c;" horiz-adv-x="488" 
d="M101 419l10 63h362l-9 -60l-332 -358h289l-10 -64h-386l9 61l333 358h-266zM263 605l13 82h83l-13 -82h-83z" />
    <glyph glyph-name="Zcaron" unicode="&#x17d;" horiz-adv-x="577" 
d="M125 610l12 72h466l-11 -69l-469 -541h399l-12 -72h-498l11 68l471 542h-369zM362 735l-140 100l28 44l119 -69l145 69l21 -46z" />
    <glyph glyph-name="zcaron" unicode="&#x17e;" horiz-adv-x="488" 
d="M106 419l10 63h362l-9 -60l-332 -358h289l-10 -64h-386l9 61l333 358h-266zM308 559l-123 115l39 44l92 -75l119 75l32 -49z" />
    <glyph glyph-name="longs" unicode="&#x17f;" horiz-adv-x="249" 
d="M53 -13l91 580q13 84 53.5 126.5t118.5 42.5q28 0 58 -8l-10 -62q-24 6 -47 6q-41 0 -64.5 -23.5t-32.5 -82.5l-93 -588q-18 -114 -63 -164t-124 -50q-33 0 -58 9l10 62q23 -7 48 -7q43 0 71 34t42 125z" />
    <glyph glyph-name="florin" unicode="&#x192;" horiz-adv-x="550" 
d="M131 -101l135 520h-84l11 63h90l17 70q20 83 62.5 117.5t109.5 34.5q26 0 52 -6l-10 -63q-23 5 -42 5q-39 0 -60.5 -21t-32.5 -63l-20 -74h90l-10 -63h-97l-135 -518q-22 -85 -63.5 -121.5t-108.5 -36.5q-28 0 -52 6l8 64q23 -5 46 -5q69 0 94 91z" />
    <glyph glyph-name="Scommaaccent" unicode="&#x218;" horiz-adv-x="524" 
d="M514 538h-81q-6 42 -39.5 70t-80.5 28q-56 0 -88 -31.5t-32 -76.5q0 -39 25.5 -69t91.5 -54q90 -33 130.5 -84.5t40.5 -130.5q0 -92 -64.5 -151.5t-164.5 -59.5q-97 0 -156 52.5t-69 143.5h83q21 -128 146 -128q63 0 104 39.5t41 103.5q0 54 -28 88t-102 61
q-158 57 -158 182q0 84 57 133.5t145 49.5q83 0 138.5 -47t60.5 -119zM196 -145l12 77h85l-11 -61q-10 -55 -38 -85h-49q26 29 33 69h-32z" />
    <glyph glyph-name="scommaaccent" unicode="&#x219;" horiz-adv-x="408" 
d="M391 372h-77q-16 60 -82 60q-35 0 -56.5 -18.5t-21.5 -45.5q0 -47 74 -79q70 -31 99 -68t29 -91q0 -63 -46.5 -105t-123.5 -42q-65 0 -112 35t-55 103h78q4 -33 29.5 -53.5t62.5 -20.5q42 0 67.5 22.5t25.5 57.5q0 32 -17.5 54.5t-68.5 44.5q-116 51 -116 139
q0 55 42.5 92.5t115.5 37.5q58 0 99 -31.5t54 -91.5zM129 -145l12 77h85l-11 -61q-10 -55 -38 -85h-49q26 29 33 69h-32z" />
    <glyph glyph-name="uni021A" unicode="&#x21a;" horiz-adv-x="495" 
d="M178 0l97 610h-172l12 72h424l-12 -72h-173l-97 -610h-79zM154 -145l12 77h85l-11 -61q-10 -55 -38 -85h-49q26 29 33 69h-32z" />
    <glyph glyph-name="uni021B" unicode="&#x21b;" horiz-adv-x="308" 
d="M53 419l10 63h66l24 151h75l-24 -151h124l-10 -63h-124l-36 -226q-7 -40 -7 -72q0 -33 14.5 -48t50.5 -15q28 0 54 6l-12 -64q-26 -6 -58 -6q-123 0 -123 127q0 35 8 83l34 215h-66zM129 -145l12 77h85l-11 -61q-10 -55 -38 -85h-49q26 29 33 69h-32z" />
    <glyph glyph-name="dotlessj" unicode="&#x237;" horiz-adv-x="215" 
d="M193 482l-86 -544q-16 -102 -57.5 -146t-118.5 -44q-46 0 -85 13l12 66q38 -12 73 -12q42 0 66 28t34 93l87 546h75z" />
    <glyph glyph-name="circumflex" unicode="&#x2c6;" horiz-adv-x="316" 
d="M232 718l123 -115l-39 -44l-92 75l-119 -75l-32 49z" />
    <glyph glyph-name="caron" unicode="&#x2c7;" horiz-adv-x="316" 
d="M211 559l-123 115l39 44l92 -75l119 75l32 -49z" />
    <glyph glyph-name="uni02C9" unicode="&#x2c9;" horiz-adv-x="328" 
d="M361 608h-288l9 56h288z" />
    <glyph glyph-name="breve" unicode="&#x2d8;" horiz-adv-x="316" 
d="M317 717h60q-14 -64 -58.5 -103t-105.5 -39q-60 0 -95 36.5t-35 105.5h58q0 -38 20 -61t56 -23q37 0 65 25.5t35 58.5z" />
    <glyph glyph-name="dotaccent" unicode="&#x2d9;" horiz-adv-x="316" 
d="M176 605l13 82h83l-13 -82h-83z" />
    <glyph glyph-name="ring" unicode="&#x2da;" horiz-adv-x="316" 
d="M102 661q0 49 34.5 83.5t83.5 34.5t83.5 -34.5t34.5 -83.5t-34.5 -83.5t-83.5 -34.5t-83.5 34.5t-34.5 83.5zM155 661q0 -27 19 -46t46 -19t46 19t19 46t-19 46t-46 19t-46 -19t-19 -46z" />
    <glyph glyph-name="ogonek" unicode="&#x2db;" horiz-adv-x="316" 
d="M204 -143l-10 -61q-30 -7 -51 -7q-43 0 -66.5 22.5t-23.5 59.5q0 34 23 68.5t67 60.5h57q-77 -51 -77 -110q0 -37 38 -37q19 0 43 4z" />
    <glyph glyph-name="tilde" unicode="&#x2dc;" horiz-adv-x="316" 
d="M114 596h-59q9 56 37.5 84.5t68.5 28.5q38 0 74 -33q34 -31 52 -31q37 0 46 57h59q-17 -113 -109 -113q-40 0 -74 33q-31 31 -51 31q-33 0 -44 -57z" />
    <glyph glyph-name="hungarumlaut" unicode="&#x2dd;" horiz-adv-x="316" 
d="M219 751l56 -44l-136 -149l-38 29zM365 751l55 -44l-135 -149l-38 29z" />
    <glyph glyph-name="uni0394" unicode="&#x394;" horiz-adv-x="611" 
d="M-19 0l376 682h69l151 -682h-596zM482 70l-84 420q-1 5 -18 104h-2q-35 -70 -53 -104l-219 -420h376z" />
    <glyph glyph-name="uni03A9" unicode="&#x3a9;" horiz-adv-x="729" 
d="M46 72h186l2 11q-78 34 -122.5 101.5t-44.5 154.5q0 68 22.5 132t64.5 117t111 84.5t155 31.5q136 0 219.5 -87.5t83.5 -213.5q0 -108 -57.5 -193t-157.5 -127l-2 -11h186l-12 -72h-258l19 118q92 25 146 106.5t54 177.5q0 97 -63 163.5t-168 66.5q-124 0 -192.5 -87
t-68.5 -205q0 -79 43.5 -140t118.5 -82l-19 -118h-258z" />
    <glyph glyph-name="uni03BC" unicode="&#x3bc;" horiz-adv-x="559" 
d="M388 73h-2q-59 -89 -159 -89q-79 0 -109 67l-3 -1q0 -47 -11 -122l-21 -141h-75l109 693h75l-43 -268q-4 -24 -4 -52q0 -109 97 -109q62 0 103.5 48t55.5 133l40 248h75l-50 -314q-8 -43 -8 -70q0 -36 30 -36q8 0 18 2l-10 -65q-9 -3 -28 -3q-77 0 -80 79z" />
    <glyph glyph-name="pi" unicode="&#x3c0;" horiz-adv-x="597" 
d="M531 66l-10 -64q-24 -9 -58 -9q-91 0 -91 100q0 20 3 35l46 289h-187l-46 -288q-12 -79 -34 -129h-75q21 48 34 130l46 287q-30 0 -68 -8.5t-61 -22.5l10 68q52 28 138 28h444l-10 -65h-116l-46 -282q-3 -24 -3 -32q0 -23 10 -33t33 -10q21 0 41 6z" />
    <glyph glyph-name="uni0400" unicode="&#x400;" horiz-adv-x="502" 
d="M512 682l-12 -72h-281l-35 -221h271l-11 -72h-271l-39 -245h292l-12 -72h-370l109 682h359zM237 817l28 62l160 -92l-23 -50z" />
    <glyph glyph-name="afii10023" unicode="&#x401;" horiz-adv-x="502" 
d="M512 682l-12 -72h-281l-35 -221h271l-11 -72h-271l-39 -245h292l-12 -72h-370l109 682h359zM216 780l13 81h79l-13 -81h-79zM397 780l13 81h79l-13 -81h-79z" />
    <glyph glyph-name="afii10051" unicode="&#x402;" horiz-adv-x="639" 
d="M335 610l-33 -203h1q58 72 144 72q78 0 124 -43t46 -119q0 -27 -7 -72l-43 -283q-15 -95 -57 -139t-129 -44q-38 0 -71 12l10 69q33 -11 64 -11q49 0 73 27.5t33 89.5l40 269q7 42 7 66q0 106 -97 106q-70 0 -113 -50.5t-54 -125.5l-35 -231h-79l97 610h-153l12 72h385
l-12 -72h-153z" />
    <glyph glyph-name="afii10052" unicode="&#x403;" horiz-adv-x="478" 
d="M43 0l109 682h370l-12 -72h-292l-97 -610h-78zM440 883l26 -60l-201 -86l-20 49z" />
    <glyph glyph-name="afii10053" unicode="&#x404;" horiz-adv-x="728" 
d="M425 704q109 0 186.5 -57t101.5 -137h-88q-20 51 -74 87.5t-128 36.5q-101 0 -175.5 -67.5t-96.5 -167.5h359l-11 -72h-358q-1 -8 -1 -24q0 -117 74 -186t174 -69q81 0 137 38.5t84 98.5h88q-37 -95 -119.5 -151t-183.5 -56q-152 0 -244 95t-92 233q0 173 106 285.5
t261 112.5z" />
    <glyph glyph-name="afii10054" unicode="&#x405;" horiz-adv-x="524" 
d="M514 538h-81q-6 42 -39.5 70t-80.5 28q-56 0 -88 -31.5t-32 -76.5q0 -39 25.5 -69t91.5 -54q90 -33 130.5 -84.5t40.5 -130.5q0 -92 -64.5 -151.5t-164.5 -59.5q-97 0 -156 52.5t-69 143.5h83q21 -128 146 -128q63 0 104 39.5t41 103.5q0 54 -28 88t-102 61
q-158 57 -158 182q0 84 57 133.5t145 49.5q83 0 138.5 -47t60.5 -119z" />
    <glyph glyph-name="afii10055" unicode="&#x406;" horiz-adv-x="222" 
d="M44 0l109 682h79l-109 -682h-79z" />
    <glyph glyph-name="afii10056" unicode="&#x407;" horiz-adv-x="222" 
d="M44 0l109 682h79l-109 -682h-79zM70 780l13 81h79l-13 -81h-79zM251 780l13 81h79l-13 -81h-79z" />
    <glyph glyph-name="afii10057" unicode="&#x408;" horiz-adv-x="337" 
d="M88 47q49 0 73 27.5t33 89.5l81 518h77l-82 -522q-15 -95 -56.5 -139t-128.5 -44q-56 0 -97 24l11 68q41 -22 89 -22z" />
    <glyph glyph-name="afii10058" unicode="&#x409;" horiz-adv-x="863" 
d="M243 682h341l-48 -293h97q103 0 152 -46.5t49 -125.5q0 -95 -65 -156t-176 -61h-198l98 610h-189l-119 -454q-22 -85 -60 -123.5t-104 -38.5q-24 0 -48 6l11 69q23 -5 36 -5q33 0 52 20t34 75zM485 72h116q73 0 112 39.5t39 99.5q0 106 -126 106h-102z" />
    <glyph glyph-name="afii10059" unicode="&#x40a;" horiz-adv-x="898" 
d="M539 682h79l-47 -293h97q103 0 152 -46.5t49 -125.5q0 -95 -65 -156t-176 -61h-198l50 317h-307l-51 -317h-79l109 682h79l-47 -293h308zM520 72h116q73 0 112 39.5t39 99.5q0 106 -126 106h-102z" />
    <glyph glyph-name="afii10060" unicode="&#x40b;" horiz-adv-x="639" 
d="M335 610l-33 -203h1q58 72 144 72q78 0 124 -43t46 -119q0 -27 -7 -72l-36 -245h-79l35 235q7 42 7 66q0 106 -97 106q-70 0 -113 -50.5t-54 -125.5l-35 -231h-79l97 610h-153l12 72h385l-12 -72h-153z" />
    <glyph glyph-name="afii10061" unicode="&#x40c;" horiz-adv-x="574" 
d="M460 0l-206 340l-91 -82l-41 -258h-79l109 682h79l-50 -316l344 316h105l-320 -293l245 -389h-95zM520 883l26 -60l-201 -86l-20 49z" />
    <glyph glyph-name="uni040D" unicode="&#x40d;" horiz-adv-x="644" 
d="M558 551h-2q-32 -43 -181 -229l-260 -322h-72l108 682h79l-64 -400q-21 -123 -25 -145h2q35 48 178 224l261 321h72l-107 -682h-79l63 402q9 53 27 149zM313 817l28 62l160 -92l-23 -50z" />
    <glyph glyph-name="afii10062" unicode="&#x40e;" horiz-adv-x="579" 
d="M280 193l-175 489h79l115 -335q18 -54 26 -86q15 29 48 85l199 336h83l-367 -603q-51 -85 -148 -85q-33 0 -58 9l12 68q23 -7 48 -7q57 0 91 54zM498 882h56q-15 -61 -59.5 -93t-109.5 -32q-66 0 -99 32.5t-33 92.5h55q0 -68 81 -68q39 0 69.5 18t39.5 50z" />
    <glyph glyph-name="afii10145" unicode="&#x40f;" horiz-adv-x="662" 
d="M263 0h-220l109 682h79l-97 -610h362l97 610h79l-109 -682h-221l-27 -175h-80z" />
    <glyph glyph-name="afii10017" unicode="&#x410;" horiz-adv-x="611" 
d="M-19 0l376 682h69l151 -682h-81l-37 185h-292l-98 -185h-88zM445 255l-47 235q-1 5 -18 104h-2q-8 -17 -26 -52t-27 -52l-122 -235h242z" />
    <glyph glyph-name="afii10018" unicode="&#x411;" horiz-adv-x="511" 
d="M133 72h116q73 0 112 40.5t39 104.5q0 49 -33 74.5t-93 25.5h-102zM152 682h320l-12 -72h-241l-35 -221h97q102 0 151.5 -48t49.5 -124q0 -95 -65 -156t-176 -61h-198z" />
    <glyph glyph-name="afii10019" unicode="&#x412;" horiz-adv-x="519" 
d="M44 0l109 682h129q102 0 153.5 -42.5t51.5 -110.5q0 -61 -35 -105t-97 -61v-4q64 -12 96 -50.5t32 -91.5q0 -95 -65 -156t-176 -61h-198zM133 72h115q73 0 113 40.5t40 104.5q0 52 -36 76t-91 24h-101zM184 389h67q65 0 109.5 36t44.5 97q0 47 -35 67.5t-85 20.5h-66z
" />
    <glyph glyph-name="afii10020" unicode="&#x413;" horiz-adv-x="478" 
d="M43 0l109 682h370l-12 -72h-292l-97 -610h-78z" />
    <glyph glyph-name="afii10021" unicode="&#x414;" horiz-adv-x="684" 
d="M553 0h-477l-27 -175h-79l38 247h3q110 0 168 222l100 388h383l-98 -610h80l-39 -247h-80zM152 72h332l87 538h-234l-80 -316q-44 -171 -105 -222z" />
    <glyph glyph-name="afii10022" unicode="&#x415;" horiz-adv-x="502" 
d="M512 682l-12 -72h-281l-35 -221h271l-11 -72h-271l-39 -245h292l-12 -72h-370l109 682h359z" />
    <glyph glyph-name="afii10024" unicode="&#x416;" horiz-adv-x="827" 
d="M356 0l56 349l-322 -349h-101l340 365l-221 317h91l216 -312l50 312h79l-50 -312l291 312h98l-308 -326l226 -356h-90l-220 349l-56 -349h-79z" />
    <glyph glyph-name="afii10025" unicode="&#x417;" horiz-adv-x="530" 
d="M195 537h-80q11 70 63.5 119.5t141.5 49.5q87 0 137 -46t50 -123q0 -62 -39 -106.5t-110 -58.5v-4q60 -14 90.5 -57.5t30.5 -103.5q0 -99 -67.5 -163.5t-174.5 -64.5q-84 0 -142.5 48t-58.5 129v7h81v-6q0 -51 35.5 -78.5t89.5 -27.5q67 0 111 42t44 108q0 68 -39.5 99.5
t-106.5 31.5h-42l11 72h40q79 0 122 38t43 93q0 49 -29 74t-82 25q-43 0 -76 -25t-43 -72z" />
    <glyph glyph-name="afii10026" unicode="&#x418;" horiz-adv-x="644" 
d="M558 551h-2q-32 -43 -181 -229l-260 -322h-72l108 682h79l-64 -400q-21 -123 -25 -145h2q35 48 178 224l261 321h72l-107 -682h-79l63 402q9 53 27 149z" />
    <glyph glyph-name="afii10027" unicode="&#x419;" horiz-adv-x="644" 
d="M558 551h-2q-32 -43 -181 -229l-260 -322h-72l108 682h79l-64 -400q-21 -123 -25 -145h2q35 48 178 224l261 321h72l-107 -682h-79l63 402q9 53 27 149zM518 882h56q-15 -61 -59.5 -93t-109.5 -32q-66 0 -99 32.5t-33 92.5h55q0 -68 81 -68q39 0 69.5 18t39.5 50z" />
    <glyph glyph-name="afii10028" unicode="&#x41a;" horiz-adv-x="544" 
d="M430 0l-249 362q-18 -105 -59 -362h-79l109 682h79l-48 -306l312 306h105l-334 -318l259 -364h-95z" />
    <glyph glyph-name="afii10029" unicode="&#x41b;" horiz-adv-x="651" 
d="M-29 0l11 69q23 -5 36 -5q34 0 54.5 21t34.5 76l134 521h420l-109 -682h-79l97 610h-268l-115 -453q-21 -85 -61 -124t-107 -39q-24 0 -48 6z" />
    <glyph glyph-name="afii10030" unicode="&#x41c;" horiz-adv-x="785" 
d="M751 682l-33 -682h-77l24 391q4 68 14 190l-3 1q-17 -35 -47.5 -100t-38.5 -83l-191 -399h-68l-63 409q-21 130 -25 173h-6q-26 -110 -40 -165l-107 -417h-79l186 682h96l72 -438q12 -70 17 -126h4q40 92 56 126l213 438h96z" />
    <glyph glyph-name="afii10031" unicode="&#x41d;" horiz-adv-x="662" 
d="M484 0l51 317h-362l-51 -317h-79l109 682h79l-47 -293h362l47 293h79l-109 -682h-79z" />
    <glyph glyph-name="afii10032" unicode="&#x41e;" horiz-adv-x="767" 
d="M395 50q137 0 212.5 97t75.5 229q0 107 -67.5 181.5t-175.5 74.5q-74 0 -132 -28t-93.5 -75t-53.5 -104t-18 -119q0 -108 69 -182t183 -74zM397 -22q-153 0 -244.5 95t-91.5 233q0 75 24 144.5t69 127t119.5 92t166.5 34.5q145 0 235 -95t90 -233q0 -74 -23.5 -144
t-68 -127.5t-116.5 -92t-160 -34.5z" />
    <glyph glyph-name="afii10033" unicode="&#x41f;" horiz-adv-x="662" 
d="M484 0l97 610h-362l-97 -610h-79l109 682h520l-109 -682h-79z" />
    <glyph glyph-name="afii10034" unicode="&#x420;" horiz-adv-x="538" 
d="M175 333h114q84 0 132.5 43t48.5 125q0 57 -37 83t-97 26h-117zM44 0l109 682h187q92 0 152 -43.5t60 -139.5q0 -112 -74.5 -174.5t-206.5 -62.5h-107l-42 -262h-78z" />
    <glyph glyph-name="afii10035" unicode="&#x421;" horiz-adv-x="734" 
d="M446 704q108 0 185 -51.5t98 -142.5h-88q-16 58 -69.5 91t-128.5 33q-98 0 -168.5 -47.5t-102.5 -121t-32 -162.5q0 -112 67.5 -183.5t171.5 -71.5q81 0 137 38.5t84 98.5h88q-37 -95 -120.5 -151t-189.5 -56q-147 0 -233.5 92.5t-86.5 229.5q0 111 46.5 202.5t136 146.5
t205.5 55z" />
    <glyph glyph-name="afii10036" unicode="&#x422;" horiz-adv-x="495" 
d="M178 0l97 610h-172l12 72h424l-12 -72h-173l-97 -610h-79z" />
    <glyph glyph-name="afii10037" unicode="&#x423;" horiz-adv-x="579" 
d="M280 193l-175 489h79l115 -335q18 -54 26 -86q15 29 48 85l199 336h83l-367 -603q-51 -85 -148 -85q-33 0 -58 9l12 68q23 -7 48 -7q57 0 91 54z" />
    <glyph glyph-name="afii10038" unicode="&#x424;" horiz-adv-x="689" 
d="M605 378q0 67 -41.5 115t-117.5 53l-65 -405q100 1 162 71t62 166zM278 -10l12 80q-102 7 -165.5 74t-63.5 163q0 128 88 219.5t229 92.5l12 72h79l-12 -73q103 -7 166.5 -74t63.5 -163q0 -129 -88.5 -220t-229.5 -92l-12 -79h-79zM143 310q0 -67 41 -115t118 -54l65 406
q-100 -1 -162 -71t-62 -166z" />
    <glyph glyph-name="afii10039" unicode="&#x425;" horiz-adv-x="542" 
d="M186 682l87 -188q19 -42 35 -87q31 47 59 83l146 192h90l-260 -329q27 -59 80.5 -176.5t80.5 -176.5h-84l-101 230q-19 44 -28 68q-8 -10 -26 -36t-28 -39l-162 -223h-91l272 356l-156 326h86z" />
    <glyph glyph-name="afii10040" unicode="&#x426;" horiz-adv-x="694" 
d="M562 0h-519l109 682h79l-99 -610h362l99 610h79l-98 -610h79l-39 -247h-80z" />
    <glyph glyph-name="afii10041" unicode="&#x427;" horiz-adv-x="562" 
d="M572 682l-108 -682h-79l49 315h-1q-67 -72 -163 -72q-78 0 -126 45.5t-48 121.5q0 28 6 67l31 205h79l-30 -195q-7 -42 -7 -66q0 -106 107 -106q44 0 79 18t55.5 49t32.5 62.5t17 66.5l27 171h79z" />
    <glyph glyph-name="afii10042" unicode="&#x428;" horiz-adv-x="851" 
d="M43 0l108 682h79l-97 -610h236l97 610h79l-97 -610h237l97 610h79l-108 -682h-710z" />
    <glyph glyph-name="afii10043" unicode="&#x429;" horiz-adv-x="883" 
d="M751 0h-709l108 682h79l-97 -610h236l97 610h79l-97 -610h237l97 610h79l-97 -610h79l-39 -247h-80z" />
    <glyph glyph-name="afii10044" unicode="&#x42a;" horiz-adv-x="646" 
d="M268 72h116q73 0 112 39.5t39 99.5q0 106 -126 106h-102zM366 682l-47 -293h97q103 0 152 -46.5t49 -125.5q0 -95 -65 -156t-176 -61h-198l97 610h-172l12 72h251z" />
    <glyph glyph-name="afii10045" unicode="&#x42b;" horiz-adv-x="718" 
d="M133 72h116q73 0 112 39.5t39 99.5q0 106 -126 106h-102zM152 682h79l-47 -293h97q103 0 152 -46.5t49 -125.5q0 -95 -65 -156t-176 -61h-198zM540 0l109 682h79l-109 -682h-79z" />
    <glyph glyph-name="afii10046" unicode="&#x42c;" horiz-adv-x="511" 
d="M133 72h116q73 0 112 39.5t39 99.5q0 106 -126 106h-102zM152 682h79l-47 -293h97q103 0 152 -46.5t49 -125.5q0 -95 -65 -156t-176 -61h-198z" />
    <glyph glyph-name="afii10047" unicode="&#x42d;" horiz-adv-x="721" 
d="M285 327l11 72h342q-5 105 -72.5 170t-173.5 65q-150 0 -218 -124h-88q38 89 119 141.5t187 52.5q150 0 238.5 -93.5t88.5 -234.5q0 -173 -99 -285.5t-260 -112.5q-108 0 -191 55t-109 152h88q21 -63 78.5 -100t134.5 -37q120 0 191 81t85 198h-352z" />
    <glyph glyph-name="afii10048" unicode="&#x42e;" horiz-adv-x="947" 
d="M587 -22q-153 0 -239.5 97.5t-86.5 241.5h-88l-51 -317h-79l109 682h79l-47 -293h84q24 134 117 224.5t244 90.5q141 0 228.5 -95t87.5 -233q0 -74 -23 -144t-66 -127.5t-113 -92t-156 -34.5zM585 50q90 0 155 49t94 121t29 156q0 107 -65 181.5t-170 74.5
q-71 0 -127 -28t-89.5 -75t-51 -104t-17.5 -119q0 -108 66 -182t176 -74z" />
    <glyph glyph-name="afii10049" unicode="&#x42f;" horiz-adv-x="548" 
d="M449 0h-79l46 287h-97l-226 -287h-95l238 296q-62 17 -93 60.5t-31 105.5q0 95 66.5 157.5t177.5 62.5h202zM468 610h-120q-73 0 -113.5 -41t-40.5 -101q0 -109 128 -109h106z" />
    <glyph glyph-name="afii10065" unicode="&#x430;" horiz-adv-x="598" 
d="M576 482l-35 -222q-20 -126 -20 -185q0 -37 6 -75h-75q-6 38 -6 65h-4q-62 -82 -178 -82q-93 0 -153.5 59t-60.5 163q0 122 76 206t193 84q51 0 96.5 -23.5t71.5 -63.5h1l13 74h75zM323 430q-85 0 -140 -64t-55 -164q0 -69 39.5 -111t105.5 -42q94 0 146.5 67.5
t52.5 158.5q0 70 -40.5 112.5t-108.5 42.5z" />
    <glyph glyph-name="afii10066" unicode="&#x431;" horiz-adv-x="574" 
d="M282 -17q-101 0 -161 64.5t-60 176.5t26.5 199.5t73 141.5t104 83.5t124.5 34.5q83 7 141 41l22 -64q-50 -32 -174 -48q-82 -10 -145 -66t-82 -148h2q76 97 187 97q87 0 146.5 -66t59.5 -162q0 -108 -71.5 -196t-192.5 -88zM327 428q-79 0 -133.5 -60.5t-54.5 -155.5
q0 -74 39.5 -118t108.5 -44q74 0 128 62.5t54 153.5q0 72 -39.5 117t-102.5 45z" />
    <glyph glyph-name="afii10067" unicode="&#x432;" horiz-adv-x="486" 
d="M250 -18q-85 0 -137.5 55t-52.5 152q0 48 14 99t41 98.5t76 78t110 30.5q75 0 115 -35t40 -93q0 -42 -26.5 -71.5t-71.5 -42.5q80 -25 80 -111q0 -76 -54 -118t-134 -42zM279 217h-143q0 -3 -0.5 -11t-0.5 -11q0 -74 31.5 -111t88.5 -37q47 0 77.5 25t30.5 68
q0 35 -22 56t-62 21zM296 430q-55 0 -94 -45t-56 -103h123q55 0 83.5 20t28.5 56q0 33 -22 52.5t-63 19.5z" />
    <glyph glyph-name="afii10068" unicode="&#x433;" horiz-adv-x="374" 
d="M348 385q0 -55 -30 -93t-109 -77q-60 -30 -81.5 -52.5t-21.5 -51.5q0 -27 19.5 -43.5t52.5 -16.5q67 0 84 64h75q-12 -58 -55 -94.5t-107 -36.5q-70 0 -107 34t-37 90q0 100 129 161q68 32 90.5 56.5t22.5 54.5q0 21 -13.5 34.5t-36.5 13.5q-47 0 -60 -47h-73q7 50 45 82
t91 32q55 0 88.5 -31t33.5 -79z" />
    <glyph glyph-name="afii10069" unicode="&#x434;" horiz-adv-x="578" 
d="M50 216q0 125 74.5 202t174.5 77q70 0 115 -31.5t66 -74.5q1 5 1 31q0 108 -48.5 174.5t-145.5 66.5q-50 0 -86 -10l10 64q30 10 81 10q120 0 189 -79.5t69 -227.5q0 -213 -75.5 -324t-203.5 -111q-95 0 -158 63t-63 170zM304 428q-77 0 -127 -59t-50 -157q0 -78 42 -120
t105 -42q76 0 128.5 64t52.5 153q0 74 -42 117.5t-109 43.5z" />
    <glyph glyph-name="afii10070" unicode="&#x435;" horiz-adv-x="545" 
d="M317 495q81 0 140 -52.5t59 -152.5q0 -40 -8 -71h-381q-2 -16 -2 -25q0 -62 37.5 -103.5t100.5 -41.5q100 0 135 59h85q-63 -125 -226 -125q-94 0 -150 60.5t-56 158.5q0 120 75 206.5t191 86.5zM313 430q-64 0 -111 -40.5t-64 -108.5h303q0 3 0.5 7t0.5 6q0 61 -34 98.5
t-95 37.5z" />
    <glyph glyph-name="afii10072" unicode="&#x436;" horiz-adv-x="803" 
d="M-1 2l11 70q33 -22 74 -22q52 0 89.5 38.5t53 89t15.5 101.5q0 64 -31.5 106.5t-82.5 42.5q-32 0 -56 -8l11 69q25 6 50 6q81 0 131 -56.5t53 -156.5h70l32 200h75l-32 -200h64q18 93 79 153t145 60q42 0 77 -16l-11 -70q-28 19 -74 19q-64 0 -106 -68.5t-42 -157.5
q0 -66 31.5 -109t83.5 -43q32 0 56 8l-11 -69q-26 -6 -50 -6q-86 0 -135.5 62t-49.5 172h-67l-34 -217h-75l34 217h-67q-5 -36 -19 -73.5t-39 -75t-68 -61.5t-97 -24q-42 0 -88 19z" />
    <glyph glyph-name="afii10073" unicode="&#x437;" horiz-adv-x="433" 
d="M235 428q-76 0 -97 -51h-78q16 55 64 86.5t116 31.5q79 0 121 -35t42 -93q0 -43 -24.5 -72.5t-68.5 -41.5q83 -26 83 -111q0 -79 -56.5 -119.5t-135.5 -40.5q-70 0 -120.5 31.5t-64.5 92.5h79q20 -57 109 -57q47 0 80.5 24.5t33.5 71.5q0 72 -106 72h-58l9 65h59
q49 0 77.5 19.5t28.5 56.5q0 33 -24 51.5t-69 18.5z" />
    <glyph glyph-name="afii10074" unicode="&#x438;" horiz-adv-x="527" 
d="M505 482l-35 -222q-20 -126 -20 -185q0 -37 6 -75h-75q-5 33 -5 66h-3q-60 -83 -155 -83q-61 0 -107 42t-46 124q0 26 4 52l45 281h75l-44 -277q-4 -30 -4 -47q0 -49 23 -78.5t71 -29.5q65 0 104 50.5t50 122.5l41 259h75z" />
    <glyph glyph-name="afii10075" unicode="&#x439;" horiz-adv-x="527" 
d="M505 482l-35 -222q-20 -126 -20 -185q0 -37 6 -75h-75q-5 33 -5 66h-3q-60 -83 -155 -83q-61 0 -107 42t-46 124q0 26 4 52l45 281h75l-44 -277q-4 -30 -4 -47q0 -49 23 -78.5t71 -29.5q65 0 104 50.5t50 122.5l41 259h75zM422 717h60q-14 -64 -58.5 -103t-105.5 -39
q-60 0 -95 36.5t-35 105.5h58q0 -38 20 -61t56 -23q37 0 65 25.5t35 58.5z" />
    <glyph glyph-name="afii10076" unicode="&#x43a;" horiz-adv-x="456" 
d="M192 482l-34 -211l222 211h98l-239 -221l181 -261h-87l-177 258l-40 -258h-75l76 482h75z" />
    <glyph glyph-name="afii10077" unicode="&#x43b;" horiz-adv-x="528" 
d="M250 417l-81 -283q-22 -75 -52.5 -107.5t-80.5 -32.5q-28 0 -46 6l12 63q9 -4 24 -4q46 0 72 90l96 333h312l-76 -482h-75l66 417h-171z" />
    <glyph glyph-name="afii10078" unicode="&#x43c;" horiz-adv-x="620" 
d="M569 482l13 -482h-73l-5 267q-1 35 -1 106h-3q-28 -66 -48 -106l-136 -267h-53l-58 273q-14 66 -18 100h-3q-10 -46 -27 -99l-87 -274h-74l157 482h74l61 -287q5 -22 9.5 -48.5t5.5 -32.5h3q13 32 37 81l149 287h77z" />
    <glyph glyph-name="afii10079" unicode="&#x43d;" horiz-adv-x="542" 
d="M520 482l-76 -482h-75l34 217h-253l-34 -217h-75l76 482h75l-32 -200h253l32 200h75z" />
    <glyph glyph-name="afii10080" unicode="&#x43e;" horiz-adv-x="580" 
d="M50 209q0 71 29.5 134.5t95 107.5t154.5 44q99 0 160.5 -65.5t61.5 -162.5q0 -114 -75.5 -199t-204.5 -85q-98 0 -159.5 64t-61.5 162zM320 428q-81 0 -137 -60.5t-56 -155.5q0 -74 41 -118t113 -44q84 0 138.5 62t54.5 154q0 72 -40 117t-114 45z" />
    <glyph glyph-name="afii10081" unicode="&#x43f;" horiz-adv-x="537" 
d="M41 0l77 482h75l-9 -59h1q56 72 144 72q77 0 121.5 -45t44.5 -117q0 -24 -4 -54l-43 -279h-75l42 271q5 35 5 51q0 47 -26.5 76.5t-73.5 29.5q-65 0 -108.5 -48t-55.5 -128l-40 -252h-75z" />
    <glyph glyph-name="afii10082" unicode="&#x440;" horiz-adv-x="597" 
d="M5 -237l113 719h75l-10 -66h1q28 35 74 57t102 22q94 0 151 -60.5t57 -155.5q0 -125 -76.5 -210.5t-193.5 -85.5q-116 0 -168 83h-1l-49 -303h-75zM300 49q84 0 137.5 66.5t53.5 161.5q0 68 -38.5 110.5t-106.5 42.5q-86 0 -140.5 -70.5t-54.5 -162.5q0 -63 38.5 -105.5
t110.5 -42.5z" />
    <glyph glyph-name="afii10083" unicode="&#x441;" horiz-adv-x="530" 
d="M324 495q80 0 133 -41t66 -110h-82q-7 37 -38 61t-80 24q-92 0 -143.5 -67t-51.5 -160q0 -66 38.5 -109.5t103.5 -43.5q94 0 140 80h83q-31 -64 -88.5 -105t-137.5 -41q-96 0 -156.5 60.5t-60.5 165.5q0 115 78 200.5t196 85.5z" />
    <glyph glyph-name="afii10084" unicode="&#x442;" horiz-adv-x="833" 
d="M41 0l77 482h74l-12 -66h1q24 37 63 58t83 21q50 0 87.5 -28.5t49.5 -74.5q26 44 71 73.5t103 29.5q70 0 112 -46t42 -116q0 -30 -4 -54l-44 -279h-75l44 280q4 24 4 43q0 48 -22.5 76.5t-69.5 28.5q-59 0 -100 -41.5t-53 -120.5l-42 -266h-76l44 276q4 24 4 47
q0 47 -23 76t-69 29q-61 0 -101.5 -45.5t-51.5 -116.5l-42 -266h-74z" />
    <glyph glyph-name="afii10085" unicode="&#x443;" horiz-adv-x="444" 
d="M474 482l-369 -719h-78l125 243l-108 476h77l61 -283q14 -68 18 -103h2l190 386h82z" />
    <glyph glyph-name="afii10086" unicode="&#x444;" horiz-adv-x="808" 
d="M406 424l47 296h75l-45 -280h1q51 55 124 55q77 0 121.5 -61.5t44.5 -147.5q0 -77 -23.5 -144.5t-75 -113t-121.5 -45.5q-38 0 -74 21t-56 59h-1l-47 -300h-75l44 272h-1q-47 -52 -121 -52q-78 0 -123 59t-45 150q0 126 63 214.5t157 88.5q46 0 80 -20t50 -51h1zM279 430
q-60 0 -103.5 -65t-43.5 -164q0 -72 27 -112t79 -40q62 0 102 70t40 159q0 68 -26.5 110t-74.5 42zM556 49q67 0 104 68.5t37 159.5q0 61 -26 107t-80 46q-62 0 -102 -68.5t-40 -157.5q0 -69 31 -112t76 -43z" />
    <glyph glyph-name="afii10087" unicode="&#x445;" horiz-adv-x="463" 
d="M-5 0l209 248q-21 38 -61.5 116.5t-61.5 117.5h81l55 -110q17 -32 32 -76q21 33 54 75l87 111h90l-197 -234q23 -41 66.5 -124t66.5 -124h-83l-67 133q-25 52 -29 63q-3 -5 -53 -70l-99 -126h-90z" />
    <glyph glyph-name="afii10088" unicode="&#x446;" horiz-adv-x="543" 
d="M505 482l-51 -322q-9 -56 -9 -70q0 -36 31 -36q6 0 18 2l-58 -211h-75l43 157q-28 21 -28 64h-3q-60 -83 -155 -83q-61 0 -107 42t-46 124q0 26 4 52l45 281h75l-44 -277q-4 -30 -4 -47q0 -49 23 -78.5t71 -29.5q65 0 103.5 50t50.5 123l41 259h75z" />
    <glyph glyph-name="afii10089" unicode="&#x447;" horiz-adv-x="496" 
d="M474 482l-75 -482h-75l35 230h-1q-54 -72 -145 -72q-62 0 -100.5 43.5t-38.5 118.5q0 33 6 72l14 90h75l-13 -85q-7 -42 -7 -66q0 -106 75 -106q71 0 111.5 50t51.5 126l12 81h75z" />
    <glyph glyph-name="afii10090" unicode="&#x448;" horiz-adv-x="839" 
d="M817 482l-34 -222q-20 -133 -20 -185q0 -37 6 -75h-75q-5 33 -5 66h-3q-60 -83 -155 -83q-51 0 -87.5 27t-49.5 80q-26 -45 -72.5 -76t-103.5 -31q-68 0 -110.5 46t-42.5 120q0 30 4 54l45 279h75l-44 -280q-4 -24 -4 -43q0 -49 22.5 -79t71.5 -30q56 0 97.5 43.5
t53.5 122.5l42 266h76l-44 -276q-4 -24 -4 -48q0 -108 92 -108q61 0 101.5 47.5t51.5 118.5l42 266h74z" />
    <glyph glyph-name="afii10091" unicode="&#x449;" horiz-adv-x="855" 
d="M817 482l-50 -322q-8 -52 -8 -70q0 -36 30 -36q6 0 18 2l-58 -211h-75l43 157q-28 22 -28 64h-3q-60 -83 -155 -83q-51 0 -87.5 27t-49.5 80q-26 -45 -72.5 -76t-103.5 -31q-68 0 -110.5 46t-42.5 120q0 30 4 54l45 279h75l-44 -280q-4 -24 -4 -43q0 -49 22.5 -79
t71.5 -30q56 0 97.5 43.5t53.5 122.5l42 266h76l-44 -276q-4 -24 -4 -48q0 -108 92 -108q65 0 104 50.5t50 122.5l41 259h74z" />
    <glyph glyph-name="afii10092" unicode="&#x44a;" horiz-adv-x="452" 
d="M282 218h-73l-24 -155h82q38 0 62 22.5t24 64.5q0 68 -71 68zM219 281h68q141 0 141 -127q0 -75 -47.5 -114.5t-115.5 -39.5h-164l66 417h-126l11 65h199z" />
    <glyph glyph-name="afii10093" unicode="&#x44b;" horiz-adv-x="594" 
d="M222 218h-72l-25 -155h82q38 0 62 22.5t24 64.5q0 68 -71 68zM159 281h68q141 0 141 -127q0 -75 -47.5 -114.5t-115.5 -39.5h-164l75 482h75zM497 482h75l-76 -482h-75z" />
    <glyph glyph-name="afii10094" unicode="&#x44c;" horiz-adv-x="392" 
d="M222 218h-72l-25 -155h82q38 0 62 22.5t24 64.5q0 68 -71 68zM159 281h68q141 0 141 -127q0 -75 -47.5 -114.5t-115.5 -39.5h-164l75 482h75z" />
    <glyph glyph-name="afii10095" unicode="&#x44d;" horiz-adv-x="530" 
d="M205 217l11 65h208q-2 61 -40.5 103.5t-100.5 42.5q-44 0 -82 -22t-60 -62h-83q21 62 83 106.5t146 44.5q93 0 153.5 -64t60.5 -162q0 -117 -71 -201.5t-187 -84.5q-157 0 -203 146h83q9 -33 42 -56t78 -23q73 0 119.5 50t58.5 117h-216z" />
    <glyph glyph-name="afii10096" unicode="&#x44e;" horiz-adv-x="750" 
d="M192 482l-32 -200h68q22 91 92 152t179 61q99 0 160.5 -65.5t61.5 -162.5q0 -114 -75.5 -199t-204.5 -85q-102 0 -161.5 65.5t-59.5 168.5h-70l-34 -217h-75l76 482h75zM490 428q-81 0 -137 -60.5t-56 -155.5q0 -74 41 -118t113 -44q84 0 138.5 62t54.5 154q0 72 -40 117
t-114 45z" />
    <glyph glyph-name="afii10097" unicode="&#x44f;" horiz-adv-x="438" 
d="M226 197l-137 -197h-84l154 209q-78 31 -78 115q0 75 51.5 116.5t123.5 41.5h160l-75 -482h-75l31 197h-71zM236 260h71l25 159h-81q-42 0 -68.5 -24t-26.5 -67q0 -68 80 -68z" />
    <glyph glyph-name="uni0450" unicode="&#x450;" horiz-adv-x="545" 
d="M322 495q81 0 140 -52.5t59 -152.5q0 -40 -8 -71h-381q-2 -16 -2 -25q0 -62 37.5 -103.5t100.5 -41.5q100 0 135 59h85q-63 -125 -226 -125q-94 0 -150 60.5t-56 158.5q0 120 75 206.5t191 86.5zM318 430q-64 0 -111 -40.5t-64 -108.5h303q0 3 0.5 7t0.5 6q0 61 -34 98.5
t-95 37.5zM242 695l61 46l103 -150l-45 -33z" />
    <glyph glyph-name="afii10071" unicode="&#x451;" horiz-adv-x="545" 
d="M322 495q81 0 140 -52.5t59 -152.5q0 -40 -8 -71h-381q-2 -16 -2 -25q0 -62 37.5 -103.5t100.5 -41.5q100 0 135 59h85q-63 -125 -226 -125q-94 0 -150 60.5t-56 158.5q0 120 75 206.5t191 86.5zM318 430q-64 0 -111 -40.5t-64 -108.5h303q0 3 0.5 7t0.5 6q0 61 -34 98.5
t-95 37.5zM216 603l13 84h83l-13 -84h-83zM378 603l13 84h84l-13 -84h-84z" />
    <glyph glyph-name="afii10099" unicode="&#x452;" horiz-adv-x="542" 
d="M46 0l91 578h-75l9 56h75l14 86h75l-14 -86h158l-9 -56h-157l-24 -155h1q58 72 144 72q78 0 122 -43t44 -119q0 -24 -5 -54l-53 -341q-16 -102 -56.5 -146t-117.5 -44q-46 0 -85 13l12 66q38 -12 73 -12q42 0 66 28t34 93l50 320q7 42 7 66q0 106 -97 106
q-70 0 -113 -50.5t-54 -125.5l-40 -252h-75z" />
    <glyph glyph-name="afii10100" unicode="&#x453;" horiz-adv-x="374" 
d="M348 385q0 -55 -30 -93t-109 -77q-60 -30 -81.5 -52.5t-21.5 -51.5q0 -27 19.5 -43.5t52.5 -16.5q67 0 84 64h75q-12 -58 -55 -94.5t-107 -36.5q-70 0 -107 34t-37 90q0 100 129 161q68 32 90.5 56.5t22.5 54.5q0 21 -13.5 34.5t-36.5 13.5q-47 0 -60 -47h-73q7 50 45 82
t91 32q55 0 88.5 -31t33.5 -79zM194 599l151 150l48 -54l-161 -137z" />
    <glyph glyph-name="afii10101" unicode="&#x454;" horiz-adv-x="530" 
d="M312 495q77 0 131.5 -43t71.5 -108h-82q-29 85 -126 85q-61 0 -108 -43t-62 -104h233l-9 -65h-233q-1 -6 -1 -15q0 -64 39.5 -108.5t105.5 -44.5q44 0 81 22t57 58h83q-27 -58 -83.5 -102t-142.5 -44q-96 0 -156.5 60.5t-60.5 165.5q0 122 75 204t187 82z" />
    <glyph glyph-name="afii10102" unicode="&#x455;" horiz-adv-x="408" 
d="M391 372h-77q-16 60 -82 60q-35 0 -56.5 -18.5t-21.5 -45.5q0 -47 74 -79q70 -31 99 -68t29 -91q0 -63 -46.5 -105t-123.5 -42q-65 0 -112 35t-55 103h78q4 -33 29.5 -53.5t62.5 -20.5q42 0 67.5 22.5t25.5 57.5q0 32 -17.5 54.5t-68.5 44.5q-116 51 -116 139
q0 55 42.5 92.5t115.5 37.5q58 0 99 -31.5t54 -91.5z" />
    <glyph glyph-name="afii10103" unicode="&#x456;" horiz-adv-x="215" 
d="M118 482h75l-76 -482h-75zM132 602l14 87h89l-14 -87h-89z" />
    <glyph glyph-name="afii10104" unicode="&#x457;" horiz-adv-x="215" 
d="M123 482h75l-76 -482h-75zM55 603l13 84h83l-13 -84h-83zM217 603l13 84h84l-13 -84h-84z" />
    <glyph glyph-name="afii10105" unicode="&#x458;" horiz-adv-x="215" 
d="M193 482l-86 -544q-16 -102 -57.5 -146t-118.5 -44q-46 0 -85 13l12 66q38 -12 73 -12q42 0 66 28t34 93l87 546h75zM132 602l14 87h89l-14 -87h-89z" />
    <glyph glyph-name="afii10106" unicode="&#x459;" horiz-adv-x="657" 
d="M487 218h-72l-25 -155h82q38 0 62 22.5t24 64.5q0 68 -71 68zM250 417l-80 -283q-22 -76 -52.5 -108t-80.5 -32q-28 0 -46 6l12 63q9 -4 24 -4q46 0 72 90l95 333h262l-32 -201h68q141 0 141 -127q0 -75 -47.5 -114.5t-115.5 -39.5h-164l65 417h-121z" />
    <glyph glyph-name="afii10107" unicode="&#x45a;" horiz-adv-x="693" 
d="M460 281h68q141 0 141 -127q0 -75 -47.5 -114.5t-115.5 -39.5h-164l34 216h-226l-34 -216h-75l76 482h75l-32 -201h226l31 201h75zM523 218h-72l-25 -155h82q38 0 62 22.5t24 64.5q0 68 -71 68z" />
    <glyph glyph-name="afii10108" unicode="&#x45b;" horiz-adv-x="542" 
d="M370 578h-157l-24 -155h1q58 72 144 72q78 0 122 -43t44 -119q0 -27 -7 -72l-40 -261h-75l40 256q7 42 7 66q0 106 -97 106q-70 0 -113 -50.5t-54 -125.5l-40 -252h-75l91 578h-75l9 56h75l14 86h75l-14 -86h158z" />
    <glyph glyph-name="afii10109" unicode="&#x45c;" horiz-adv-x="456" 
d="M192 482l-34 -211l222 211h98l-239 -221l181 -261h-87l-177 258l-40 -258h-75l76 482h75zM224 599l151 150l48 -54l-161 -137z" />
    <glyph glyph-name="uni045D" unicode="&#x45d;" horiz-adv-x="527" 
d="M505 482l-35 -222q-20 -126 -20 -185q0 -37 6 -75h-75q-5 33 -5 66h-3q-60 -83 -155 -83q-61 0 -107 42t-46 124q0 26 4 52l45 281h75l-44 -277q-4 -30 -4 -47q0 -49 23 -78.5t71 -29.5q65 0 104 50.5t50 122.5l41 259h75zM230 695l61 46l103 -150l-45 -33z" />
    <glyph glyph-name="afii10110" unicode="&#x45e;" horiz-adv-x="444" 
d="M474 482l-369 -719h-78l125 243l-108 476h77l61 -283q14 -68 18 -103h2l190 386h82zM367 717h60q-14 -64 -58.5 -103t-105.5 -39q-60 0 -95 36.5t-35 105.5h58q0 -38 20 -61t56 -23q37 0 65 25.5t35 58.5z" />
    <glyph glyph-name="afii10193" unicode="&#x45f;" horiz-adv-x="527" 
d="M505 482l-35 -222q-20 -126 -20 -185q0 -37 6 -75h-75q-5 33 -5 66h-3q-60 -83 -155 -83q-61 0 -107 42t-46 124q0 26 4 52l45 281h75l-44 -277q-4 -30 -4 -47q0 -49 23 -78.5t71 -29.5q65 0 104 50.5t50 122.5l41 259h75zM186 -59h74l-25 -153h-75z" />
    <glyph glyph-name="afii10050" unicode="&#x490;" horiz-adv-x="478" 
d="M443 682l26 158h78l-37 -230h-292l-97 -610h-78l109 682h291z" />
    <glyph glyph-name="afii10098" unicode="&#x491;" horiz-adv-x="340" 
d="M407 641l-36 -222q-30 7 -53 7q-72 0 -87 -97l-31 -195q-23 -140 -146 -140q-35 0 -59 6l11 63q11 -4 38 -4q71 0 84 90l30 195q10 67 44.5 107t89.5 40q12 0 17 -1l23 151h75z" />
    <glyph glyph-name="Wgrave" unicode="&#x1e80;" horiz-adv-x="800" 
d="M504 0l-32 432q-3 33 -3 147h-4q-30 -97 -49 -143l-175 -436h-80l-63 682h76l36 -441q7 -79 7 -134h4q29 92 50 143l173 432h78l32 -440q5 -70 5 -134h4q19 58 50 133l179 441h76l-278 -682h-86zM361 817l28 62l160 -92l-23 -50z" />
    <glyph glyph-name="wgrave" unicode="&#x1e81;" horiz-adv-x="659" 
d="M390 0l-26 267q-6 62 -6 130h-2q-27 -98 -40 -128l-110 -269h-94l-43 482h73l23 -294q6 -72 6 -117h2q15 54 36 106l121 305h79l29 -272q6 -52 6 -139h2q7 27 37 106l120 305h79l-199 -482h-93zM284 695l61 46l103 -150l-45 -33z" />
    <glyph glyph-name="Wacute" unicode="&#x1e82;" horiz-adv-x="800" 
d="M504 0l-32 432q-3 33 -3 147h-4q-30 -97 -49 -143l-175 -436h-80l-63 682h76l36 -441q7 -79 7 -134h4q29 92 50 143l173 432h78l32 -440q5 -70 5 -134h4q19 58 50 133l179 441h76l-278 -682h-86zM622 883l26 -60l-201 -86l-20 49z" />
    <glyph glyph-name="wacute" unicode="&#x1e83;" horiz-adv-x="659" 
d="M390 0l-26 267q-6 62 -6 130h-2q-27 -98 -40 -128l-110 -269h-94l-43 482h73l23 -294q6 -72 6 -117h2q15 54 36 106l121 305h79l29 -272q6 -52 6 -139h2q7 27 37 106l120 305h79l-199 -482h-93zM320 599l151 150l48 -54l-161 -137z" />
    <glyph glyph-name="Wdieresis" unicode="&#x1e84;" horiz-adv-x="800" 
d="M504 0l-32 432q-3 33 -3 147h-4q-30 -97 -49 -143l-175 -436h-80l-63 682h76l36 -441q7 -79 7 -134h4q29 92 50 143l173 432h78l32 -440q5 -70 5 -134h4q19 58 50 133l179 441h76l-278 -682h-86zM364 780l13 81h79l-13 -81h-79zM545 780l13 81h79l-13 -81h-79z" />
    <glyph glyph-name="wdieresis" unicode="&#x1e85;" horiz-adv-x="659" 
d="M390 0l-26 267q-6 62 -6 130h-2q-27 -98 -40 -128l-110 -269h-94l-43 482h73l23 -294q6 -72 6 -117h2q15 54 36 106l121 305h79l29 -272q6 -52 6 -139h2q7 27 37 106l120 305h79l-199 -482h-93zM261 603l13 84h83l-13 -84h-83zM423 603l13 84h84l-13 -84h-84z" />
    <glyph glyph-name="Ygrave" unicode="&#x1ef2;" horiz-adv-x="511" 
d="M183 0l45 279l-141 403h79l86 -250q19 -57 25 -81q10 20 46 76l164 255h86l-267 -402l-45 -280h-78zM228 817l28 62l160 -92l-23 -50z" />
    <glyph glyph-name="ygrave" unicode="&#x1ef3;" horiz-adv-x="444" 
d="M474 482l-369 -719h-78l125 243l-108 476h77l61 -283q14 -68 18 -103h2l190 386h82zM174 695l61 46l103 -150l-45 -33z" />
    <glyph glyph-name="uni2010" unicode="&#x2010;" horiz-adv-x="453" 
d="M399 232h-309l11 65h309z" />
    <glyph glyph-name="endash" unicode="&#x2013;" horiz-adv-x="560" 
d="M485 234h-404l10 60h404z" />
    <glyph glyph-name="emdash" unicode="&#x2014;" horiz-adv-x="1110" 
d="M1035 234h-954l10 60h954z" />
    <glyph glyph-name="underscoredbl" unicode="&#x2017;" horiz-adv-x="550" 
d="M-50 -238l10 63h550l-10 -63h-550zM-33 -130l10 63h550l-10 -63h-550z" />
    <glyph glyph-name="quoteleft" unicode="&#x2018;" horiz-adv-x="227" 
d="M183 720h49q-40 -64 -54 -122h46l-16 -106h-102l7 48q16 105 70 180z" />
    <glyph glyph-name="quoteright" unicode="&#x2019;" horiz-adv-x="227" 
d="M160 492h-48q40 66 53 122h-46l16 106h102l-7 -48q-14 -102 -70 -180z" />
    <glyph glyph-name="quotesinglbase" unicode="&#x201a;" horiz-adv-x="227" 
d="M69 -122h-48q40 66 53 122h-46l16 106h102l-7 -48q-16 -105 -70 -180z" />
    <glyph glyph-name="quotereversed" unicode="&#x201b;" horiz-adv-x="227" 
d="M248 720l-18 -106h-40q-2 -12 -4 -32q-6 -43 13 -90h-50q-20 45 -20 90q0 30 8 82l8 56h103z" />
    <glyph glyph-name="quotedblleft" unicode="&#x201c;" horiz-adv-x="405" 
d="M359 720h48q-40 -66 -53 -122h48l-16 -106h-104l7 48q16 105 70 180zM183 720h49q-40 -64 -54 -122h48l-16 -106h-104l7 48q16 105 70 180z" />
    <glyph glyph-name="quotedblright" unicode="&#x201d;" horiz-adv-x="405" 
d="M162 492h-49q38 60 54 122h-48l16 106h104l-7 -48q-16 -101 -70 -180zM338 492h-49q40 66 53 122h-47l16 106h104l-7 -48q-16 -101 -70 -180z" />
    <glyph glyph-name="quotedblbase" unicode="&#x201e;" horiz-adv-x="405" 
d="M69 -122h-48q40 66 53 122h-46l16 106h102l-7 -48q-16 -105 -70 -180zM246 -122h-48q40 66 53 122h-46l16 106h103l-8 -48q-14 -102 -70 -180z" />
    <glyph glyph-name="dagger" unicode="&#x2020;" horiz-adv-x="431" 
d="M422 453l-141 11l-4 -91l-70 -373h-54l47 373l26 91l-145 -11l12 75l141 -11l16 165h77l-38 -165l145 11z" />
    <glyph glyph-name="daggerdbl" unicode="&#x2021;" horiz-adv-x="431" 
d="M241 169l-36 -169h-51l16 169l22 80l-146 -9l12 70l143 -10l3 83l23 83l-146 -9l11 69l143 -9l17 165h71l-36 -165l146 9l-11 -69l-143 9l-3 -83l-23 -83l146 10l-11 -70l-144 9z" />
    <glyph glyph-name="bullet" unicode="&#x2022;" 
d="M71 304q0 52 36.5 89t88.5 37t89.5 -37t37.5 -89t-37.5 -89t-89.5 -37t-88.5 37t-36.5 89z" />
    <glyph glyph-name="ellipsis" unicode="&#x2026;" horiz-adv-x="1010" 
d="M87 0l17 109h103l-16 -109h-104zM417 0l17 109h104l-17 -109h-104zM747 0l17 109h104l-17 -109h-104z" />
    <glyph glyph-name="perthousand" unicode="&#x2030;" horiz-adv-x="1058" 
d="M609 682h80l-517 -682h-80zM76 484q0 90 47 154t119 64q58 0 90.5 -37.5t32.5 -104.5q0 -93 -43 -161t-117 -68q-60 0 -94.5 40t-34.5 113zM296 552q0 86 -57 86q-41 0 -67 -46t-26 -111q0 -85 63 -85q41 0 63.5 48.5t23.5 107.5zM407 131q0 90 47 154t119 64
q58 0 90.5 -37.5t32.5 -104.5q0 -93 -43 -161t-117 -68q-60 0 -94.5 40t-34.5 113zM627 199q0 86 -57 86q-41 0 -67 -46t-26 -111q0 -85 63 -85q41 0 63.5 48.5t23.5 107.5zM741 131q0 90 47 154t119 64q58 0 90.5 -37.5t32.5 -104.5q0 -93 -43 -161t-117 -68
q-60 0 -94.5 40t-34.5 113zM961 199q0 86 -57 86q-41 0 -67 -46t-26 -111q0 -85 63 -85q41 0 63.5 48.5t23.5 107.5z" />
    <glyph glyph-name="minute" unicode="&#x2032;" horiz-adv-x="230" 
d="M198 704l62 -35l-133 -227l-48 27z" />
    <glyph glyph-name="second" unicode="&#x2033;" horiz-adv-x="420" 
d="M198 704l62 -35l-133 -227l-48 27zM388 704l62 -35l-133 -227l-48 27z" />
    <glyph glyph-name="guilsinglleft" unicode="&#x2039;" horiz-adv-x="286" 
d="M69 259l150 194l43 -30l-118 -170l66 -184l-51 -19z" />
    <glyph glyph-name="guilsinglright" unicode="&#x203a;" horiz-adv-x="286" 
d="M227 243l-150 -193l-43 29l119 171l-67 184l51 19z" />
    <glyph glyph-name="exclamdbl" unicode="&#x203c;" horiz-adv-x="442" 
d="M38 0l13 88h85l-13 -88h-85zM146 682h85l-87 -493h-69zM259 0l13 88h85l-13 -88h-85zM367 682h85l-87 -493h-69z" />
    <glyph glyph-name="uni203E" unicode="&#x203e;" horiz-adv-x="550" 
d="M85 762v63h550v-63h-550z" />
    <glyph glyph-name="fraction" unicode="&#x2044;" horiz-adv-x="191" 
d="M327 682h78l-480 -682h-77z" />
    <glyph glyph-name="zero.superior" unicode="&#x2070;" 
d="M90 586q0 122 49.5 204t143.5 82q61 0 102 -41t41 -127q0 -125 -47 -209.5t-144 -84.5q-64 0 -104.5 43.5t-40.5 132.5zM239 471q38 0 65.5 35t39 85t11.5 108q0 110 -74 110q-58 0 -89.5 -64.5t-31.5 -159.5q0 -114 79 -114z" />
    <glyph glyph-name="four.superior" unicode="&#x2074;" 
d="M406 510h-57l-14 -85h-69l13 85h-201l8 49l258 299h63l-48 -287h57zM291 571l29 184l-158 -184h129z" />
    <glyph glyph-name="five.superior" unicode="&#x2075;" 
d="M241 796l-25 -92q14 6 44 6q64 0 100.5 -37t36.5 -97q0 -68 -46.5 -116t-120.5 -48q-67 0 -102 35.5t-35 94.5h70q0 -30 17.5 -49t51.5 -19q43 0 68.5 27.5t25.5 72.5q0 74 -78 74q-50 0 -115 -22l60 232h219l-12 -62h-159z" />
    <glyph glyph-name="six.superior" unicode="&#x2076;" 
d="M89 552q0 89 81 170l137 136h80l-134 -135q13 3 30 3q60 -1 98 -39t38 -94q0 -79 -50.5 -130t-131.5 -51q-70 0 -109 39t-39 101zM264 668q-48 0 -76.5 -33t-28.5 -80q0 -36 21.5 -58.5t59.5 -22.5q51 0 80 31.5t29 81.5q0 36 -22 58.5t-63 22.5z" />
    <glyph glyph-name="seven.superior" unicode="&#x2077;" 
d="M438 858l-10 -47l-243 -386h-79l241 371h-207l10 62h288z" />
    <glyph glyph-name="eight.superior" unicode="&#x2078;" 
d="M285 813q-33 0 -55.5 -18t-22.5 -50q0 -27 17 -44t48 -17q38 0 59.5 20t21.5 53q0 26 -17.5 41t-50.5 15zM401 556q0 -62 -44.5 -102.5t-117.5 -40.5q-68 0 -106 34t-38 89q0 46 28 79.5t75 44.5q-26 12 -41.5 36.5t-15.5 51.5q0 53 42.5 88.5t106.5 35.5
q59 0 93.5 -29.5t34.5 -78.5q0 -38 -22 -67t-63 -41q31 -12 49.5 -39t18.5 -61zM256 629q-42 0 -67.5 -23t-25.5 -66q0 -31 21 -50t60 -19q40 0 64.5 24.5t24.5 64.5q0 32 -21 50.5t-56 18.5z" />
    <glyph glyph-name="nine.superior" unicode="&#x2079;" 
d="M435 730q0 -47 -19 -84.5t-62 -80.5l-142 -140h-80l135 135q-14 -3 -30 -3q-61 1 -97.5 37.5t-36.5 93.5q0 77 51 130.5t133 53.5q68 0 108 -40.5t40 -101.5zM256 615q49 0 79 33t30 79q0 36 -20.5 59.5t-60.5 23.5q-50 0 -80.5 -33t-30.5 -83q0 -79 83 -79z" />
    <glyph glyph-name="nsuperior" unicode="&#x207f;" horiz-adv-x="416" 
d="M88 328l55 354h68l-7 -44h1q41 53 104 53q55 0 87 -33t32 -87q0 -23 -4 -47l-30 -196h-68l30 190q3 30 3 36q0 33 -17.5 54t-48.5 21q-43 0 -71.5 -34t-37.5 -91l-28 -176h-68z" />
    <glyph glyph-name="zero.inferior" unicode="&#x2080;" 
d="M26 -14q0 122 49.5 204t143.5 82q61 0 102 -41t41 -127q0 -125 -47 -209.5t-144 -84.5q-64 0 -104.5 43.5t-40.5 132.5zM175 -129q38 0 65.5 35t39 85t11.5 108q0 110 -74 110q-58 0 -89.5 -64.5t-31.5 -159.5q0 -114 79 -114z" />
    <glyph glyph-name="one.inferior" unicode="&#x2081;" 
d="M125 -175l62 371h-74l9 62h144l-71 -433h-70z" />
    <glyph glyph-name="two.inferior" unicode="&#x2082;" 
d="M17 -175l7 45l147 140q56 53 79 82t23 58q0 27 -17 43t-49 16q-30 0 -52.5 -18.5t-27.5 -50.5h-69q8 59 50 95.5t104 36.5q61 0 97 -32t36 -83q0 -45 -28 -84t-95 -100l-92 -84h187l-11 -64h-289z" />
    <glyph glyph-name="three.inferior" unicode="&#x2083;" 
d="M137 156h-67q10 54 48 85t102 31q56 0 89 -27.5t33 -72.5q0 -42 -24 -70.5t-66 -41.5v-1q35 -10 55 -36.5t20 -63.5q0 -69 -44 -108t-116 -39q-64 0 -102.5 32.5t-40.5 87.5q0 7 1 10h68v-4q8 -66 76 -66q39 0 63.5 24t24.5 61q0 72 -93 72h-22l9 59h20q100 0 100 73
q0 23 -15 37t-43 14q-63 0 -76 -56z" />
    <glyph glyph-name="four.inferior" unicode="&#x2084;" 
d="M334 -90h-57l-14 -85h-69l13 85h-201l8 49l258 299h63l-48 -287h57zM219 -29l29 184l-158 -184h129z" />
    <glyph glyph-name="five.inferior" unicode="&#x2085;" 
d="M169 196l-25 -92q14 6 44 6q64 0 100.5 -37t36.5 -97q0 -68 -46.5 -116t-120.5 -48q-67 0 -102 35.5t-35 94.5h70q0 -30 17.5 -49t51.5 -19q43 0 68.5 27.5t25.5 72.5q0 74 -78 74q-50 0 -115 -22l60 232h219l-12 -62h-159z" />
    <glyph glyph-name="six.inferior" unicode="&#x2086;" 
d="M17 -48q0 89 81 170l137 136h80l-134 -135q14 3 30 3q60 -1 98 -39t38 -94q0 -79 -50.5 -130t-131.5 -51q-70 0 -109 39t-39 101zM192 68q-48 0 -76.5 -33t-28.5 -80q0 -36 21.5 -58.5t59.5 -22.5q51 0 80 31.5t29 81.5q0 36 -22 58.5t-63 22.5z" />
    <glyph glyph-name="seven.inferior" unicode="&#x2087;" 
d="M364 258l-10 -47l-243 -386h-79l241 371h-207l10 62h288z" />
    <glyph glyph-name="eight.inferior" unicode="&#x2088;" 
d="M213 213q-33 0 -55.5 -18t-22.5 -50q0 -27 17 -44t48 -17q38 0 59.5 20t21.5 53q0 26 -17.5 41t-50.5 15zM329 -44q0 -62 -44.5 -102.5t-117.5 -40.5q-68 0 -106 34t-38 89q0 46 28 79.5t75 44.5q-26 12 -41.5 36.5t-15.5 51.5q0 53 42.5 88.5t106.5 35.5
q59 0 93.5 -29.5t34.5 -78.5q0 -38 -22 -67t-63 -41q31 -12 49.5 -39t18.5 -61zM184 29q-42 0 -67.5 -23t-25.5 -66q0 -31 21 -50t60 -19q40 0 64.5 24.5t24.5 64.5q0 32 -21 50.5t-56 18.5z" />
    <glyph glyph-name="nine.inferior" unicode="&#x2089;" 
d="M362 130q0 -47 -19 -84.5t-62 -80.5l-142 -140h-80l135 135q-13 -3 -30 -3q-61 1 -97.5 37.5t-36.5 93.5q0 77 51 130.5t133 53.5q68 0 108 -40.5t40 -101.5zM183 15q49 0 79 33t30 79q0 36 -20.5 59.5t-60.5 23.5q-50 0 -80.5 -33t-30.5 -83q0 -79 83 -79z" />
    <glyph glyph-name="franc" unicode="&#x20a3;" horiz-adv-x="550" 
d="M41 131l12 68h73l77 483h359l-12 -72h-281l-35 -220h271l-11 -72h-271l-19 -119h149l-12 -68h-148l-21 -131h-78l21 131h-74z" />
    <glyph glyph-name="lira" unicode="&#x20a4;" horiz-adv-x="550" 
d="M373 253h-150q-3 -98 -78 -157q47 0 106 -24q66 -27 99 -27q69 0 88 110h76q-18 -92 -59 -134t-109 -42q-54 0 -126 31q-64 29 -107 29q-53 0 -111 -42l12 73q73 37 102.5 77t30.5 106h-99l9 56h86l-9 72h-69l9 56h54v21q0 106 57.5 176.5t169.5 70.5q87 0 132.5 -45
t46.5 -117q0 -21 -2 -31h-78q2 16 2 27q0 44 -27 72t-77 28q-74 0 -109 -50t-35 -130v-22h191l-9 -56h-177l7 -72h162z" />
    <glyph glyph-name="peseta" unicode="&#x20a7;" horiz-adv-x="1154" 
d="M44 0l109 682h162q92 0 152 -43.5t60 -139.5q0 -12 -1 -17h71l24 151h75l-24 -151h124l-10 -63h-124l-36 -226q-7 -40 -7 -72q0 -33 14.5 -48t50.5 -15q28 0 54 6l-12 -64q-26 -6 -58 -6q-123 0 -123 127q0 35 8 83l34 215h-72q-24 -75 -94 -116t-175 -41h-82l-42 -262
h-78zM175 333h91q84 0 132.5 43t48.5 125q0 57 -37 83t-97 26h-94zM1137 372h-77q-16 60 -82 60q-35 0 -56.5 -18.5t-21.5 -45.5q0 -47 74 -79q70 -31 99 -68t29 -91q0 -63 -46.5 -105t-123.5 -42q-65 0 -112 35t-55 103h78q4 -33 29.5 -53.5t62.5 -20.5q42 0 67.5 22.5
t25.5 57.5q0 32 -17.5 54.5t-68.5 44.5q-116 51 -116 139q0 55 42.5 92.5t115.5 37.5q58 0 99 -31.5t54 -91.5z" />
    <glyph glyph-name="Euro" unicode="&#x20ac;" horiz-adv-x="550" 
d="M482 66l-11 -72q-60 -16 -113 -16q-250 0 -264 266h-79l24 58h53q1 39 13 93h-73l24 58h65q39 112 122.5 181.5t206.5 69.5q81 0 135 -27l-28 -64q-48 24 -111 24q-88 0 -149 -50t-92 -134h288l-24 -58h-284q-11 -56 -12 -93h263l-23 -58h-236q6 -102 51 -150.5
t135 -48.5q58 0 119 21z" />
    <glyph glyph-name="afii61289" unicode="&#x2113;" horiz-adv-x="550" 
d="M418 98l37 -42q-67 -70 -138 -70q-60 0 -91.5 44t-31.5 110v85l-57 -62l-37 36l94 103v225q0 88 34 133.5t92 45.5q51 0 75.5 -33.5t24.5 -74.5q0 -119 -113 -265q-10 -11 -34 -41v-151q0 -90 63 -90q37 0 82 47zM362 588q0 54 -37 54q-52 0 -52 -109v-158q14 16 20 26
q69 101 69 187z" />
    <glyph glyph-name="afii61352" unicode="&#x2116;" horiz-adv-x="1053" 
d="M117 0h-74l109 682h75l161 -338q63 -131 103 -226h2q4 31 26 170l62 394h73l-109 -682h-74l-160 339q-81 168 -103 228h-3q-18 -128 -26 -178zM979 0h-318l10 62h318zM673 314q0 82 56 141t146 59q89 0 135.5 -50.5t46.5 -124.5q0 -90 -57 -147.5t-145 -57.5
q-75 0 -128.5 48t-53.5 132zM874 447q-55 0 -90.5 -38.5t-35.5 -95.5q0 -51 31.5 -81.5t78.5 -30.5q59 0 91.5 42t32.5 91q0 51 -28.5 82t-79.5 31z" />
    <glyph glyph-name="trademark" unicode="&#x2122;" horiz-adv-x="582" 
d="M511 682l17 -212h-51l-6 117q-1 22 -1 49h-3q-1 -3 -4 -19.5t-7 -29.5l-38 -117h-44l-34 110q-9 30 -14 56h-2q0 -29 -1 -52l-7 -114h-51l19 212h68l35 -106q9 -26 10 -35h1q9 30 11 36l34 105h68zM104 636v46h158v-46h-55v-166h-50v166h-53z" />
    <glyph glyph-name="Omega" unicode="&#x2126;" horiz-adv-x="729" 
d="M46 72h186l2 11q-78 34 -122.5 101.5t-44.5 154.5q0 68 22.5 132t64.5 117t111 84.5t155 31.5q136 0 219.5 -87.5t83.5 -213.5q0 -108 -57.5 -193t-157.5 -127l-2 -11h186l-12 -72h-258l19 118q92 25 146 106.5t54 177.5q0 97 -63 163.5t-168 66.5q-124 0 -192.5 -87
t-68.5 -205q0 -79 43.5 -140t118.5 -82l-19 -118h-258z" />
    <glyph glyph-name="estimated" unicode="&#x212e;" horiz-adv-x="670" 
d="M645 299h-462v-209q66 -65 166 -65q135 0 221 133q12 -6 34 -20q-104 -150 -255 -150q-129 0 -209.5 89.5t-80.5 219.5q0 133 79.5 222t212.5 89q129 0 208.5 -89t85.5 -220zM516 335v169q-70 68 -166 68q-101 0 -167 -66v-171h333z" />
    <glyph glyph-name="onethird" unicode="&#x2153;" horiz-adv-x="937" 
d="M173 250l62 370h-74l9 62h144l-71 -432h-70zM675 682h78l-480 -682h-77zM700 331h-67q10 54 48 85t102 31q56 0 89 -27.5t33 -72.5q0 -42 -24 -70.5t-66 -41.5v-1q35 -10 55 -36.5t20 -63.5q0 -69 -44 -108t-116 -39q-64 0 -102.5 32.5t-40.5 87.5q0 7 1 10h68v-4
q8 -66 76 -66q39 0 63.5 24t24.5 61q0 72 -93 72h-22l9 59h20q100 0 100 73q0 23 -15 37t-43 14q-63 0 -76 -56z" />
    <glyph glyph-name="twothirds" unicode="&#x2154;" horiz-adv-x="967" 
d="M70 249l7 45l147 140q56 53 79 82t23 58q0 27 -17 43t-49 16q-30 0 -52.5 -18.5t-27.5 -50.5h-69q8 59 50 95.5t104 36.5q61 0 97 -32t36 -83q0 -45 -28 -84t-95 -100l-92 -84h187l-11 -64h-289zM705 682h78l-480 -682h-77zM730 331h-67q10 54 48 85t102 31
q56 0 89 -27.5t33 -72.5q0 -42 -24 -70.5t-66 -41.5v-1q35 -10 55 -36.5t20 -63.5q0 -69 -44 -108t-116 -39q-64 0 -102.5 32.5t-40.5 87.5q0 7 1 10h68v-4q8 -66 76 -66q39 0 63.5 24t24.5 61q0 72 -93 72h-22l9 59h20q100 0 100 73q0 23 -15 37t-43 14q-63 0 -76 -56z" />
    <glyph glyph-name="oneeighth" unicode="&#x215b;" horiz-adv-x="937" 
d="M173 250l62 370h-74l9 62h144l-71 -432h-70zM675 682h78l-480 -682h-77zM776 388q-33 0 -55.5 -18t-22.5 -50q0 -27 17 -44t48 -17q38 0 59.5 20t21.5 53q0 26 -17.5 41t-50.5 15zM892 131q0 -62 -44.5 -102.5t-117.5 -40.5q-68 0 -106 34t-38 89q0 46 28 79.5t75 44.5
q-26 12 -41.5 36.5t-15.5 51.5q0 53 42.5 88.5t106.5 35.5q59 0 93.5 -29.5t34.5 -78.5q0 -38 -22 -67t-63 -41q31 -12 49.5 -39t18.5 -61zM747 204q-42 0 -67.5 -23t-25.5 -66q0 -31 21 -50t60 -19q41 0 65 24t24 65q0 32 -21 50.5t-56 18.5z" />
    <glyph glyph-name="threeeighths" unicode="&#x215c;" horiz-adv-x="967" 
d="M185 579h-67q10 54 48 85t102 31q56 0 89 -27.5t33 -72.5q0 -42 -24 -70.5t-66 -41.5v-1q35 -10 55 -36t20 -63q0 -69 -44 -108t-116 -39q-64 0 -102.5 32.5t-40.5 87.5q0 7 1 10h68v-4q8 -66 76 -66q39 0 63.5 24t24.5 61q0 71 -93 71h-22l9 59h20q100 0 100 73
q0 23 -15 37t-43 14q-63 0 -76 -56zM705 682h78l-480 -682h-77zM806 388q-33 0 -55.5 -18t-22.5 -50q0 -27 17 -44t48 -17q38 0 59.5 20t21.5 53q0 26 -17.5 41t-50.5 15zM922 131q0 -62 -44.5 -102.5t-117.5 -40.5q-68 0 -106 34t-38 89q0 46 28 79.5t75 44.5
q-26 12 -41.5 36.5t-15.5 51.5q0 53 42.5 88.5t106.5 35.5q59 0 93.5 -29.5t34.5 -78.5q0 -38 -22 -67t-63 -41q31 -12 49.5 -39t18.5 -61zM777 204q-42 0 -67.5 -23t-25.5 -66q0 -31 21 -50t60 -19q41 0 65 24t24 65q0 32 -21 50.5t-56 18.5z" />
    <glyph glyph-name="fiveeighths" unicode="&#x215d;" horiz-adv-x="967" 
d="M217 620l-25 -92q13 6 44 6q64 0 100.5 -37t36.5 -97q0 -68 -46.5 -116t-120.5 -48q-67 0 -102 35.5t-35 94.5h70q0 -30 17.5 -49t51.5 -19q43 0 68.5 27.5t25.5 72.5q0 74 -78 74q-50 0 -115 -22l60 232h219l-12 -62h-159zM705 682h78l-480 -682h-77zM806 388
q-33 0 -55.5 -18t-22.5 -50q0 -27 17 -44t48 -17q38 0 59.5 20t21.5 53q0 26 -17.5 41t-50.5 15zM922 131q0 -62 -44.5 -102.5t-117.5 -40.5q-68 0 -106 34t-38 89q0 46 28 79.5t75 44.5q-26 12 -41.5 36.5t-15.5 51.5q0 53 42.5 88.5t106.5 35.5q59 0 93.5 -29.5
t34.5 -78.5q0 -38 -22 -67t-63 -41q31 -12 49.5 -39t18.5 -61zM777 204q-42 0 -67.5 -23t-25.5 -66q0 -31 21 -50t60 -19q41 0 65 24t24 65q0 32 -21 50.5t-56 18.5z" />
    <glyph glyph-name="seveneighths" unicode="&#x215e;" horiz-adv-x="907" 
d="M413 682l-10 -47l-243 -385h-79l241 370h-207l10 62h288zM645 682h78l-480 -682h-77zM746 388q-33 0 -55.5 -18t-22.5 -50q0 -27 17 -44t48 -17q38 0 59.5 20t21.5 53q0 26 -17.5 41t-50.5 15zM862 131q0 -62 -44.5 -102.5t-117.5 -40.5q-68 0 -106 34t-38 89
q0 46 28 79.5t75 44.5q-26 12 -41.5 36.5t-15.5 51.5q0 53 42.5 88.5t106.5 35.5q59 0 93.5 -29.5t34.5 -78.5q0 -38 -22 -67t-63 -41q31 -12 49.5 -39t18.5 -61zM717 204q-42 0 -67.5 -23t-25.5 -66q0 -31 21 -50t60 -19q41 0 65 24t24 65q0 32 -21 50.5t-56 18.5z" />
    <glyph glyph-name="partialdiff" unicode="&#x2202;" horiz-adv-x="608" 
d="M560 473q0 -94 -26 -193q-16 -58 -41 -109.5t-59.5 -95t-82.5 -69t-103 -25.5q-79 0 -128.5 52.5t-49.5 136.5q0 138 81 226.5t184 88.5q52 0 91.5 -23.5t57.5 -57.5q4 29 4 73q0 86 -38.5 131.5t-108.5 45.5q-53 0 -100 -29q-3 9 -9.5 26.5t-10.5 26.5q59 35 131 35
q98 0 153 -62.5t55 -177.5zM472 335q-12 41 -45 67.5t-82 26.5q-82 0 -141.5 -76.5t-59.5 -183.5q0 -59 30.5 -94t78.5 -35q74 0 132.5 79.5t86.5 215.5z" />
    <glyph glyph-name="Delta" unicode="&#x2206;" horiz-adv-x="611" 
d="M-19 0l376 682h69l151 -682h-596zM482 70l-84 420q-1 5 -18 104h-2q-35 -70 -53 -104l-219 -420h376z" />
    <glyph glyph-name="product" unicode="&#x220f;" horiz-adv-x="738" 
d="M669 -236h-80v847h-398v-847h-80v919h558v-919z" />
    <glyph glyph-name="summation" unicode="&#x2211;" horiz-adv-x="648" 
d="M636 -235h-588v48l331 416l-306 399v54h535v-70h-425q53 -70 155 -203.5t136 -178.5l-317 -395h479v-70z" />
    <glyph glyph-name="minus" unicode="&#x2212;" horiz-adv-x="672" 
d="M613 228h-515v72h515v-72z" />
    <glyph glyph-name="uni2215" unicode="&#x2215;" horiz-adv-x="191" 
d="M327 682h78l-480 -682h-77z" />
    <glyph glyph-name="uni2219" unicode="&#x2219;" horiz-adv-x="236" 
d="M82 301l16 109h104l-17 -109h-103z" />
    <glyph glyph-name="radical" unicode="&#x221a;" horiz-adv-x="553" 
d="M558 693q-30 -105 -64 -222.5t-75.5 -261t-64.5 -221.5h-52q-7 17 -148 347q-10 -5 -30 -15.5t-29 -15.5l-24 42q99 57 115 67q23 -55 69.5 -165.5t69.5 -166.5q29 103 87.5 306t88.5 306h57z" />
    <glyph glyph-name="infinity" unicode="&#x221e;" horiz-adv-x="827" 
d="M780 294q0 -70 -45 -117.5t-118 -47.5q-59 0 -107.5 32t-81.5 84q-83 -116 -187 -116q-76 0 -122 45.5t-46 114.5q0 74 45 120t120 46q114 0 189 -116q80 116 185 116q74 0 121 -44t47 -117zM718 293q0 46 -27.5 76t-78.5 30q-85 0 -154 -107q64 -107 153 -107
q52 0 79.5 31t27.5 77zM396 293q-29 48 -70.5 77t-83.5 29q-51 0 -78.5 -31t-27.5 -78q0 -46 30.5 -75.5t76.5 -29.5q85 0 153 108z" />
    <glyph glyph-name="integral" unicode="&#x222b;" horiz-adv-x="506" 
d="M454 734l-17 -64q-22 10 -49 10q-84 0 -84 -99v-637q0 -82 -39.5 -126t-108.5 -44q-42 0 -78 12l16 64q23 -9 51 -9q83 0 83 98v641q0 80 39 123.5t111 43.5q37 0 76 -13z" />
    <glyph glyph-name="approxequal" unicode="&#x2248;" horiz-adv-x="672" 
d="M637 391q-75 -91 -166 -91q-63 0 -125 34q-65 38 -108 38q-53 0 -111 -73l-52 59q36 44 72 67.5t89 23.5q62 0 126 -35t109 -35q59 0 112 70zM637 170q-74 -90 -166 -90q-63 0 -125 34q-60 35 -108 35q-56 0 -111 -70l-52 58q35 44 71.5 67.5t89.5 23.5q62 0 126 -34
q61 -37 109 -37q56 0 112 72z" />
    <glyph glyph-name="notequal" unicode="&#x2260;" horiz-adv-x="672" 
d="M469 552h79l-76 -140h149v-72h-182l-80 -150h262v-72h-296l-71 -132h-79l71 132h-144v72h178l80 150h-258v72h291z" />
    <glyph glyph-name="lessequal" unicode="&#x2264;" horiz-adv-x="672" 
d="M618 0h-515v72h515v-72zM618 136l-515 205v61l515 207v-80l-397 -156v-2l397 -154v-81z" />
    <glyph glyph-name="greaterequal" unicode="&#x2265;" horiz-adv-x="672" 
d="M619 0h-515v72h515v-72zM619 341l-515 -205v81l397 154v2l-397 156v80l515 -207v-61z" />
    <glyph glyph-name="lozenge" unicode="&#x25ca;" horiz-adv-x="578" 
d="M537 345l-217 -345h-31l-216 344l217 338h31zM476 345l-171 269l-171 -269l170 -277z" />
    <glyph glyph-name="f_i" unicode="&#xf001;" horiz-adv-x="512" 
d="M76 419l10 63h66l12 74q13 84 53.5 126.5t118.5 42.5q28 0 58 -8l-10 -62q-24 6 -47 6q-41 0 -64 -23.5t-33 -82.5l-12 -73h107l-10 -63h-107l-69 -441q-18 -114 -63 -164t-124 -50q-33 0 -58 9l10 62q23 -7 48 -7q43 0 71 34t42 125l67 432h-66zM415 482h75l-76 -482
h-75zM429 602l14 87h89l-14 -87h-89z" />
    <glyph glyph-name="f_l" unicode="&#xf002;" horiz-adv-x="516" 
d="M76 419l10 63h66l12 74q13 84 53.5 126.5t118.5 42.5q28 0 58 -8l-10 -62q-24 6 -47 6q-41 0 -64 -23.5t-33 -82.5l-12 -73h107l-10 -63h-107l-69 -441q-18 -114 -63 -164t-124 -50q-33 0 -58 9l10 62q23 -7 48 -7q43 0 71 34t42 125l67 432h-66zM458 720h75l-115 -720
h-75z" />
    <glyph glyph-name="uniF8FF" unicode="&#xf8ff;" horiz-adv-x="500" 
d="M12 0v665h475v-665h-475zM88 618l162 -243l161 243h-323zM60 575v-484l40 61l80 120l41 61zM440 575l-162 -242l162 -243v485zM411 48l-161 242l-162 -242h323z" />
    <glyph glyph-name="dollar.oldstyle" horiz-adv-x="511" 
d="M452 431h-69q-1 49 -58 66l-27 -176q66 -28 96 -65t30 -89q0 -68 -47.5 -114t-128.5 -52l-10 -69h-61l11 71q-60 9 -96 46.5t-38 96.5h70q1 -32 20 -53.5t53 -28.5l32 209q-61 26 -88.5 59t-27.5 83q0 60 43.5 101t118.5 45l9 62h61l-10 -66q50 -11 82 -44t35 -82z
M349 160q0 30 -14 50t-48 38l-29 -185q41 8 66 34t25 63zM188 421q0 -28 10.5 -44t42.5 -31l24 154q-77 -10 -77 -79z" />
    <glyph glyph-name="zero.oldstyle" horiz-adv-x="617" 
d="M46 223q0 139 86 225.5t217 86.5q108 0 175 -68.5t67 -168.5q0 -137 -81.5 -229.5t-212.5 -92.5q-113 0 -182 68t-69 179zM342 464q-100 0 -157.5 -71t-57.5 -161q0 -80 45 -132.5t128 -52.5q97 0 153.5 71.5t56.5 168.5q0 80 -46.5 128.5t-121.5 48.5z" />
    <glyph glyph-name="one.oldstyle" horiz-adv-x="351" 
d="M124 0l70 439h-127l11 73h205l-82 -512h-77z" />
    <glyph glyph-name="two.oldstyle" horiz-adv-x="541" 
d="M39 66l205 126q91 56 121 93.5t30 83.5q0 39 -25 66.5t-69 27.5q-100 0 -127 -100h-81q18 79 72 125t138 46t130 -46t46 -110q0 -62 -36.5 -114.5t-130.5 -109.5l-133 -81h290l-12 -73h-428z" />
    <glyph glyph-name="three.oldstyle" horiz-adv-x="531" 
d="M189 367h-80q9 76 63.5 121.5t136.5 45.5q74 0 122.5 -43t48.5 -111q0 -58 -35 -98t-94 -56v-2q63 -19 98 -67t35 -118q0 -98 -69 -167.5t-182 -69.5q-97 0 -160.5 58t-64.5 152h81q1 -62 39 -100.5t106 -38.5q74 0 120.5 46t46.5 118q0 69 -40.5 110.5t-116.5 41.5h-43
l10 64h51q56 0 95.5 33.5t39.5 84.5q0 42 -26.5 67t-67.5 25q-49 0 -78 -26t-36 -70z" />
    <glyph glyph-name="four.oldstyle" horiz-adv-x="576" 
d="M530 33h-99l-33 -207h-78l35 207h-336l10 62l409 417h69l-64 -409h99zM414 405l-297 -302h249q8 51 24 151.5t24 150.5z" />
    <glyph glyph-name="five.oldstyle" horiz-adv-x="542" 
d="M245 202q-68 0 -174 -34l86 344h331l-11 -72h-264l-48 -184q48 17 97 17q99 0 163 -55.5t64 -166.5q0 -104 -69.5 -176.5t-183.5 -72.5q-96 0 -159.5 56.5t-64.5 148.5h81q1 -60 39 -97t105 -37q75 0 122 48.5t47 124.5q0 74 -40 115t-121 41z" />
    <glyph glyph-name="six.oldstyle" horiz-adv-x="559" 
d="M45 189q0 81 28.5 142.5t86.5 123.5l211 227h89l-204 -227q33 13 74 13q83 0 141.5 -60t58.5 -147q0 -72 -28 -134.5t-91 -105.5t-150 -43q-94 0 -155 59t-61 152zM304 397q-79 0 -128.5 -59.5t-49.5 -142.5q0 -65 38 -105.5t106 -40.5q78 0 128.5 58.5t50.5 142.5
q0 64 -38 105.5t-107 41.5z" />
    <glyph glyph-name="seven.oldstyle" horiz-adv-x="502" 
d="M499 512l-11 -67q-64 -102 -190 -309.5t-190 -309.5h-90l382 613h-338l12 73h425z" />
    <glyph glyph-name="eight.oldstyle" horiz-adv-x="552" 
d="M142 519q0 77 55.5 131t146.5 54q78 0 125 -44.5t47 -112.5q0 -57 -30.5 -100.5t-83.5 -61.5q52 -19 83.5 -64.5t31.5 -105.5q0 -108 -69 -173.5t-184 -65.5q-94 0 -155 54t-61 142q0 78 46.5 136.5t122.5 79.5q-34 18 -54.5 53.5t-20.5 77.5zM295 349q-67 0 -116.5 -46
t-49.5 -121q0 -61 38.5 -98t106.5 -37q72 0 117 46t45 120q0 61 -38 98.5t-103 37.5zM338 633q-50 0 -83 -33.5t-33 -80.5q0 -44 27 -72t73 -28q49 0 81 31.5t32 87.5q0 43 -26.5 69t-70.5 26z" />
    <glyph glyph-name="nine.oldstyle" horiz-adv-x="559" 
d="M533 323q0 -117 -94 -227l-229 -270h-89l190 227q-23 -9 -55 -9q-81 0 -144.5 57t-63.5 164q0 113 77 191t198 78q95 0 152.5 -59.5t57.5 -151.5zM274 115q79 0 128.5 60.5t49.5 146.5q0 61 -37 101t-98 40q-82 0 -135 -55t-53 -142q0 -69 40 -110t105 -41z" />
    <glyph glyph-name="cent.oldstyle" horiz-adv-x="534" 
d="M55 225q0 103 62.5 178t167.5 83l16 104h61l-16 -107q63 -11 104 -53.5t48 -95.5h-77q-5 30 -28 52t-59 29l-49 -320q87 7 120 82h78q-56 -143 -209 -151l-18 -120h-61l19 124q-74 13 -116.5 66.5t-42.5 128.5zM134 230q0 -49 24 -84t66 -47l50 318q-65 -10 -102.5 -63.5
t-37.5 -123.5z" />
    <glyph glyph-name="commaaccent" horiz-adv-x="316" 
d="M109 -145l12 77h85l-11 -61q-10 -55 -38 -85h-49q26 29 33 69h-32z" />
    <glyph glyph-name="zero.fitted" horiz-adv-x="557" 
d="M54 240q0 129 32.5 233t100 168.5t160.5 64.5q92 0 146 -65t54 -184q0 -136 -31 -242t-97 -171.5t-159 -65.5t-149.5 67.5t-56.5 194.5zM266 49q64 0 110.5 56.5t68 146t21.5 200.5q0 88 -31 135.5t-91 47.5q-66 0 -114.5 -58t-71.5 -147.5t-23 -197.5q0 -80 33 -131.5
t98 -51.5z" />
    <glyph glyph-name="one.fitted" horiz-adv-x="376" 
d="M125 0l97 609h-105l12 73h182l-109 -682h-77z" />
    <glyph glyph-name="two.fitted" horiz-adv-x="516" 
d="M27 0l11 74l251 245q38 37 62 65t47.5 73t23.5 85q0 44 -25.5 68.5t-70.5 24.5q-55 0 -91 -36.5t-41 -84.5h-81q5 79 65.5 135.5t146.5 56.5q79 0 130 -41.5t51 -116.5q0 -71 -44.5 -137t-116.5 -137l-209 -201h306l-11 -73h-404z" />
    <glyph glyph-name="three.fitted" horiz-adv-x="532" 
d="M208 537h-80q10 69 64 119t145 50q79 0 127 -44t48 -115q0 -67 -41 -113.5t-109 -61.5v-4q55 -13 88 -53t33 -98q0 -102 -63.5 -170t-168.5 -68q-84 0 -142.5 48t-58.5 129v7h81v-6q0 -51 35.5 -79.5t89.5 -28.5q65 0 104.5 46.5t39.5 115.5q0 121 -135 121h-42l11 72h40
q70 0 112.5 37t42.5 94q0 49 -26.5 74.5t-76.5 25.5q-45 0 -76.5 -26.5t-41.5 -71.5z" />
    <glyph glyph-name="four.fitted" horiz-adv-x="531" 
d="M495 165h-84l-27 -165h-77l27 165h-304l10 66l377 451h75l-70 -447h84zM398 568l-276 -333h223q9 56 26.5 167t26.5 166z" />
    <glyph glyph-name="five.fitted" horiz-adv-x="540" 
d="M240 610l-49 -186q36 12 84 12q99 0 159 -52.5t60 -152.5q0 -42 -14 -84.5t-42 -81.5t-77 -63t-111 -24q-95 0 -155 48.5t-59 136.5h84q0 -53 38 -83.5t92 -30.5q75 0 119 54.5t44 123.5q0 65 -39.5 101.5t-117.5 36.5q-67 0 -160 -31l88 348h337l-12 -72h-269z" />
    <glyph glyph-name="six.fitted" horiz-adv-x="558" 
d="M44 189q0 112 95 226l225 267h89l-187 -223q23 9 64 9q91 0 145 -60.5t54 -146.5q0 -116 -72.5 -199.5t-190.5 -83.5q-100 0 -161 59.5t-61 151.5zM306 397q-78 0 -129.5 -60.5t-51.5 -142.5q0 -65 38.5 -105t105.5 -40q77 0 128 60t51 141q0 69 -37 108t-105 39z" />
    <glyph glyph-name="seven.fitted" horiz-adv-x="484" 
d="M527 682l-11 -67q-63 -102 -189 -307.5t-189 -307.5h-90l380 609h-332l12 73h419z" />
    <glyph glyph-name="eight.fitted" horiz-adv-x="539" 
d="M328 634q-48 0 -84 -34.5t-36 -91.5q0 -45 30.5 -75t80.5 -30q53 0 85 36.5t32 88.5q0 49 -29 77.5t-79 28.5zM498 200q0 -97 -63.5 -159t-168.5 -62q-98 0 -157 55t-59 138q0 81 45 133t122 68q-43 20 -66 57t-23 84q0 82 56.5 136.5t151.5 54.5q82 0 131 -47.5
t49 -118.5q0 -64 -36.5 -111t-95.5 -63q52 -20 83 -64t31 -101zM278 333q-60 0 -103.5 -42t-43.5 -112q0 -57 37.5 -93t104.5 -36q62 0 103 40t41 110q0 61 -39 97t-100 36z" />
    <glyph glyph-name="nine.fitted" horiz-adv-x="557" 
d="M558 493q0 -115 -95 -227l-225 -266h-89l187 223q-23 -9 -59 -9q-83 0 -143.5 57t-60.5 164t75.5 188t197.5 81q95 0 153.5 -59.5t58.5 -151.5zM298 285q80 0 129.5 60.5t49.5 146.5q0 61 -37 101t-98 40q-84 0 -136 -54.5t-52 -142.5q0 -70 40 -110.5t104 -40.5z" />
    <glyph glyph-name="percent.oldstyle" horiz-adv-x="765" 
d="M188 332q45 0 73 32.5t28 82.5q0 35 -22.5 57t-59.5 22q-47 0 -76 -33.5t-29 -75.5q0 -37 21.5 -61t64.5 -24zM185 272q-72 0 -112.5 40t-40.5 103q0 74 51.5 122.5t124.5 48.5q71 0 111 -39t40 -100q0 -74 -50.5 -124.5t-123.5 -50.5zM561 566h80l-429 -566h-80zM570 40
q45 0 73 32.5t28 82.5q0 35 -22.5 57t-59.5 22q-47 0 -76 -33.5t-29 -75.5q0 -37 21.5 -61t64.5 -24zM567 -20q-72 0 -112.5 40t-40.5 103q0 74 51.5 122.5t124.5 48.5q71 0 111 -39t40 -100q0 -74 -50.5 -124.5t-123.5 -50.5z" />
    <glyph glyph-name="perthousand.oldstyle" horiz-adv-x="1135" 
d="M188 332q45 0 73 32.5t28 82.5q0 35 -22.5 57t-59.5 22q-47 0 -76 -33.5t-29 -75.5q0 -37 21.5 -61t64.5 -24zM185 272q-72 0 -112.5 40t-40.5 103q0 74 51.5 122.5t124.5 48.5q71 0 111 -39t40 -100q0 -74 -50.5 -124.5t-123.5 -50.5zM561 566h80l-429 -566h-80zM570 40
q45 0 73 32.5t28 82.5q0 35 -22.5 57t-59.5 22q-47 0 -76 -33.5t-29 -75.5q0 -37 21.5 -61t64.5 -24zM567 -20q-72 0 -112.5 40t-40.5 103q0 74 51.5 122.5t124.5 48.5q71 0 111 -39t40 -100q0 -74 -50.5 -124.5t-123.5 -50.5zM942 40q45 0 73 32.5t28 82.5q0 35 -22.5 57
t-59.5 22q-47 0 -76 -33.5t-29 -75.5q0 -37 21.5 -61t64.5 -24zM939 -20q-72 0 -112.5 40t-40.5 103q0 74 51.5 122.5t124.5 48.5q71 0 111 -39t40 -100q0 -74 -50.5 -124.5t-123.5 -50.5z" />
    <glyph glyph-name="zero.taboldstyle" horiz-adv-x="550" 
d="M36 219q0 131 75.5 223.5t199.5 92.5q98 0 158 -68t60 -169q0 -60 -17.5 -116.5t-50.5 -103t-85.5 -74.5t-117.5 -28q-108 0 -165 72t-57 171zM306 464q-83 0 -136 -73t-53 -167q0 -82 37 -129.5t106 -47.5q82 0 135 74t53 171q0 76 -40 124t-102 48z" />
    <glyph glyph-name="one.taboldstyle" horiz-adv-x="550" 
d="M220 0l71 439h-133l11 73h211l-82 -512h-78z" />
    <glyph glyph-name="two.taboldstyle" horiz-adv-x="550" 
d="M43 66l216 132q87 53 113.5 88.5t26.5 87.5q0 36 -25 62.5t-69 26.5q-100 0 -127 -100h-81q18 79 72 125t138 46t130 -46t46 -110q0 -67 -36.5 -117t-130.5 -107l-133 -81h290l-12 -73h-428z" />
    <glyph glyph-name="three.taboldstyle" horiz-adv-x="550" 
d="M205 367h-80q9 76 63.5 121.5t136.5 45.5q74 0 122.5 -43t48.5 -111q0 -58 -35 -98t-94 -56v-2q63 -19 98 -67t35 -118q0 -98 -69 -167.5t-182 -69.5q-97 0 -160.5 58t-64.5 152h81q1 -62 39 -100.5t106 -38.5q74 0 120.5 46t46.5 118q0 69 -40.5 110.5t-116.5 41.5h-43
l10 64h51q56 0 95.5 33.5t39.5 84.5q0 42 -26.5 67t-67.5 25q-49 0 -78 -26t-36 -70z" />
    <glyph glyph-name="four.taboldstyle" horiz-adv-x="550" 
d="M507 56h-97l-37 -230h-79l38 230h-321l10 62l392 394h69l-61 -386h98zM388 404l-278 -278h233q7 47 22 139.5t23 138.5z" />
    <glyph glyph-name="five.taboldstyle" horiz-adv-x="550" 
d="M253 202q-68 0 -174 -34l86 344h331l-11 -72h-264l-48 -184q48 17 97 17q99 0 163 -55.5t64 -166.5q0 -104 -69.5 -176.5t-183.5 -72.5q-96 0 -159.5 56.5t-64.5 148.5h81q1 -60 39 -97t105 -37q75 0 122 48.5t47 124.5q0 74 -40 115t-121 41z" />
    <glyph glyph-name="six.taboldstyle" horiz-adv-x="550" 
d="M35 189q0 81 28.5 142.5t86.5 123.5l211 227h89l-204 -227q33 13 74 13q83 0 141.5 -60t58.5 -147q0 -72 -28 -134.5t-91 -105.5t-150 -43q-94 0 -155 59t-61 152zM294 397q-79 0 -128.5 -59.5t-49.5 -142.5q0 -65 38 -105.5t106 -40.5q78 0 128.5 58.5t50.5 142.5
q0 64 -38 105.5t-107 41.5z" />
    <glyph glyph-name="seven.taboldstyle" horiz-adv-x="550" 
d="M533 512l-11 -67q-63 -102 -190 -309.5t-191 -309.5h-90l383 613h-338l12 73h425z" />
    <glyph glyph-name="eight.taboldstyle" horiz-adv-x="550" 
d="M140 519q0 77 55.5 131t146.5 54q78 0 125 -44.5t47 -112.5q0 -57 -30.5 -100.5t-83.5 -61.5q52 -19 83.5 -64.5t31.5 -105.5q0 -108 -69 -173.5t-184 -65.5q-94 0 -155 54t-61 142q0 78 46.5 136.5t122.5 79.5q-34 18 -54.5 53.5t-20.5 77.5zM293 349q-67 0 -116.5 -46
t-49.5 -121q0 -61 38.5 -98t106.5 -37q72 0 117 46t45 120q0 61 -38 98.5t-103 37.5zM336 633q-50 0 -83 -33.5t-33 -80.5q0 -44 27 -72t73 -28q49 0 81 31.5t32 87.5q0 43 -26.5 69t-70.5 26z" />
    <glyph glyph-name="nine.taboldstyle" horiz-adv-x="550" 
d="M529 323q0 -117 -94 -227l-229 -270h-89l190 227q-23 -9 -55 -9q-78 0 -143 57.5t-65 163.5q0 113 77 191t198 78q95 0 152.5 -59.5t57.5 -151.5zM272 115q79 0 127.5 60.5t48.5 146.5q0 61 -37 101t-98 40q-82 0 -135 -55t-53 -142q0 -69 40.5 -110t106.5 -41z" />
    <glyph glyph-name="zero.denominator" 
d="M40 161q0 122 49.5 204t143.5 82q61 0 102 -41t41 -127q0 -125 -47 -209.5t-144 -84.5q-64 0 -104.5 43.5t-40.5 132.5zM189 46q38 0 65.5 35t39 85t11.5 108q0 110 -74 110q-58 0 -89.5 -64.5t-31.5 -159.5q0 -114 79 -114z" />
    <glyph glyph-name="one.denominator" 
d="M139 0l62 371h-74l9 62h144l-71 -433h-70z" />
    <glyph glyph-name="two.denominator" 
d="M31 0l7 45l147 140q56 53 79 82t23 58q0 27 -17 43t-49 16q-30 0 -52.5 -18.5t-27.5 -50.5h-69q8 59 50 95.5t104 36.5q61 0 97 -32t36 -83q0 -45 -28 -84t-95 -100l-92 -84h187l-11 -64h-289z" />
    <glyph glyph-name="three.denominator" 
d="M151 331h-67q10 54 48 85t102 31q56 0 89 -27.5t33 -72.5q0 -42 -24 -70.5t-66 -41.5v-1q35 -10 55 -36.5t20 -63.5q0 -69 -44 -108t-116 -39q-64 0 -102.5 32.5t-40.5 87.5q0 7 1 10h68v-4q8 -66 76 -66q39 0 63.5 24t24.5 61q0 72 -93 72h-22l9 59h20q100 0 100 73
q0 23 -15 37t-43 14q-63 0 -76 -56z" />
    <glyph glyph-name="four.denominator" 
d="M348 85h-57l-14 -85h-69l13 85h-201l8 49l258 299h63l-48 -287h57zM233 146l29 184l-158 -184h129z" />
    <glyph glyph-name="five.denominator" 
d="M183 371l-25 -92q14 6 44 6q64 0 100.5 -37t36.5 -97q0 -68 -46.5 -116t-120.5 -48q-67 0 -102 35.5t-35 94.5h70q0 -30 17.5 -49t51.5 -19q43 0 68.5 27.5t25.5 72.5q0 74 -78 74q-50 0 -115 -22l60 232h219l-12 -62h-159z" />
    <glyph glyph-name="six.denominator" 
d="M31 127q0 89 81 170l137 136h80l-134 -135q13 3 30 3q60 -1 98 -39t38 -94q0 -79 -50.5 -130t-131.5 -51q-70 0 -109 39t-39 101zM206 243q-48 0 -76.5 -33t-28.5 -80q0 -36 21.5 -58.5t59.5 -22.5q51 0 80 31.5t29 81.5q0 36 -22 58.5t-63 22.5z" />
    <glyph glyph-name="seven.denominator" 
d="M378 433l-10 -47l-243 -386h-79l241 371h-207l10 62h288z" />
    <glyph glyph-name="eight.denominator" 
d="M227 388q-33 0 -55.5 -18t-22.5 -50q0 -27 17 -44t48 -17q38 0 59.5 20t21.5 53q0 26 -17.5 41t-50.5 15zM343 131q0 -62 -44.5 -102.5t-117.5 -40.5q-68 0 -106 34t-38 89q0 46 28 79.5t75 44.5q-26 12 -41.5 36.5t-15.5 51.5q0 53 42.5 88.5t106.5 35.5
q59 0 93.5 -29.5t34.5 -78.5q0 -38 -22 -67t-63 -41q31 -12 49.5 -39t18.5 -61zM198 204q-42 0 -67.5 -23t-25.5 -66q0 -31 21 -50t60 -19q40 0 64.5 24t24.5 65q0 32 -21 50.5t-56 18.5z" />
    <glyph glyph-name="nine.denominator" 
d="M376 305q0 -47 -19 -84.5t-62 -80.5l-142 -140h-80l135 135q-13 -3 -30 -3q-61 1 -97.5 37.5t-36.5 93.5q0 77 51 130.5t133 53.5q68 0 108 -40.5t40 -101.5zM197 190q49 0 79 33t30 79q0 36 -20.5 59.5t-60.5 23.5q-50 0 -80.5 -33t-30.5 -83q0 -79 83 -79z" />
    <glyph glyph-name="zero.numerator" 
d="M69 409q0 122 49.5 204t143.5 82q61 0 102 -41t41 -127q0 -125 -47 -209t-144 -84q-64 0 -104.5 43t-40.5 132zM218 295q38 0 65.5 34.5t39 84.5t11.5 108q0 110 -74 110q-58 0 -89.5 -64.5t-31.5 -159.5q0 -113 79 -113z" />
    <glyph glyph-name="one.numerator" 
d="M173 250l62 370h-74l9 62h144l-71 -432h-70z" />
    <glyph glyph-name="two.numerator" 
d="M70 249l7 45l147 140q56 53 79 82t23 58q0 27 -17 43t-49 16q-30 0 -52.5 -18.5t-27.5 -50.5h-69q8 59 50 95.5t104 36.5q61 0 97 -32t36 -83q0 -45 -28 -84t-95 -100l-92 -84h187l-11 -64h-289z" />
    <glyph glyph-name="three.numerator" 
d="M185 579h-67q10 54 48 85t102 31q56 0 89 -27.5t33 -72.5q0 -42 -24 -70.5t-66 -41.5v-1q35 -10 55 -36t20 -63q0 -69 -44 -108t-116 -39q-64 0 -102.5 32.5t-40.5 87.5q0 7 1 10h68v-4q8 -66 76 -66q39 0 63.5 24t24.5 61q0 71 -93 71h-22l9 59h20q100 0 100 73
q0 23 -15 37t-43 14q-63 0 -76 -56z" />
    <glyph glyph-name="four.numerator" 
d="M383 335h-57l-14 -85h-69l13 85h-201l8 49l258 298h63l-48 -286h57zM268 396l29 183l-158 -183h129z" />
    <glyph glyph-name="five.numerator" 
d="M217 620l-25 -92q13 6 44 6q64 0 100.5 -37t36.5 -97q0 -68 -46.5 -116t-120.5 -48q-67 0 -102 35.5t-35 94.5h70q0 -30 17.5 -49t51.5 -19q43 0 68.5 27.5t25.5 72.5q0 74 -78 74q-50 0 -115 -22l60 232h219l-12 -62h-159z" />
    <glyph glyph-name="six.numerator" 
d="M66 376q0 89 81 170l137 136h80l-134 -135q13 3 30 3q60 -1 98 -39t38 -94q0 -79 -50.5 -130t-131.5 -51q-70 0 -109 39t-39 101zM241 492q-48 0 -76.5 -33t-28.5 -80q0 -36 21.5 -58.5t59.5 -22.5q51 0 80 31.5t29 81.5q0 36 -22 58.5t-63 22.5z" />
    <glyph glyph-name="seven.numerator" 
d="M413 682l-10 -47l-243 -385h-79l241 370h-207l10 62h288z" />
    <glyph glyph-name="eight.numerator" 
d="M260 637q-33 0 -55.5 -18t-22.5 -50q0 -27 17 -44t48 -17q38 0 59.5 20t21.5 53q0 26 -17.5 41t-50.5 15zM376 379q0 -62 -44.5 -102.5t-117.5 -40.5q-68 0 -106 34t-38 89q0 47 28.5 80.5t74.5 44.5q-26 12 -41.5 36.5t-15.5 51.5q0 53 42.5 88.5t106.5 35.5
q59 0 93.5 -29.5t34.5 -78.5q0 -38 -22 -67t-63 -41q31 -12 49.5 -39.5t18.5 -61.5zM231 453q-41 0 -67 -23.5t-26 -66.5q0 -31 21 -50t60 -19q41 0 65 24t24 65q0 32 -21 51t-56 19z" />
    <glyph glyph-name="nine.numerator" 
d="M411 554q0 -47 -19 -84.5t-62 -80.5l-142 -139h-80l135 134q-13 -3 -30 -3q-61 1 -97.5 37.5t-36.5 93.5q0 77 51 130.5t133 53.5q68 0 108 -40.5t40 -101.5zM232 439q49 0 79 33t30 79q0 36 -20.5 59.5t-60.5 23.5q-50 0 -80.5 -33t-30.5 -83q0 -79 83 -79z" />
    <glyph glyph-name="parenleft.cap" horiz-adv-x="308" 
d="M251 -161h-76q-83 150 -83 370q0 144 61 305t172 283h78q-112 -122 -173.5 -283.5t-61.5 -304.5q0 -223 83 -370z" />
    <glyph glyph-name="parenright.cap" horiz-adv-x="308" 
d="M38 -161h-77q108 122 171 282.5t63 336.5q0 91 -22 183t-61 156h76q83 -138 83 -339q0 -167 -59 -327t-174 -292z" />
    <glyph glyph-name="bracketleft.cap" horiz-adv-x="340" 
d="M379 782l-12 -70h-102l-123 -788h101l-11 -70h-176l148 928h175z" />
    <glyph glyph-name="bracketright.cap" horiz-adv-x="340" 
d="M134 712l12 70h174l-146 -928h-175l12 70h102l123 788h-102z" />
    <glyph glyph-name="braceleft.cap" horiz-adv-x="366" 
d="M380 795l-9 -60q-63 0 -76 -81l-33 -208q-8 -57 -29.5 -87t-64.5 -42v-2q56 -24 56 -89q0 -17 -5 -52l-32 -195q-3 -21 -3 -26q0 -54 54 -54l-10 -60q-55 0 -85.5 29t-30.5 81q0 15 5 48l34 209q1 7 1 20q-2 28 -19.5 46.5t-48.5 18.5l8 51q38 0 62.5 24.5t30.5 59.5
l38 229q12 74 51.5 107t105.5 33z" />
    <glyph glyph-name="braceright.cap" horiz-adv-x="366" 
d="M24 -161l9 60q63 0 76 81l33 208q8 57 29.5 87t64.5 42v2q-56 24 -56 89q0 17 5 52l32 195q3 21 3 26q0 54 -54 54l10 60q55 0 85.5 -29t30.5 -81q0 -15 -5 -48l-34 -209q-1 -7 -1 -20q2 -28 19.5 -46.5t48.5 -18.5l-8 -51q-38 0 -62.5 -24.5t-30.5 -59.5l-38 -229
q-12 -74 -51.5 -107t-105.5 -33z" />
    <glyph glyph-name="exclamdown.cap" horiz-adv-x="221" 
d="M230 682l-13 -88h-85l13 88h85zM122 0h-85l87 493h69z" />
    <glyph glyph-name="questiondown.cap" horiz-adv-x="438" 
d="M163 357q64 58 76 136h73q-9 -56 -26.5 -93t-56.5 -76q-4 -4 -30.5 -29t-35 -35.5t-25 -32.5t-23 -43t-6.5 -44q0 -40 25.5 -66t71.5 -26q51 0 85.5 33.5t43.5 90.5h80q-14 -88 -70.5 -141t-143.5 -53q-78 0 -126.5 41t-48.5 112q0 65 34.5 114.5t102.5 111.5zM347 682
l-13 -88h-85l13 88h85z" />
    <glyph glyph-name="guillemotleft.cap" horiz-adv-x="463" 
d="M79 339l150 194l43 -30l-118 -170l66 -184l-51 -19zM257 339l149 194l43 -30l-118 -170l67 -184l-52 -19z" />
    <glyph glyph-name="guillemotright.cap" horiz-adv-x="463" 
d="M414 323l-149 -193l-43 29l118 171l-67 184l52 19zM237 323l-150 -193l-43 29l119 171l-67 184l51 19z" />
    <glyph glyph-name="guilsinglleft.cap" horiz-adv-x="286" 
d="M79 339l150 194l43 -30l-118 -170l66 -184l-51 -19z" />
    <glyph glyph-name="guilsinglright.cap" horiz-adv-x="286" 
d="M237 323l-150 -193l-43 29l119 171l-67 184l51 19z" />
    <glyph glyph-name="hyphen.cap" horiz-adv-x="453" 
d="M415 332h-309l11 65h309z" />
    <glyph glyph-name="endash.cap" horiz-adv-x="560" 
d="M501 334h-404l10 60h404z" />
    <glyph glyph-name="emdash.cap" horiz-adv-x="1110" 
d="M1051 334h-954l10 60h954z" />
    <glyph glyph-name="periodcentered.cap" horiz-adv-x="220" 
d="M74 297l16 109h104l-17 -109h-103z" />
    <glyph glyph-name="at.cap" horiz-adv-x="949" 
d="M907 380q0 -116 -55 -191t-135 -75q-49 0 -78.5 23t-34.5 64h-5q-21 -38 -62 -62.5t-79 -24.5q-71 0 -114 52.5t-43 136.5q0 99 57 172t144 73q80 0 122 -74h1l11 63h67l-40 -259q-4 -26 -4 -47q0 -28 16 -44.5t48 -16.5q49 0 81.5 58.5t32.5 146.5q0 139 -84.5 218
t-241.5 79q-152 0 -248 -105t-96 -255q0 -146 91.5 -234.5t246.5 -88.5q127 0 202 36l22 -49q-88 -43 -232 -43q-178 0 -289 104t-111 276q0 176 117 295.5t301 119.5q103 0 181.5 -30.5t122.5 -81.5t66 -110.5t22 -125.5zM609 365q0 60 -26.5 93.5t-74.5 33.5
q-65 0 -101 -57.5t-36 -133.5q0 -59 26.5 -95t72.5 -36q61 0 100 60.5t39 134.5z" />
    <glyph glyph-name="sterling.oldstyle" horiz-adv-x="555" 
d="M155 95q50 0 106 -24q66 -27 99 -27q68 0 88 106h75q-15 -90 -57 -131t-111 -41q-53 0 -125 31q-64 29 -108 29q-52 0 -110 -42l11 73q73 35 97.5 66t24.5 92q0 23 -4 43h-100l11 61h80q-3 13 -3 35q0 96 52.5 157.5t157.5 61.5q85 0 131.5 -44.5t48.5 -119.5h-78
q-1 44 -28.5 71t-78.5 27q-63 0 -94 -41.5t-31 -110.5q0 -12 2 -36h164l-11 -61h-146q3 -22 3 -41q0 -48 -14.5 -78.5t-51.5 -55.5z" />
    <glyph glyph-name="Euro.oldstyle" horiz-adv-x="517" 
d="M45 324l22 58h69q37 91 112.5 147.5t177.5 56.5q72 0 122 -25l-26 -63q-40 21 -97 21q-72 0 -125.5 -38t-80.5 -99h251l-22 -58h-248q-10 -40 -10 -75h225l-22 -58h-198q8 -75 46.5 -111.5t116.5 -36.5q55 0 105 19l-11 -71q-54 -15 -101 -15q-216 0 -239 215h-85l23 58
h60q0 38 10 75h-75z" />
    <glyph glyph-name="florin.oldstyle" horiz-adv-x="512" 
d="M310 348h90l-11 -65h-96l-90 -343q-22 -85 -63 -121.5t-110 -36.5q-37 0 -62 9l10 64q24 -8 50 -8q76 0 100 95l88 341h-83l11 65h89l21 80q22 83 61.5 120.5t112.5 37.5q29 0 63 -10l-11 -63q-26 8 -53 8q-38 0 -61 -21.5t-37 -75.5z" />
    <glyph glyph-name="yen.oldstyle" horiz-adv-x="522" 
d="M71 299h131l-102 267h79l63 -176q16 -46 26 -85q28 51 50 84l117 177h85l-183 -267h131l-9 -58h-160l-11 -73h159l-10 -58h-159l-16 -110h-79l16 110h-159l10 58h159l11 73h-158z" />
    <glyph glyph-name="numbersign.oldstyle" horiz-adv-x="547" 
d="M533 368h-109l-44 -157h110l-14 -52h-110l-45 -159h-56l45 159h-116l-44 -159h-56l44 159h-109l14 52h109l44 157h-109l15 52h110l42 146h56l-42 -146h115l41 146h56l-41 -146h110zM252 368l-44 -157h116l44 157h-116z" />
    <glyph glyph-name="fi.alt01" horiz-adv-x="532" 
d="M434 482h75l-75 -482h-74zM218 419l-69 -441q-18 -114 -63 -164t-124 -50q-33 0 -58 9l10 62q23 -7 48 -7q43 0 70.5 34t42.5 125l68 432h-78l9 63h79l8 56q13 88 65.5 137.5t136.5 49.5q70 0 114 -41.5t44 -101.5h-75q0 34 -23.5 56.5t-63.5 22.5q-102 0 -122 -118
l-10 -61h112l-9 -63h-112z" />
    <glyph glyph-name="fl.alt01" horiz-adv-x="531" 
d="M75 -13l70 432h-78l9 63h79l8 55q16 102 65.5 145t150.5 43q72 0 165 -24l-111 -701h-74l102 648q-50 12 -87 12q-65 0 -95 -25.5t-39 -83.5l-11 -69h100l-10 -63h-99l-71 -441q-19 -114 -63.5 -164t-123.5 -50q-33 0 -58 9l10 62q23 -7 48 -7q43 0 70.5 34t42.5 125z
" />
    <glyph glyph-name="f_f.alt01" horiz-adv-x="569" 
d="M218 419l-69 -441q-18 -114 -63 -164t-124 -50q-33 0 -58 9l10 62q23 -7 48 -7q43 0 71 34t42 125l67 432h-66l10 63h66l8 48q17 103 67.5 149t145.5 46q62 0 132 -39q38 39 113 39q28 0 58 -8l-10 -62q-24 6 -47 6q-41 0 -64 -23.5t-33 -82.5l-12 -73h107l-10 -63h-107
l-69 -441q-18 -114 -63 -164t-124 -50q-33 0 -58 9l10 62q23 -7 48 -7q43 0 71 34t42 125l67 432h-206zM434 482l12 74q8 49 20 73q-50 31 -97 31q-58 0 -89.5 -29.5t-42.5 -95.5l-9 -53h206z" />
    <glyph glyph-name="f_f_i.alt01" horiz-adv-x="813" 
d="M500 419l-69 -441q-18 -114 -63 -164t-124 -50q-33 0 -58 9l10 62q23 -7 48 -7q43 0 70.5 34t42.5 125l68 432h-207l-69 -441q-18 -114 -63 -164t-124 -50q-33 0 -58 9l10 62q23 -7 48 -7q43 0 71 34t42 125l67 432h-66l10 63h66l8 48q19 104 68.5 149.5t144.5 45.5
q68 0 142 -43q53 43 130 43q70 0 114 -41.5t44 -101.5h-75q0 34 -24 56.5t-64 22.5q-50 0 -81.5 -30.5t-40.5 -87.5l-9 -61h112l-9 -63h-112zM715 482h75l-75 -482h-74zM237 535l-9 -53h207l8 55q8 55 29 91q-54 32 -103 32q-58 0 -90 -29.5t-42 -95.5z" />
    <glyph glyph-name="f_f_l.alt01" horiz-adv-x="810" 
d="M354 -13l70 432h-206l-69 -441q-18 -114 -63 -164t-124 -50q-33 0 -58 9l10 62q23 -7 48 -7q43 0 71 34t42 125l67 432h-66l10 63h66l8 48q19 104 68.5 149.5t144.5 45.5q68 0 137 -41q48 41 148 41q72 0 165 -24l-111 -701h-74l102 648q-50 12 -87 12q-65 0 -95 -25.5
t-39 -83.5l-11 -69h100l-10 -63h-99l-71 -441q-19 -114 -63.5 -164t-123.5 -50q-33 0 -58 9q0 3 4 25.5t6 36.5q23 -7 48 -7q43 0 70.5 34t42.5 125zM237 535l-9 -53h206l8 55q10 60 27 92q-50 31 -100 31q-58 0 -89.5 -29.5t-42.5 -95.5z" />
    <glyph glyph-name="acute.cap" horiz-adv-x="325" 
d="M320 883l26 -60l-201 -86l-20 49z" />
    <glyph glyph-name="breve.cap" horiz-adv-x="325" 
d="M323 882h56q-15 -61 -59.5 -93t-109.5 -32q-66 0 -99 32.5t-33 92.5h55q0 -68 81 -68q39 0 69.5 18t39.5 50z" />
    <glyph glyph-name="caron.cap" horiz-adv-x="325" 
d="M205 735l-140 100l28 44l119 -69l145 69l21 -46z" />
    <glyph glyph-name="circumflex.cap" horiz-adv-x="325" 
d="M228 879l140 -100l-28 -44l-120 69l-144 -69l-21 46z" />
    <glyph glyph-name="dieresis.cap" horiz-adv-x="325" 
d="M84 780l13 81h79l-13 -81h-79zM265 780l13 81h79l-13 -81h-79z" />
    <glyph glyph-name="dotaccent.cap" horiz-adv-x="325" 
d="M171 784l13 80h81l-13 -80h-81z" />
    <glyph glyph-name="grave.cap" horiz-adv-x="323" 
d="M99 817l28 62l160 -92l-23 -50z" />
    <glyph glyph-name="hungarumlaut.cap" horiz-adv-x="325" 
d="M240 878l33 -49l-162 -94l-26 40zM398 878l34 -49l-163 -94l-26 40z" />
    <glyph glyph-name="macron.cap" horiz-adv-x="328" 
d="M353 786h-279l9 56h279z" />
    <glyph glyph-name="ring.cap" horiz-adv-x="325" 
d="M148 819q0 -28 19.5 -47.5t46.5 -19.5q29 0 48 19.5t19 47.5q0 29 -19 47.5t-48 18.5q-27 0 -46.5 -19t-19.5 -47zM102 819q0 46 33 79t79 33q47 0 80 -32.5t33 -79.5t-33 -80t-80 -33q-46 0 -79 33.5t-33 79.5z" />
    <glyph glyph-name="tilde.cap" horiz-adv-x="325" 
d="M113 771h-59q9 56 37.5 84.5t68.5 28.5q38 0 74 -33q34 -31 52 -31q37 0 46 57h59q-17 -113 -109 -113q-40 0 -74 33q-31 31 -51 31q-33 0 -44 -57z" />
    <glyph glyph-name="caron.alt" horiz-adv-x="294" 
d="M52 643l12 77h85l-11 -61q-10 -55 -38 -85h-49q26 29 33 69h-32z" />
    <glyph glyph-name="commaaccent.alt" horiz-adv-x="325" 
d="M238 640l-12 -77h-85l11 61q10 55 38 85h49q-26 -29 -33 -69h32z" />
    </font>
</defs>
</svg>
